<?xml version="1.0" standalone="no"?>
<!DOCTYPE svg PUBLIC "-//W3C//DTD SVG 1.1//EN" "http://www.w3.org/Graphics/SVG/1.1/DTD/svg11.dtd" >
<!--
2014-11-24: Created with FontForge (http://fontforge.org)
-->
<svg xmlns="http://www.w3.org/2000/svg" xmlns:xlink="http://www.w3.org/1999/xlink" version="1.1">
<metadata>
Created by FontForge 20141014 at Wed Nov 25 09:33:10 2015

Copyright (c) 2014, Anonymous
</metadata>
<defs>
<font id="Untitled1" horiz-adv-x="1000" >
  <font-face 
    font-family="Untitled1"
    font-weight="400"
    font-stretch="normal"
    units-per-em="1000"
    panose-1="2 0 5 3 0 0 0 0 0 0"
    ascent="800"
    descent="-200"
    x-height="796"
    cap-height="796"
    bbox="-2 -201 2168 800.688"
    underline-thickness="50"
    underline-position="-100"
    unicode-range="U+0041-00A8"
  />
    <missing-glyph />
    <glyph glyph-name="A" unicode="A" horiz-adv-x="1001" 
d="M229.318 368.639l98.6816 87.3613l14.9033 -125.04l-36.8301 10.0781c-4.87305 -41.9199 -7.25488 -72.0576 8.46289 -113.747c13.7354 -38.2139 42.2041 -63.7295 63.1875 -82.5361c16.4844 -14.7744 15.7314 -25.5645 6.41992 -35.4795
c-8.44141 -9.41895 -29.4092 -8.66699 -38.0781 0.15625c-38.418 39.1035 -61.96 68.2715 -78.9121 116.163c-16.9531 47.8916 -16.1787 82.8691 -7.58105 130.367zM584.979 38.167l-124.979 41.833l100.868 75.3838l9.6709 -36.9395
c38.748 16.7236 66.0439 29.7178 94.3047 64.1621c26.2393 30.9922 34.1182 68.4004 39.9258 95.9746c4.56055 21.6602 14.2842 26.3994 27.5254 23.2881c12.377 -2.60742 22.2021 -21.1465 18.8896 -33.0645c-14.6777 -52.8154 -28.1826 -87.7812 -61.1982 -126.395
c-33.0146 -38.6133 -63.7002 -55.418 -109.141 -71.7021zM697 511l27 -129l-116 49l27 27c-34 25 -59 42 -103 49c-40 7 -76.2676 -5.08887 -103 -14c-21 -7 -30 -1 -34 12c-4 12 7.04102 29.8408 19 33c53 14 90 20 140 11s80 -27 117 -58zM0 208v170l106 -105
c27 -92 40 -151 106 -218c80 -81 134 -103 254 -146l111 -109h-166zM916 -200h-169l-123 125l104 57zM0 716l182 -184l-53 -110l-129 121v173zM1001 49v-165l-183 187l57 107zM252 800l125 -126l-109 -57l-183 183h167zM420 800h170l411 -412v-166l-110 106
c-30 102 -47 166 -121 241c-74 74 -133 82 -239 122zM502 667c-201 3 -369 -158 -369 -359c0 -205 163 -372 368 -375c201 -3 367 161 367 363c0 203 -163 368 -366 371zM503 699c221 -2 399 -183 398 -404c-1 -220 -182 -397 -401 -395c-222 2 -402 182 -401 404
c1 220 184 397 404 395zM0 40l241 -240h-171l-70 72v168zM762 800h164l75 -75v-167z" />
    <glyph glyph-name="R" unicode="R" horiz-adv-x="1501" 
d="M905.375 -21l-20 11v-112l23 -8c26 -7 41 -13 67 -18c34 -6 54 -9 88 -10c54 -1 84 -1 138 4c32 3 51 5 82 15s50 16 77 34c26 17 40 29 59 54c16 21 20 36 30 61c6 16 8 26 9 42c2 29 3 45 0 74c-2 21 -5 33 -13 52c-9 22 -17 34 -32 52c-14 17 -24 25 -41 39
c-16 13 -26 19 -45 30c-21 12 -33 19 -54 29s-33 13 -54 22c-20 9 -30 15 -50 25c-14 7 -23 10 -37 17c-9 5 -14 9 -23 14c-4 2 -6 4 -10 6l-10 9l-151 -62l16 -15c9 -7 14 -11 23 -18c19 -13 29 -21 49 -32c14 -8 23 -11 37 -17c17 -8 26 -12 43 -19c16 -7 25 -11 41 -18
c15 -7 24 -10 39 -18c16 -9 26 -14 41 -24s24 -15 38 -28c13 -13 19 -21 30 -36c6 -8 8 -13 11 -22c4 -12 7 -20 7 -32c0 -19 0 -30 -5 -48c-4 -14 -11 -21 -19 -32c-9 -12 -15 -18 -26 -28c-12 -10 -19 -16 -34 -22c-26 -10 -42 -14 -70 -17c-39 -4 -61 -2 -100 1
c-25 2 -39 6 -64 12c-18 4 -27 8 -44 14c-10 3 -15 6 -24 10s-13 5 -22 9zM869.375 -158l-24 10v214l23 -18c18 -11 26 -18 45 -28c17 -9 27 -13 44 -20c14 -6 22 -9 36 -13c17 -5 26 -8 43 -11c13 -3 21 -3 35 -4c30 -1 47 -1 77 0c12 0 18 1 30 4c10 2 16 4 26 8
c9 3 15 5 23 10c8 4 11 8 18 14c4 4 7 5 10 10c6 9 12 14 14 24c4 17 6 28 3 46c-2 14 -7 21 -15 32c-9 13 -16 20 -29 30c-16 13 -26 18 -44 28c-24 13 -39 20 -64 31c-30 14 -48 18 -77 33c-30 15 -47 24 -76 43c-25 17 -39 28 -60 49c-14 14 -20 23 -30 40
c-12 22 -19 34 -26 58c-7 25 -8 40 -10 66c-1 23 -1 37 2 60c2 18 4 27 10 45c5 15 9 24 16 37c11 20 18 30 32 48c10 13 17 19 30 29c23 17 37 25 62 39c13 7 21 11 36 15c22 7 35 9 58 14c17 4 27 7 44 9c24 3 38 4 62 4c32 1 51 0 83 -1c20 -1 31 -2 51 -5s30 -4 50 -8
c17 -3 27 -6 44 -10c7 -2 11 -3 18 -5c3 -1 5 -2 8 -3l12 -5l-2 -199l-12 10c-9 5 -13 8 -22 12c-13 6 -21 9 -34 14c-16 6 -24 10 -40 15c-12 4 -19 6 -31 8c-19 4 -31 6 -50 7c-30 2 -47 3 -77 2c-13 -1 -20 -3 -32 -7c-14 -4 -21 -7 -34 -13c-10 -4 -16 -6 -25 -13
c-8 -6 -11 -11 -17 -19c-6 -7 -11 -11 -13 -20c-5 -18 -7 -29 -4 -48c2 -12 7 -18 15 -27c18 -19 28 -29 50 -45c17 -12 29 -17 48 -26c24 -11 39 -15 64 -26c22 -10 34 -17 56 -28c17 -9 27 -13 44 -22c11 -6 17 -9 27 -16c16 -11 25 -17 39 -30c14 -12 22 -20 33 -34
c14 -17 21 -27 31 -46c10 -21 15 -33 20 -56c5 -21 7 -34 6 -56c-1 -38 -4 -61 -11 -98c-4 -18 -8 -28 -17 -44c-11 -20 -20 -30 -34 -47c-13 -15 -20 -24 -36 -35c-29 -19 -46 -30 -78 -42c-32 -13 -51 -15 -86 -22c-22 -4 -34 -5 -56 -6c-35 -2 -55 -2 -90 -2
c-28 0 -44 0 -72 4c-34 4 -52 9 -86 16c-18 4 -28 7 -46 13c-7 2 -11 4 -18 7zM311.375 622l-92 -1v-274l88 1c23 2 35 1 58 6c14 3 22 7 34 14s18 12 28 22c9 8 13 14 19 24c7 11 11 17 16 30s6 21 7 34c1 15 2 23 0 38s-3 24 -10 38c-5 12 -11 17 -20 27
c-7 8 -11 12 -20 18c-10 6 -17 8 -28 12s-16.9434 5.3418 -28 7c-20 3 -32 2 -52 4zM177.375 48l-134 -56v-133l134 1v188zM411.375 142l172 -282l153 -1c-56 87 -87 137 -144 223c-18 28 -29 43 -49 69c-6 8 -11 12 -18 19l-14 13zM270.375 188zM271.375 188h-53v-370h-217
v962l302 2c51 -2 79 0 130 -6c40 -5 62 -9 100 -22c33 -12 51 -21 80 -41c20 -14 29 -25 43 -45c15 -21 21 -36 29 -60c8 -25 9 -40 10 -66c1 -27 1 -43 -3 -70c-3 -21 -7 -33 -15 -52c-9 -23 -17 -35 -30 -55c-8 -13 -13 -20 -24 -30c-17 -16 -26 -25 -46 -38
c-23 -15 -37 -21 -62 -33c-7 -4 -12 -4 -20 -7l-18 -5l12 -6c12 -7 21 -10 32 -18c14 -10 21 -17 33 -29c14 -14 22 -23 34 -39c16 -21 25 -33 39 -55c17 -26 26 -42 43 -69c31 -48 48 -74 79 -122l60 -95l-248 -1l-134 222c-13 20 -20 32 -33 52c-12 18 -17 28 -31 45
c-11 13 -18 21 -32 31c-11 8 -18 11 -30 16c-6 2 -9 3 -15 4s-9 0 -15 0z" />
    <glyph glyph-name="C" unicode="C" horiz-adv-x="1069" 
d="M880 748c-34 5 -54 9 -88 13c-38 4 -60 8 -98 7c-57 -2 -90 -4 -146 -15c-47 -10 -74 -19 -118 -39c-39 -18 -60 -31 -94 -58c-31 -25 -46 -43 -70 -75c-22 -29 -34 -46 -46 -80c-14 -38 -15 -62 -20 -102c-4 -31 -5 -48 -4 -79c2 -38 4 -60 12 -97s16 -58 30 -93
c12 -31 19 -49 38 -77c22 -33 37 -51 66 -79c25 -24 42 -34 72 -51c27 -16 43 -24 72 -34c30 -10 48 -14 80 -18c39 -5 61 -5 100 -3c34 2 52 6 86 13c40 8 63 14 102 26c27 9 42 15 68 28c23 11 35 18 56 32c17 12 26 20 42 33l-32 161c-14 -11 -21 -19 -36 -29
c-21 -15 -33 -24 -56 -36c-30 -16 -48 -24 -80 -36c-23 -9 -36 -14 -60 -18c-27 -5 -43 -7 -70 -6c-29 1 -46 2 -74 11c-32 10 -50 19 -78 36c-20 12 -30 21 -46 38c-21 22 -33 34 -48 61c-15 26 -21 42 -28 71c-8 34 -11 54 -10 89c1 30 6 47 16 75c9 27 17 42 32 65
c14 22 23 35 42 52c21 19 35 27 60 40c22 12 34 17 58 24c31 9 50 13 82 18c24 4 38 5 62 4c25 -1 39 -4 64 -9c20 -4 30 -9 50 -16c17 -6 26 -10 42 -17zM1010 214l43 -228c-31 -21 -47 -38 -80 -55c-53 -27 -84 -39 -141 -58c-52 -17 -83 -23 -137 -33
c-93 -18 -145 -36 -239 -38c-66 -1 -104 7 -166 29c-52 19 -78 40 -121 75c-39 31 -59 52 -87 94c-27 42 -34 70 -51 117c-10 29 -13 46 -18 76c-7 43 -13 67 -13 110c0 44 4 70 13 113c7 35 15 55 29 88c11 26 20 41 37 64c16 21 27 31 46 49c25 23 40 35 68 54
s45 29 76 42c34 14 54 19 89 29c30 8 47 10 77 16c25 5 39 8 64 13c31 7 48 13 78 18c36 5 57 7 93 8c41 1 65 -1 106 -4c26 -2 40 -4 66 -8c25 -4 38 -7 63 -12l41 -242l-168 -35c-19 8 -29 13 -48 20c-28 10 -44 17 -73 24c-30 8 -48 9 -79 14c-20 -12 -33 -18 -51 -32
c-19 -15 -29 -25 -45 -44c-13 -16 -18 -26 -26 -44c-10 -23 -14 -37 -19 -62c-5 -26 -6 -41 -5 -67c1 -20 3 -32 8 -50c7 -22 12 -34 23 -54c11 -21 18 -32 33 -50c11 -13 19 -19 32 -29c20 -15 31 -23 53 -34c18 -9 30 -12 49 -16c21 -5 34 -4 55 -7c19 11 32 16 50 28
c19 12 29 20 46 34c13 11 20 18 32 29c10 9 16 15 27 24z" />
    <glyph glyph-name="S" unicode="S" horiz-adv-x="1011" 
d="M586.5 410l-48 46c55 47 85 75 142 120c66 52 104 80 174 127c58 39 94 57 154 94c-34 -57 -51 -92 -88 -147c-51 -74 -82 -115 -138 -185c-43 -53 -70 -81 -115 -132l-51 49l108 108c35.5 42 6.5 4 35.5 42c7.07497 9.27064 25 40 30 50
c-13 -7 -39.5557 -24.9102 -52.5 -33c-16 -10 -24 -17 -40 -28zM246.5 565c7 -13 11 -20 18 -33c7 -12 8 -22 18 -32c163 -169 259 -260 425 -426l29 28c-166 166 -258 262 -426 426c-10 10 -18 13 -30 20c-13 7 -21 10 -34 17zM952.5 -99l40 -30c6 -4 10 -7 16 -11l-58 -58
c-16 21 -23 34 -40 54c-25 30 -38 47 -66 76c-22 23 -36 34 -60 54c-15 12 -24 17 -40 28c-6 5 -10 7 -16 12l-16 -16l-23 -23c-15 -16 -24 -25 -37 -43c-11 -15 -16 -24 -26 -40c-6 -10 -9 -16 -14 -26c-4 -7 -5 -11 -9 -18l-81 80c13 8 21 12 34 20c17 11 26 18 42 29
c10 7 16 10 26 17s15 12 25 20l-264 268c-39 43 -63 66 -101 110c-59 69 -92 107 -146 181c-43 60 -62 97 -102 159c-13 21 -21 33 -34 54c26 -14 42 -22 67 -37c47 -29 73 -46 118 -77c56 -39 88 -62 142 -104c35 -27 52 -44 86 -72c28 -24 45 -37 72 -62
c117 -110 182 -174 298 -286c16 21 26 31 41 53c14 20 20 33 32 54c5 8 7 13 12 21l80 -80c-12 -8 -20 -12 -32 -20c-25 -16 -41 -24 -65 -42c-21 -16 -31 -28 -51 -46c-7 -7 -11 -12 -18 -19c9 -14 14 -24 24 -37c17 -23 27 -35 46 -56c19 -20 29 -31 50 -50
c18 -16 29 -23 48 -37zM70.5 200l-8 7l82 81l6 -10c5 -9 7 -13 12 -22c12 -20 18 -31 31 -50c8 -13 14 -19 23 -31c5 -6 7 -9 12 -15l118 115l52 -54l-118 -118l28 -28l118 117l52 -54l-112 -112l10 -8c8 -7 12 -12 21 -18c15 -11 24 -17 40 -27c14 -9 23 -13 37 -22
c4 -2 6 -4 10 -7l8 -4l-80 -82l-6 9c-3 5 -5 8 -8 13c-16 25 -23 40 -40 64c-12 18 -20 28 -34 44c-6 8 -11 11 -18 18c-4 4 -5 6 -9 10l-10 10l-11 -6c-9 -8 -14 -13 -24 -20c-15 -11 -25 -16 -40 -28c-11 -8 -15 -15 -25 -24c-9 -9 -15 -14 -24 -23
c-10 -10 -15 -16 -25 -27c-9 -11 -14 -17 -23 -28c-12 -15 -19 -24 -31 -40c-2 -3 -4 -5 -6 -8c-3 -4 -4 -6 -6 -10l-8 -11l-62 58l12 7c6 4 10 6 16 10c19 13 30 20 48 34c18 15 27 24 44 40c16 15 25 23 40 40c14 15 21 24 34 40c9 12 14 20 22 32c3 4 4 6 6 10l7 9l-8 7
c-5 5 -8 9 -13 14c-15 13 -24 20 -39 32c-18 13 -28 21 -46 33c-11 7 -17 10 -28 17c-10 6 -16 10 -27 16z" />
    <glyph glyph-name="D" unicode="D" 
d="M249 470c-1 -15 12 -21 25 -28c21 -11 35 -10 58 -14c32 -6 51 -8 83 -11c31 -3 49 -6 80 -6c30 0 48 3 78 5c26 2 40 3 66 7c20 3 31 6 50 11c18 5 28 7 45 16c8 4 15 8 16 17s-5 15 -12 21c-11 9 -20 10 -33 14c-28 8 -44 13 -72 18c-20 4 -32 4 -52 6
c-27 2 -43 4 -70 4c-23 0 -52 -2 -75 -3s-19.9843 -1.12304 -43 -4c-24 -3 -23.918 -1.41309 -48 -6c-21 -4 -48.7958 -7.39792 -68 -17c-14 -7 -26.9336 -14.0043 -28 -30zM0 0l240 477c7 9 8 16 18 22c19 12 32 16 54 22c29 7 47 8 77 11c42 5 66 9 109 9
c48 0 74 -4 122 -9c24 -2 37 -5 60 -10c20 -5 33 -6 51 -16c14 -8 18 -17 30 -28l239 -478h-1000z" />
    <glyph glyph-name="E" unicode="E" horiz-adv-x="821" 
d="M384 96h52v-117h-52v117zM384 497l52 -1v-114l-52 -1v116zM382 701l54 -1v-120h-54v121zM284 337l288 -102l-290 -103l70 101zM482 315l-2 358l336 -673h-336v155l112 41c7 6 13 8 18 16s5 15 6 24c1 8 2 13 -2 20c-5 8 -9 13 -18 17c-43 19 -70 26 -114 42zM0 0l338 672
v-307l-36 13c-11 1 -17 4 -28 2c-10 -2 -15 -6 -22 -13c-6 -7 -9 -12 -10 -21c-1 -10 2 -16 4 -26l56 -85l-50 -75c-3 -12 -8 -18 -8 -30c0 -11 2 -18 10 -27c7 -8 14 -9 24 -11c8 -2 13 1 22 2l38 12v-106h-338z" />
    <glyph glyph-name="F" unicode="F" 
d="M186 246l306 58l-202 -237l10 123zM379 706l-144 -291l58 -116l-104 -20c-9 -4 -14 -3 -22 -9c-7 -6 -11 -11 -13 -19c-2 -7 0 -12 2 -19c1 -5 3 -7 7 -10s7 -4 11 -7l90 -43l-6 -108c2 -7 2 -11 6 -17c3 -5 6 -7 11 -9s8 -2 13 -2c7 0 11 1 18 4c3 1 4 3 6 5
c3 3 4 4 6 7l62 72l52 -104h292zM0 0l379 759l380 -759h-759z" />
    <glyph glyph-name="G" unicode="G" 
d="M461 0v261h-248c5 -25 4 -40 13 -64c10 -26 19 -39 34 -63c8 -14 14 -21 25 -33c15 -16 26 -23 43 -37c13 -11 20 -17 35 -26c13 -8 22.029 -9.91962 36 -15c11 -4 15 -7 26 -11c14 -5 23 -6 36 -12zM783 261h-250v-261c25 10 39 12 64 23c22 10 33.857 17.2539 55 29
c18 10 28 17 43 31c16 15 23 26 36 44c12 15 19 24 28 41c10 19 14 31 19 52c4 16 3 25 5 41zM536 580v-247l247 -1c-4 20 -3 31 -9 51c-7 24 -12 39 -25 60c-14 23 -24 34 -43 53c-16 16 -26 24 -45 37c-17 12 -27 17 -46 26c-14 7 -22.0314 9.8916 -36 14
c-17 5 -26 3 -43 7zM210 331h252v250c-35 -10 -55 -11 -89 -25c-24 -10 -37 -18 -58 -35c-22 -17 -34 -29 -50 -51c-17 -23 -24 -37 -35 -64c-11 -28 -12 -46 -20 -75zM149 259h-149v71h152c6 31 3.50338 52.1535 13 82c7 22 13 35 24 55c12 21 19 33 35 52
c19 23 31 34 54 53c24 19 38 29 65 42c26 13 42 17 70 25c18 5 29 4 48 7v151h72v-155c27 -5 44.0565 -2.79347 70 -10c18 -5 28 -9 45 -18c19 -9 29 -16 46 -28c16 -11 25 -18 39 -31c20 -19 31 -29 48 -51c13 -17 18 -28 28 -48c12 -24 18 -38 27 -64c4 -12 6 -20 8 -33
c1 -11 0 -17 0 -28h156v-70h-153c-4 -25 -4 -39 -11 -63c-6 -21 -13 -32 -23 -52c-11 -22 -18 -35 -32 -55s-23 -31 -41 -48c-18 -18 -30 -28 -51 -43c-15 -11 -25 -17 -42 -24c-16 -7 -27 -9 -44 -14c-16 -5 -25 -9 -41 -12c-12 -2 -19 -1 -31 -1l1 -148h-71v147
c-25 5 -39 5 -64 12c-19 5 -29 10 -48 18s-30 11 -48 22c-16 10 -23 18 -36 31c-19 18 -29 28 -46 48c-14 17 -22 28 -32 48c-9 18 -15 30 -22 49s-9 31 -14 51c-3 12 -1 20 -2 32z" />
    <glyph glyph-name="H" unicode="H" horiz-adv-x="954" 
d="M509 416c63 -2 112 -55 111 -118c-1 -62 -52 -114 -114 -112c-65 2 -119 53 -118 118c1 64 57 114 121 112zM861 651l93 87v-306l-310 -1l85 88c-21 17 -30 30 -53 44c-29 18 -46 29 -79 39c-37 11 -59 14 -97 13c-42 -1 -66 -7 -107 -19c-25 -7 -38 -14 -59 -29
c-28 -20 -42 -34 -65 -59c-17 -18 -26 -30 -38 -52c-15 -27 -23 -43 -31 -72c-8 -28 -10 -46 -10 -75c0 -30 2 -48 9 -77s13 -44 25 -71c11 -23 18 -36 33 -56c11 -14 20 -19 33 -31c16 -15 25 -24 43 -37c14 -10 23 -13 38 -20c18 -8 28.1318 -14.5225 47 -20
c31 -9 50 -11 82 -11c39 0 46.2891 -0.0136719 83 11c20 6 42.0361 13.9375 61 25c24 14 37 22 59 38c15 11 21 20 35 32l146 -108c-21 -22 -32 -37 -55 -57c-26 -23 -41 -35 -71 -53c-27 -17 -44 -24 -74 -37c-27 -11 -42 -18 -70 -24c-30 -7 -48 -9 -79 -10
c-37 -2 -59 -2 -96 2c-31 3 -49 6 -79 15c-31 9 -47 15 -76 29c-32 16 -50 26 -78 47c-31 22 -47 37 -73 64c-21 21 -31 35 -47 59c-17 26 -24 41 -37 69c-12 25 -18 40 -26 67c-10 34 -14 55 -18 90c-4 36 -4 57 -2 94c2 30 6 46 13 75c6 24 10 38 19 61c11 28 18 44 32 70
c11 20 20 31 34 49c20 25 31 39 54 61c24 23 38 35 65 54c25 17 40 25 67 38c28 13 45 20 75 29c27 8 43 12 72 15c43 4 68 4 111 2c24 -1 38 -4 62 -9c33 -7 52 -10 83 -22c30 -12 46 -22 74 -38c18 -11 27 -19 45 -31c11 -7 17 -11 27 -19s15 -14 25 -23z" />
    <glyph glyph-name="I" unicode="I" horiz-adv-x="960" 
d="M605 175v-310l293 -1v311h-293zM601 235h297c10 -2 17 0 26 -4c8 -3 12 -8 18 -14s9 -9 12 -17s2 -13 3 -21v-316c-3 -10 -3 -16 -7 -26c-2 -6 -4 -10 -8 -14c-6 -6 -10 -10 -18 -13c-9 -4 -15 -3 -24 -5h-298c-9 2 -14 0 -22 4c-7 3 -10 7 -16 12
c-5 5 -8.17773 7.88477 -12 14c-5 8 -4 14 -8 23v322c3 8 1.5625 13.2344 6 21c4 7 6 11 11 16c7 7 11 10 19 14c8 3 13 2 21 4zM605 175v-310l293 -1v311h-293zM601 235h297c10 -2 17 0 26 -4c8 -3 12 -8 18 -14s9 -9 12 -17s2 -13 3 -21v-316c-3 -10 -3 -16 -7 -26
c-2 -6 -4 -10 -8 -14c-6 -6 -10 -10 -18 -13c-9 -4 -15 -3 -24 -5h-298c-9 2 -14 0 -22 4c-7 3 -10 7 -16 12c-5 5 -8.17773 7.88477 -12 14c-5 8 -4 14 -8 23v322c3 8 1.5625 13.2344 6 21c4 7 6 11 11 16c7 7 11 10 19 14c8 3 13 2 21 4zM61 176v-310l293 -1v311h-293z
M57 236h297c10 -2 17 0 26 -4c8 -3 12 -8 18 -14s9 -9 12 -17s2 -13 3 -21v-316c-3 -10 -3 -16 -7 -26c-2 -6 -4 -10 -8 -14c-6 -6 -10 -10 -18 -13c-9 -4 -15 -3 -24 -5h-298c-9 2 -14 0 -22 4c-7 3 -10 7 -16 12c-5 5 -8.17773 7.88477 -12 14c-5 8 -4 14 -8 23v322
c3 8 1.5625 13.2344 6 21c4 7 6 11 11 16c7 7 11 10 19 14c8 3 13 2 21 4zM61 176v-310l293 -1v311h-293zM57 236h297c10 -2 17 0 26 -4c8 -3 12 -8 18 -14s9 -9 12 -17s2 -13 3 -21v-316c-3 -10 -3 -16 -7 -26c-2 -6 -4 -10 -8 -14c-6 -6 -10 -10 -18 -13
c-9 -4 -15 -3 -24 -5h-298c-9 2 -14 0 -22 4c-7 3 -10 7 -16 12c-5 5 -8.17773 7.88477 -12 14c-5 8 -4 14 -8 23v322c3 8 1.5625 13.2344 6 21c4 7 6 11 11 16c7 7 11 10 19 14c8 3 13 2 21 4zM602 736v-310l293 -1v311h-293zM598 796h297c10 -2 17 0 26 -4
c8 -3 12 -8 18 -14s9 -9 12 -17s2 -13 3 -21v-316c-3 -10 -3 -16 -7 -26c-2 -6 -4 -10 -8 -14c-6 -6 -10 -10 -18 -13c-9 -4 -15 -3 -24 -5h-298c-9 2 -14 0 -22 4c-7 3 -10 7 -16 12c-5 5 -8.17773 7.88477 -12 14c-5 8 -4 14 -8 23v322c3 8 1.5625 13.2344 6 21
c4 7 6 11 11 16c7 7 11 10 19 14c8 3 13 2 21 4zM602 736v-310l293 -1v311h-293zM598 796h297c10 -2 17 0 26 -4c8 -3 12 -8 18 -14s9 -9 12 -17s2 -13 3 -21v-316c-3 -10 -3 -16 -7 -26c-2 -6 -4 -10 -8 -14c-6 -6 -10 -10 -18 -13c-9 -4 -15 -3 -24 -5h-298
c-9 2 -14 0 -22 4c-7 3 -10 7 -16 12c-5 5 -8.17773 7.88477 -12 14c-5 8 -4 14 -8 23v322c3 8 1.5625 13.2344 6 21c4 7 6 11 11 16c7 7 11 10 19 14c8 3 13 2 21 4zM61 735v-310l293 -1v311h-293zM57 795h297c10 -2 17 0 26 -4c8 -3 12 -8 18 -14s9 -9 12 -17s2 -13 3 -21
v-316c-3 -10 -3 -16 -7 -26c-2 -6 -4 -10 -8 -14c-6 -6 -10 -10 -18 -13c-9 -4 -15 -3 -24 -5h-298c-9 2 -14 0 -22 4c-7 3 -10 7 -16 12c-5 5 -8.17773 7.88477 -12 14c-5 8 -4 14 -8 23v322c3 8 1.5625 13.2344 6 21c4 7 6 11 11 16c7 7 11 10 19 14c8 3 13 2 21 4z
M61 735v-310l293 -1v311h-293zM57 795h297c10 -2 17 0 26 -4c8 -3 12 -8 18 -14s9 -9 12 -17s2 -13 3 -21v-316c-3 -10 -3 -16 -7 -26c-2 -6 -4 -10 -8 -14c-6 -6 -10 -10 -18 -13c-9 -4 -15 -3 -24 -5h-298c-9 2 -14 0 -22 4c-7 3 -10 7 -16 12
c-5 5 -8.17773 7.88477 -12 14c-5 8 -4 14 -8 23v322c3 8 1.5625 13.2344 6 21c4 7 6 11 11 16c7 7 11 10 19 14c8 3 13 2 21 4z" />
    <glyph glyph-name="J" unicode="J" horiz-adv-x="846" 
d="M517 -5v212h41c10 -1 16 -1 26 -3s15 -5 24 -9c8 -4 13 -6 19 -12c7 -6 11 -11 16 -19s6 -13 9 -22c3 -8 4 -12 5 -20c1 -11 2 -17 1 -28c-1 -9 -2 -15 -4 -24s-4 -14 -8 -23c-3 -7 -6 -10 -10 -16c-4 -5 -7 -7 -12 -12c-5 -4 -8 -7 -14 -10c-7 -4 -12 -6 -20 -9
c-5 -2 -7 -3 -12 -4c-7 -1 -12 -1 -19 -1h-42zM438 269v-337h124c16 1 24 0 40 3c15 3 24 6 37 11c11 5 16 8 27 15c9 6 14 9 22 16c6 6 9 10 14 17s8 11 12 18c5 9 8 14 12 24c4 9 5 15 7 24c2 11 2 18 3 29c1 14 3 22 2 36c-1 12 -3 19 -6 31s-4 18 -9 30s-9 18 -16 28
c-5 7 -9 10 -16 15c-9 7 -14 11 -24 17s-16 8 -27 12s-18.1242 5.36093 -30 8c-9 2 -5.06738 0.511719 -14 2c-6 1 -24 0 -30 1h-128zM369 190l1 71c-14 4 -22 7 -36 9c-22 3 -34 5 -56 4s-35 -2 -55 -8c-17 -5 -27 -10 -41 -22c-12 -10 -17 -18 -23 -32s-7 -24 -7 -39
c0 -16 2 -25 8 -39s13 -20 24 -30s18 -13 31 -20c11 -6 18 -9 30 -14c10 -5 17 -5 27 -11c8 -4 12 -7 18 -13s10 -9 12 -17c2 -7 3 -13 -1 -20c-4 -8 -9 -12 -17 -16c-10 -5 -18 -4 -29 -5c-10 -1 -15 -1 -25 0c-11 1 -17 2 -28 6c-10 3 -15 7 -24 12c-5 3 -7 4 -12 7
c-4 3 -7 5 -11 8v-75c10 -4 15 -8 25 -11c11 -4 18 -5 30 -7s20 -1 32 -1s19 0 31 1c11 1 18 2 29 4c10 2 15 4 24 8s14 6 22 12c6 4 9 8 14 13c4 4 6 6 9 11s5 9 7 15c3 7 4 12 5 19c1 9 0 13 0 22s0 15 -2 24c-2 8 -5 11 -9 18c-3 6 -6 9 -10 14c-6 6 -10 9 -16 14
c-8 6 -13 9 -22 14c-8 5 -13 8 -22 12c-11 5 -17 7 -28 12c-8 4 -12 6 -19 10c-7 5 -13 7 -18 14c-4 6 -5 10 -5 17s2 11 6 17s8 7 15 10c8 3 13 5 21 6c10 1 15 1 25 0c8 -1 13 -2 21 -4c7 -1 12 -2 19 -4c6 -2 10 -4 16 -7s9 -5 14 -9zM741 745h-79v-171h79v171zM597 745
h-79v-171h79v171zM458 745h-79v-171h79v171zM314 745h-79v-171h79v171zM174 659h-79v-171h79v171zM0 -200v499h34v76h-34v260l164 165h682v-291h-36v-168h36v-541h-846z" />
    <glyph glyph-name="K" unicode="K" 
d="M691 543h-287c-4 -1 -8 -1 -11 -3c-4 -3 -6 -4 -8 -9s-3 -9 -2 -14c1 -4 3 -7 6 -10c2 -3 4 -4 7 -6c2 -1 4 -1 7 -2h285c5 2 8 1 12 4c5 3 6 6 9 11c2 4 3 6 2 10c-1 5 -2 7 -5 11c-2 3 -4 4 -7 6s-5 1 -8 2zM687 654h-287c-4 -1 -8 -1 -11 -3c-4 -3 -6 -4 -8 -9
s-3 -9 -2 -14c1 -4 3 -7 6 -10c2 -3 4 -4 7 -6c2 -1 4 -1 7 -2h285c5 2 8 1 12 4c5 3 6 6 9 11c2 4 3 6 2 10c-1 5 -2 7 -5 11c-2 3 -4 4 -7 6s-5 1 -8 2zM423 355c-25 9 -41 11 -65 22c-19 9 -29 16 -44 29c-14 12 -20 21 -30 37c-14 23 -21 36 -29 61c-8 27 -10 44 -11 72
c-1 22 3 35 8 57c6 22 10 35 20 55c9 18 17 27 31 42c15 16 25 24 43 36c16 10 26 16 44 21c19 6 31 7 51 8c34 2 54 1 88 1c49 0 77 3 126 -1c21 -2 33 -5 52 -13c20 -8 31 -14 49 -27c14 -10 21 -17 32 -30c14 -17 21 -27 30 -47c10 -21 12 -34 18 -56c3 -14 5 -22 5 -36
c0 -22 1 -34 -3 -56c-3 -17 -7 -26 -13 -42c-7 -17 -11 -26 -21 -41c-9 -14 -15 -21 -26 -33c-8 -9 -14 -13 -24 -20c-10 -8 -15 -12 -27 -18c-10 -5 -17 -8 -28 -11c-15 -4 -23 -6 -38 -9s-24 -3 -39 -4c-10 -1 -15 0 -25 0h-25l-127 -120c-5 -3 -6 -6 -12 -7
c-4 -1 -8 1 -11 3c-4 3 -6 5 -9 10c-1 3 0 5 0 8v8zM471 -7c-27 -2 -48 -23 -48 -50c0 -26 24 -46 49 -44c26 2 46 24 46 50c0 25 -22 46 -47 44zM249 -152l-239 656c-4 14 -10 21 -10 36c-0 13 3 21 8 33c5 11 10 16 18 25c5 5 9 7 15 10c8 4 12 5 20 9l153 57
c-2 -13 -4 -21 -6 -34s-3 -21 -4 -34c-2 -14 -4 -23 -4 -37c0 -11 2 -17 4 -28l-136 -51l195 -530l360 132l-68 182l40 40l105 -288c2 -8 5 -12 6 -20s2 -13 1 -22s-1 -15 -5 -23s-8 -12 -14 -18c-6 -7 -11 -10 -18 -15c-4 -3 -7 -4 -11 -6l-311 -113c-6 -2 -10 -4 -16 -5
c-7 -1 -11 -3 -18 -2c-10 1 -16 2 -24 6c-10 4 -15 8 -23 15c-5 4 -7 8 -11 13c-3 4 -4 7 -7 12z" />
    <glyph glyph-name="L" unicode="L" 
d="M602 376l369 -369c5 -12 10 -18 14 -30s4 -20 5 -33c2 -21 3 -34 3 -55c0 -16 -1 -24 -5 -40c-2 -10 -4 -16 -11 -23c-8 -8 -15 -9 -26 -13s-17 -4 -28 -5c-14 -1 -23 -2 -37 -1c-15 1 -24 2 -39 4c-11 1 -16 1 -27 4c-9 2 -14 4 -21 8c-6 3 -7 7 -12 12
c-4 4 -6 7 -10 12l-86 6c-6 1 -9 1 -15 3c-5 2 -8 3 -12 7c-4 3 -5 7 -7 11s-2 7 -4 11l-6 87l-84 7c-5 1 -8 0 -13 2c-6 2 -8 4 -13 8c-2 2 -4 4 -5 6c-2 4 -4 7 -5 11c-1 2 0 4 0 6l-5 86l-88 6c-5 2 -7 3 -12 5c-4 2 -6 3 -9 6s-4 5 -7 9c-2 3 -3 5 -4 8c-1 2 -1 4 -1 6
l-3 51c10 3 15 4 25 8s15 7 25 12c9 4 13 7 22 12c8 5 12 7 20 12s12 9 19 14c6 5 9 8 15 13l321 -322c5 -4 7 -7 13 -10s10 -4 16 -4c7 0 12 0 18 3c5 2 7 4 10 9c3 4 4 7 5 11c1 5 0 9 0 14c0 4 0 6 -2 10s-4 5 -6 8s-3 4 -5 7l-326 326c3 5 4 7 7 12s5 8 8 13s4 7 6 12
l8 16c2 4 3 7 5 11zM200 701c-54 -1 -97 -44 -98 -98c-1 -53 43 -98 96 -97c54 1 95 46 96 100c1 52 -42 96 -94 95zM291 796c157 -2 284 -129 283 -286s-131 -283 -288 -281c-156 2 -281 131 -280 287s129 282 285 280z" />
    <glyph glyph-name="M" unicode="M" horiz-adv-x="810" 
d="M394.611 339.782c17.9463 0 33.4746 -6.62598 46.5889 -19.8789c13.1133 -13.2529 19.6709 -28.9473 19.6709 -47.084v-200.888c0 -18.1367 -6.55762 -33.8301 -19.6709 -47.084c-13.1143 -13.2529 -28.6426 -19.8789 -46.5889 -19.8789h-198.777
c-17.9463 0 -33.4756 6.62598 -46.5889 19.8789c-13.1143 13.2539 -19.6709 28.9473 -19.6709 47.084v200.888c0 18.1367 6.55664 33.8311 19.6709 47.084c13.1133 13.2529 28.6426 19.8789 46.5889 19.8789h198.777zM649.296 338.736
c6.90234 -2.79004 10.3535 -8.02246 10.3535 -15.6953v-301.331c0 -7.67285 -3.45117 -12.9053 -10.3535 -15.6953c-2.75977 -0.697266 -4.83105 -1.0459 -6.21094 -1.0459c-4.83301 0 -8.80078 1.56934 -11.9072 4.70898l-137.178 139.156v47.083l137.178 139.157
c3.10645 3.13867 7.07422 4.70801 11.9072 4.70801c1.37988 0 3.45117 -0.348633 6.21094 -1.0459zM769.261 584.155c9.79785 -10.3584 18.1953 -24.418 25.1924 -42.1768c6.99609 -17.7568 10.4971 -34.0361 10.4971 -48.8359v-639.294
c0 -14.7988 -4.90039 -27.3779 -14.6963 -37.7373c-9.79688 -10.3594 -21.6934 -15.5381 -35.6875 -15.5381h-705.361c-13.9951 0 -25.8906 5.17871 -35.6875 15.5381s-14.6943 22.9385 -14.6943 37.7373v887.911c0 14.7979 4.89746 27.376 14.6943 37.7344
c9.79688 10.3604 21.6924 15.5391 35.6875 15.5391h470.241c13.9951 0 29.3896 -3.69922 46.1836 -11.0986c16.7949 -7.40039 30.0898 -16.2783 39.8867 -26.6377zM536.24 719.562v-208.658h197.333c-3.49902 10.7285 -7.34668 18.3105 -11.5449 22.752l-164.271 173.697
c-4.19824 4.44043 -11.3701 8.50977 -21.5176 12.209zM737.771 -128.394v568.263h-218.325c-13.9951 0 -25.8916 5.18066 -35.6885 15.5391c-9.7959 10.3584 -14.6963 22.9385 -14.6963 37.7344v230.857h-403.062v-852.394h671.771z" />
    <glyph glyph-name="N" unicode="N" horiz-adv-x="810" 
d="M676.72 175.624v-173.376h-559.104v104.026l104.831 104.025l69.8887 -69.3516l209.664 208.052zM218 306.948c-29.1201 0 -53.8711 10.1133 -74.2549 30.3418c-20.3848 20.2266 -30.5762 44.7881 -30.5762 73.6836c0 28.8965 10.1914 53.458 30.5762 73.6846
c20.3838 20.2285 45.1348 30.3418 74.2549 30.3418s53.8721 -10.1133 74.2568 -30.3418c20.3838 -20.2266 30.5762 -44.7881 30.5762 -73.6846c0 -28.8955 -10.1924 -53.457 -30.5762 -73.6836c-20.3848 -20.2285 -45.1367 -30.3418 -74.2568 -30.3418zM769.261 584.155
c9.79785 -10.3584 18.1953 -24.418 25.1924 -42.1768c6.99609 -17.7568 10.4971 -34.0361 10.4971 -48.8359v-639.294c0 -14.7988 -4.90039 -27.3779 -14.6963 -37.7373c-9.79688 -10.3594 -21.6934 -15.5381 -35.6875 -15.5381h-705.361
c-13.9951 0 -25.8906 5.17871 -35.6875 15.5381s-14.6943 22.9385 -14.6943 37.7373v887.911c0 14.7979 4.89746 27.376 14.6943 37.7344c9.79688 10.3604 21.6924 15.5391 35.6875 15.5391h470.241c13.9951 0 29.3896 -3.69922 46.1836 -11.0986
c16.7949 -7.40039 30.0898 -16.2783 39.8867 -26.6377zM536.24 719.562v-208.658h197.333c-3.49902 10.7285 -7.34668 18.3105 -11.5449 22.752l-164.271 173.697c-4.19824 4.44043 -11.3701 8.50977 -21.5176 12.209zM737.771 -128.394v568.263h-218.325
c-13.9951 0 -25.8916 5.18066 -35.6885 15.5391c-9.7959 10.3584 -14.6963 22.9385 -14.6963 37.7344v230.857h-403.062v-852.394h671.771z" />
    <glyph glyph-name="O" unicode="O" horiz-adv-x="810" 
d="M488 78v72h-77v68h160v-185c-15 -7 -22 -12 -38 -17c-19 -6 -30 -9 -49 -12s-30 -4 -50 -4c-19 0 -29 0 -48 5c-24 6 -37 10 -59 21c-17 9 -26 16 -39 30c-16 17 -23 28 -33 50c-8 17 -10 28 -13 46c-3 14 -2 22 -2 36s2 22 4 36c2 13 3 21 7 34c3 10 6 15 10 24
c5 10 8 16 15 25c8 10 12 16 22 25c8 8 13 12 22 18c12 8 19 12 32 18c14 6 22 9 36 12c15 4 24 4 39 6c10 1 16 1 26 1c14 0 23 -1 37 -3s22 -3 36 -6c11 -2 17 -5 28 -8v-79c-9 4 -13 8 -22 11c-16 6 -26 10 -42 13c-15 3 -23 2 -38 2c-14 0 -22 0 -36 -3s-22 -7 -34 -14
c-13 -8 -20 -14 -29 -26c-8 -10 -10 -17 -15 -28c-3 -7 -5 -12 -6 -20c-2 -14 -3 -22 -3 -36c0 -17 1 -26 5 -43c3 -13 6 -20 13 -31c8 -12 14 -17 25 -27c6 -5 11 -7 18 -10s11 -5 18 -6c12 -2 19 -3 31 -3c9 0 15 1 24 2c10 2 15 4 25 6zM769.261 584.155
c9.79785 -10.3584 18.1953 -24.418 25.1924 -42.1768c6.99609 -17.7568 10.4971 -34.0361 10.4971 -48.8359v-639.294c0 -14.7988 -4.90039 -27.3779 -14.6963 -37.7373c-9.79688 -10.3594 -21.6934 -15.5381 -35.6875 -15.5381h-705.361
c-13.9951 0 -25.8906 5.17871 -35.6875 15.5381s-14.6943 22.9385 -14.6943 37.7373v887.911c0 14.7979 4.89746 27.376 14.6943 37.7344c9.79688 10.3604 21.6924 15.5391 35.6875 15.5391h470.241c13.9951 0 29.3896 -3.69922 46.1836 -11.0986
c16.7949 -7.40039 30.0898 -16.2783 39.8867 -26.6377zM536.24 719.562v-208.658h197.333c-3.49902 10.7285 -7.34668 18.3105 -11.5449 22.752l-164.271 173.697c-4.19824 4.44043 -11.3701 8.50977 -21.5176 12.209zM737.771 -128.394v568.263h-218.325
c-13.9951 0 -25.8916 5.18066 -35.6885 15.5391c-9.7959 10.3584 -14.6963 22.9385 -14.6963 37.7344v230.857h-403.062v-852.394h671.771z" />
    <glyph glyph-name="P" unicode="P" horiz-adv-x="810" 
d="M281 192v-31c-12 1 -18 0 -30 2c-18 2 -29 4 -47 8c-12 2 -18 4 -30 8c-8 3 -12 4 -20 8c-7 3 -10 5 -17 10c-4 3 -5 5 -8 8c-4 4 -6 7 -8 12c-2 4 -2 7 -1 12c0 3 1 4 3 7c1 2 2 3 4 5l168 274c2 3 2 4 4 7s4 4 7 6c2 1 4 1 6 1c3 0 5 -1 8 -2c2 -1 3 -3 5 -5s2 -4 3 -6
l2 -4l74 -120l-63 -30l-29 120l-159 -257c4 -3 5 -5 9 -7c6 -3 9 -3 15 -6l10 -5c3 -1 5 -1 9 -2s7 -2 11 -3s6 -1 10 -2s6 -1 10 -2c5 -1 7 -1 12 -2c6 -1 10 -1 16 -2c5 -1 7 -2 12 -2h14zM510 212v-172l143 72v170zM355 308l139 -69l138 69l-139 69zM333 283v-171
l144 -72v171zM301 114v183c1 4 1 7 2 11c1 3 2 4 4 7s4 4 7 7c4 3 6 4 10 6c3 2 5 3 9 5l145 72c4 1 5 2 9 3c3 1 4 1 7 1c4 0 5 -1 9 -2c2 -1 4 -1 6 -2l160 -80c4 -2 6 -3 9 -6c2 -2 2 -4 4 -7c1 -3 2 -5 3 -8c1 -2 1 -4 1 -6v-185c-1 -5 -1 -7 -3 -12c-1 -3 -2 -5 -4 -8
l-5 -5c-1 -1 -2 -2 -4 -3l-161 -80c-2 -1 -3 -2 -5 -3c-5 -1 -7 -2 -12 -2c-4 0 -5 1 -9 2c-2 1 -3 1 -5 2l-157 79c-3 2 -5 3 -8 5s-4 4 -6 6c-3 4 -4 7 -5 11c-1 3 -1 5 -1 9zM769.261 584.155c9.79785 -10.3584 18.1953 -24.418 25.1924 -42.1768
c6.99609 -17.7568 10.4971 -34.0361 10.4971 -48.8359v-639.294c0 -14.7988 -4.90039 -27.3779 -14.6963 -37.7373c-9.79688 -10.3594 -21.6934 -15.5381 -35.6875 -15.5381h-705.361c-13.9951 0 -25.8906 5.17871 -35.6875 15.5381s-14.6943 22.9385 -14.6943 37.7373
v887.911c0 14.7979 4.89746 27.376 14.6943 37.7344c9.79688 10.3604 21.6924 15.5391 35.6875 15.5391h470.241c13.9951 0 29.3896 -3.69922 46.1836 -11.0986c16.7949 -7.40039 30.0898 -16.2783 39.8867 -26.6377zM536.24 719.562v-208.658h197.333
c-3.49902 10.7285 -7.34668 18.3105 -11.5449 22.752l-164.271 173.697c-4.19824 4.44043 -11.3701 8.50977 -21.5176 12.209zM737.771 -128.394v568.263h-218.325c-13.9951 0 -25.8916 5.18066 -35.6885 15.5391c-9.7959 10.3584 -14.6963 22.9385 -14.6963 37.7344
v230.857h-403.062v-852.394h671.771z" />
    <glyph glyph-name="Q" unicode="Q" horiz-adv-x="810" 
d="M769.261 584.155c9.79785 -10.3584 18.1953 -24.418 25.1924 -42.1768c6.99609 -17.7568 10.4971 -34.0361 10.4971 -48.8359v-639.294c0 -14.7988 -4.90039 -27.3779 -14.6963 -37.7373c-9.79688 -10.3594 -21.6934 -15.5381 -35.6875 -15.5381h-705.361
c-13.9951 0 -25.8906 5.17871 -35.6875 15.5381s-14.6943 22.9385 -14.6943 37.7373v887.911c0 14.7979 4.89746 27.376 14.6943 37.7344c9.79688 10.3604 21.6924 15.5391 35.6875 15.5391h470.241c13.9951 0 29.3896 -3.69922 46.1836 -11.0986
c16.7949 -7.40039 30.0898 -16.2783 39.8867 -26.6377zM536.24 719.562v-208.658h197.333c-3.49902 10.7285 -7.34668 18.3105 -11.5449 22.752l-164.271 173.697c-4.19824 4.44043 -11.3701 8.50977 -21.5176 12.209zM737.771 -128.394v568.263h-218.325
c-13.9951 0 -25.8916 5.18066 -35.6885 15.5391c-9.7959 10.3584 -14.6963 22.9385 -14.6963 37.7344v230.857h-403.062v-852.394h671.771z" />
    <glyph glyph-name="T" unicode="T" horiz-adv-x="810" 
d="M769.261 584.155c9.79785 -10.3584 18.1953 -24.418 25.1924 -42.1768c6.99609 -17.7568 10.4971 -34.0361 10.4971 -48.8359v-639.294c0 -14.7988 -4.90039 -27.3779 -14.6963 -37.7373c-9.79688 -10.3594 -21.6934 -15.5381 -35.6875 -15.5381h-705.361
c-13.9951 0 -25.8906 5.17871 -35.6875 15.5381s-14.6943 22.9385 -14.6943 37.7373v887.911c0 14.7979 4.89746 27.376 14.6943 37.7344c9.79688 10.3604 21.6924 15.5391 35.6875 15.5391h470.241c13.9951 0 29.3896 -3.69922 46.1836 -11.0986
c16.7949 -7.40039 30.0898 -16.2783 39.8867 -26.6377zM536.24 719.562v-208.658h197.333c-3.49902 10.7285 -7.34668 18.3105 -11.5449 22.752l-164.271 173.697c-4.19824 4.44043 -11.3701 8.50977 -21.5176 12.209zM737.771 -128.394v568.263h-218.325
c-13.9951 0 -25.8916 5.18066 -35.6885 15.5391c-9.7959 10.3584 -14.6963 22.9385 -14.6963 37.7344v230.857h-403.062v-852.394h671.771z" />
    <glyph glyph-name="U" unicode="U" horiz-adv-x="1782" 
d="M601 22v-100h977v100h-977zM601 367v-134h977v134h-977zM601 677v-100l977 1v98zM467 755c0 11 0 17 5 27c4 8 14 16.9471 24 17c455.865 2.41211 709.142 0.759766 1160 0c41.0488 -0.0693359 60 -13 88 -44c22 -24 33.0847 -54.9854 33 -88
c-0.733398 -286 0.845703 -446.888 0 -733c-0.0947266 -32.0156 -7 -62 -31 -85c-34 -32 -59.9561 -49 -106 -49h-1143c-10 0 -20.3955 5.79102 -25 15c-5 10 -4.96901 19 -5 30c-1 355 -2 555 0 910zM334 644c0 18 20 32 39 32s38 -12 38 -32v-700c0 -21 -20 -32 -39 -32
s-38 10 -38 31v701zM0 366h223l-1 22h56v-176h-66v21h-212v133z" />
    <glyph glyph-name="V" unicode="V" horiz-adv-x="1782" 
d="M334 644c0 18 20 32 39 32s38 -12 38 -32v-700c0 -21 -20 -32 -39 -32s-38 10 -38 31v701zM0 366h223l-1 22h56v-176h-66v21h-212v133zM1363 800h179l-824 -1000h-178zM1620 799c16.2069 -0.45911 27.1429 0.244234 40 0c36.049 -0.684787 58 -16 82 -43
c25 -29 35 -52.9488 35 -92v-712c0 -48.0937 -8 -84 -45 -116c-28.3913 -24.5547 -51.987 -35.8838 -90 -36c-327 -1 -516 1 -846 1l100 121h682v100h-599l173 211h426v134h-314l174 211h140v98h-60zM475 -186c-3 4 -4.19141 5.95703 -5 10c-2 10 -1.97949 16 -2 26
c-0.736328 354.549 -2.83037 551.991 -1 909c0.0615234 12 2.05608 20.7321 10 30c6 7 11 9.97394 19 10c307 1 479 0 786 1l-100 -123h-580v-100l499 1l-174 -211h-327v-134h217l-174 -211h-43v-22v-33z" />
    <glyph glyph-name="W" unicode="W" horiz-adv-x="888" 
d="M718 348c-58 1 -104 -46 -104 -104s46 -105 104 -106c57 -1 104 46 104 104s-46 105 -104 106zM363 -200l-186 274h-177v354h178v372h370v-372h338v-354h-336z" />
    <glyph glyph-name="X" unicode="X" horiz-adv-x="600" 
d="M518 651h82v-71h-82v71zM518 478h82v-70h-82v70zM176 92c0 81 36.9941 124 118 124c87 0 116 -45 116 -126s-36 -116 -117 -115s-117 36 -117 117zM271 172l-1 360h46v-360h-45zM201 294c-93 -50 -125 -114 -125 -203c0 -114.337 103 -218 218 -218
c114 0 216 104.663 216 219c0 90 -39 154 -124 202l-1 353c0 39 -50 79 -92 79s-92 -40 -92 -80v-352zM124 332v317c0 84 81 151 170 151s166 -75 167 -152l-1 -316c80 -64 128 -139 127 -239c-1.62857 -162.857 -130 -293 -293 -293c-161 0 -294 131.944 -294 292
c0 106 36 168 124 240z" />
    <glyph glyph-name="Y" unicode="Y" horiz-adv-x="1976" 
d="M984.69 635.92c-6.62012 28.124 8.5791 44.0996 27.1699 69.5801c17.1592 22.54 35.75 32.3398 61.4893 50.96c18.5908 13.7197 27.1699 15.6797 54.3408 30.3799c13.5605 7.33789 37.1797 8.82031 45.7598 -0.979492
c11.4395 -11.7607 3.51172 -26.6943 -12.8701 -35.2803c-24.3105 -12.7402 -38.6104 -19.5996 -60.0605 -34.2998c-18.5898 -13.7207 -30.0293 -21.5605 -41.4697 -38.2207c-10.0098 -13.7197 -14.2998 -23.5195 -10.0098 -39.1992
c7.15039 -21.5605 20.0195 -32.3408 37.1797 -50.96c21.4502 -24.5 40.04 -34.3008 61.4902 -58.8008c24.3096 -27.4395 44.5576 -42.3008 54.3398 -74.4795c7.15039 -23.5205 0 -36.2598 -8.58008 -58.7998c-7.14941 -16.6602 -20.1367 -27.3975 -31.46 -42.1406
c-14.2998 -18.6201 -25.7402 -28.4199 -44.3301 -45.0801c-12.8701 -11.7598 -18.5898 -15.6797 -37.1797 -27.4395c-13.166 -8.3291 -31.46 -11.7598 -45.7598 -4.90039c-14.2998 7.83984 -13.2021 20.8896 -4.29004 31.3604
c10.0098 11.7598 14.2998 15.6797 25.7402 25.4795c18.5898 16.6602 34.3193 23.5205 51.4795 42.1406c15.7305 16.6602 25.7402 26.46 30.0303 46.0596c4.29004 19.6006 0 32.3398 -10.0098 50.96c-10.0107 18.6201 -22.8809 26.46 -40.04 43.1201
c-20.0205 19.6006 -34.4688 29.3291 -54.3408 49c-12.8691 12.7402 -20.0195 15.6797 -30.0293 30.3799c-10.0107 13.7207 -11.4404 10.7803 -18.5898 41.1602zM1279.67 629.06c-6.61914 28.125 8.58008 44.1006 27.1699 69.5801c17.1602 22.54 35.75 32.3408 61.4902 50.96
c18.5898 13.7207 27.1699 15.6807 54.3398 30.3809c13.5615 7.33691 37.1797 8.81934 45.7598 -0.980469c11.4404 -11.7598 3.5127 -26.6943 -12.8701 -35.2803c-24.3096 -12.7393 -38.6094 -19.5996 -60.0596 -34.2998
c-18.5898 -13.7197 -30.0303 -21.5596 -41.4697 -38.2197c-10.0107 -13.7197 -14.2998 -23.5205 -10.0107 -39.2002c7.15039 -21.5596 20.0205 -32.3398 37.1807 -50.96c21.4502 -24.5 40.04 -34.2998 61.4902 -58.7998c24.3096 -27.4404 44.5576 -42.3008 54.3398 -74.4805
c7.14941 -23.5195 0 -36.2598 -8.58008 -58.7998c-7.15039 -16.6602 -20.1377 -27.3965 -31.46 -42.1396c-14.2998 -18.6201 -25.7402 -28.4199 -44.3301 -45.0801c-12.8701 -11.7598 -18.5898 -15.6807 -37.1797 -27.4404
c-13.167 -8.3291 -31.4609 -11.7598 -45.7607 -4.89941c-14.2998 7.83984 -13.2021 20.8887 -4.29004 31.3594c10.0107 11.7598 14.3008 15.6807 25.7402 25.4805c18.5898 16.6602 34.3203 23.5195 51.4805 42.1396c15.7295 16.6602 25.7393 26.46 30.0293 46.0605
c4.29004 19.5996 0 32.3398 -10.0098 50.96c-10.0098 18.6191 -22.8799 26.46 -40.04 43.1191c-20.0195 19.6006 -34.4678 29.3301 -54.3398 49c-12.8701 12.7402 -20.0205 15.6807 -30.0303 30.3809c-10.0098 13.7197 -11.4395 10.7793 -18.5898 41.1592zM688.3 634.94
c-6.61914 28.124 8.58008 44.0996 27.1699 69.5791c17.1602 22.54 35.75 32.3408 61.4902 50.9609c18.5898 13.7197 27.1699 15.6797 54.3398 30.3799c13.5615 7.33691 37.1807 8.81934 45.7598 -0.980469c11.4404 -11.7598 3.5127 -26.6943 -12.8691 -35.2803
c-24.3105 -12.7393 -38.6104 -19.5996 -60.0605 -34.2998c-18.5898 -13.7197 -30.0303 -21.5596 -41.4697 -38.2197c-10.0098 -13.7197 -14.2998 -23.5205 -10.0098 -39.2002c7.14941 -21.5596 20.0195 -32.3398 37.1797 -50.96
c21.4502 -24.5 40.04 -34.2998 61.4902 -58.7998c24.3096 -27.4404 44.5576 -42.3008 54.3398 -74.4805c7.14941 -23.5195 0 -36.2598 -8.58008 -58.7998c-7.15039 -16.6602 -20.1377 -27.3965 -31.46 -42.1396c-14.2998 -18.6201 -25.7402 -28.4199 -44.3301 -45.0801
c-12.8701 -11.7598 -18.5898 -15.6797 -37.1797 -27.4404c-13.166 -8.3291 -31.46 -11.7598 -45.7607 -4.89941c-14.2998 7.83984 -13.2021 20.8887 -4.29004 31.3594c10.0107 11.7607 14.3008 15.6807 25.7402 25.4805c18.5898 16.6602 34.3203 23.5195 51.4805 42.1396
c15.7295 16.6602 25.7393 26.46 30.0293 46.0605c4.29004 19.5996 0 32.3398 -10.0098 50.96c-10.0098 18.6201 -22.8799 26.46 -40.04 43.1201c-20.0195 19.5996 -34.4678 29.3291 -54.3398 49c-12.8701 12.7393 -20.0195 15.6797 -30.0303 30.3799
c-10.0098 13.7197 -11.4395 10.7793 -18.5898 41.1602zM0 -200l684 345h1290l-682 -346z" />
    <glyph glyph-name="a" unicode="a" horiz-adv-x="940" 
d="M0 -39h368v490l-348 349h920l-345 -346v-654h-595v161z" />
    <glyph glyph-name="b" unicode="b" horiz-adv-x="941" 
d="M697 485v-685h-62v622zM818 606v-806h-61l1 745zM878 666l62 62v-928h-62v866zM0 -39h368v490l-348 349h920l-345 -346v-654h-595v161z" />
    <glyph glyph-name="c" unicode="c" horiz-adv-x="940" 
d="M267 483l61 -62v-421h-61v483zM145 604l62 -61v-543h-62v604zM24 726l61 -61v-665h-62zM697 485v-685h-62v622zM818 606v-806h-61l1 745zM878 666l62 62v-928h-62v866zM0 -39h368v490l-348 349h920l-345 -346v-654h-595v161z" />
    <glyph glyph-name="d" unicode="d" horiz-adv-x="2168" 
d="M277 525h447v-448h-447v448zM242 558v-516h517v516h-517zM185 615h631v-632h-631v632zM152 651v-701h699v701h-699zM93 706h813v-814h-813v814zM58 740v-883h886v883h-886zM0 800h1001v-1000h-1001v1000zM1442 524h450v-667h276v-57h-1001v57h275v667z" />
    <glyph glyph-name="e" unicode="e" horiz-adv-x="2168" 
d="M1446 526h450v-632h-450v632zM277 522h448v-447h-448v447zM753 329l247 1v-55l-247 -1v55zM753 516l247 1v-55l-247 -1v55zM753 235l247 1v-55l-247 -1v55zM753 141l247 1v-55l-247 -1v55zM753 423l247 1v-55l-247 -1v55zM753 516l247 1v-55l-247 -1v55zM0 328l247 1v-55
l-247 -1v55zM0 515l247 1v-55l-247 -1v55zM0 234l247 1v-55l-247 -1v55zM0 140l247 1v-55l-247 -1v55zM0 422l247 1v-55l-247 -1v55zM0 515l247 1v-55l-247 -1v55zM1168 -144h1000v-56h-1000v56zM0 -144h1000v-56h-1000v56zM0 -48h1000v-55h-1000v55zM0 47h1000v-55h-1000
v55zM0 608h1000v-55h-1000v55zM0 704h1000v-55h-1000v55zM0 800h1000v-57h-1000v57z" />
    <glyph glyph-name="f" unicode="f" horiz-adv-x="2168" 
d="M1446 526h450v-726h-450v726zM277 522h448v-447h-448v447z" />
    <glyph glyph-name="g" unicode="g" horiz-adv-x="2168" 
d="M1245 -199h-61v60h61v-60zM2168 -199h-61v60h61v-60zM277 525h447v-448h-447v448zM759 558zM58 740v-883h886v883h-886zM0 800h1001v-998l-1001 2v996zM1446 526h450v-726h-450v726z" />
    <glyph glyph-name="h" unicode="h" 
d="M440 300c0 -33 27 -60 60 -60s60 27 60 60s-27 60 -60 60s-60 -27 -60 -60zM400 300c0 55 45 100 100 100s100 -45 100 -100s-45 -100 -100 -100s-100 45 -100 100zM340 300c0 -88 72 -160 160 -160s160 72 160 160s-72 160 -160 160s-160 -72 -160 -160zM300 300
c0 110 90 200 200 200s200 -90 200 -200s-90 -200 -200 -200s-200 90 -200 200zM240 300c0 -144 116 -260 260 -260s260 116 260 260s-116 260 -260 260s-260 -116 -260 -260zM200 300c0 166 134 300 300 300s300 -134 300 -300s-134 -300 -300 -300s-300 134 -300 300z
M140 300c0 -199 161 -360 360 -360s360 161 360 360s-161 360 -360 360s-360 -161 -360 -360zM100 300c0 221 179 400 400 400s400 -179 400 -400s-179 -400 -400 -400s-400 179 -400 400zM40 300c0 -254 206 -460 460 -460s460 206 460 460s-206 460 -460 460
s-460 -206 -460 -460zM0 300c0 276 224 500 500 500s500 -224 500 -500s-224 -500 -500 -500s-500 224 -500 500z" />
    <glyph glyph-name="i" unicode="i" 
d="M0 -11h1000v-54h-1000v54zM0 124h1000v-54h-1000v54zM0 259h1000v-54h-1000v54zM0 394h1000v-54h-1000v54zM0 -146h1000v-54h-1000v54zM0 530h1000v-54h-1000v54zM0 665h1000v-54h-1000v54zM0 800h1000v-54h-1000v54z" />
    <glyph glyph-name="j" unicode="j" 
d="M811 -200v1000h54v-1000h-54zM676 -200v1000h54v-1000h-54zM541 -200v1000h54v-1000h-54zM406 -200v1000h54v-1000h-54zM946 -200v1000h54v-1000h-54zM270 -200v1000h54v-1000h-54zM135 -200v1000h54v-1000h-54zM0 -200v1000h54v-1000h-54zM0 -11h1000v-54h-1000v54z
M0 124h1000v-54h-1000v54zM0 259h1000v-54h-1000v54zM0 394h1000v-54h-1000v54zM0 -146h1000v-54h-1000v54zM0 530h1000v-54h-1000v54zM0 665h1000v-54h-1000v54zM0 800h1000v-54h-1000v54z" />
    <glyph glyph-name="k" unicode="k" 
d="M54 614v-99h-54v99h54zM54 343v-88h-54v88h54zM54 71v-86h-54v86h54zM946 -64h54v-93h-54v93zM946 207h54v-93h-54v93zM946 478h54v-88h-54v88zM946 747h54v-86h-54v86zM0 -11h1000v-54h-1000v54zM0 124h1000v-54h-1000v54zM0 259h1000v-54h-1000v54zM0 394h1000v-54
h-1000v54zM0 -146h1000v-54h-1000v54zM0 530h1000v-54h-1000v54zM0 665h1000v-54h-1000v54zM0 800h1000v-54h-1000v54z" />
    <glyph glyph-name="l" unicode="l" 
d="M946 -200v1000h54v-1000h-54zM810 -200v1000h54v-1000h-54zM675 -200v1000h54v-1000h-54zM540 -200v1000h54v-1000h-54zM0 -11h1000v-54h-1000v54zM0 124h1000v-54h-1000v54zM0 259h1000v-54h-1000v54zM0 394h1000v-54h-1000v54zM0 -146h1000v-54h-1000v54zM0 530h1000
v-54h-1000v54zM0 665h1000v-54h-1000v54zM0 800h1000v-54h-1000v54z" />
    <glyph glyph-name="m" unicode="m" horiz-adv-x="1976" 
d="M0 -200l684 345h1290l-682 -346z" />
    <glyph glyph-name="n" unicode="n" horiz-adv-x="983" 
d="M328 800h22c-18 -15 -29 -22 -45 -39c-14 -15 -20 -24 -31 -41c-8 -13 -12 -20 -16 -35c-5 -17 -6 -27 -7 -44c-0.176166 -2.99482 2 -7 -1 -8c-5 -3 -10 -3 -15 0c-3 1 0 5 0 8c2 18 2 27 6 45c3 12 7 18 12 29c6 11 9 17 17 28c7 10 11 16 20 24c14 14 23 20 38 33z
M177 -67h648v-21h-648v21zM176 641h648v-21h-648v21zM723 623h30v-705h-30v705zM641 623h30v-705h-30v705zM558 623h30v-705h-30v705zM477 624h30v-705h-30v705zM394 623h30v-705h-30v705zM312 623h30v-705h-30v705zM230 625h30v-705h-30v705zM117 764h61v-964h-61v964z
M804 764h61v-964h-61v964zM865 348h118v-143h-118v143zM0 348h118v-143h-118v143z" />
    <glyph glyph-name="o" unicode="o" 
d="M213 740c58 29 105.922 57.0015 157 56c51 -1 87.0951 -22.9299 115 -68c20.995 -33.9097 21.2559 -65.5811 6 -99c-21 -46 -27.5936 -70.046 -33 -116c-4 -34 -1 -55 12 -87c6 -14 18 -24 32 -21c15 3 18 18 23 33c10 27 4 45 14 72c15 39 25 61 50 94
c22 30 36 45 68 66c37.7705 24.7869 67 30 112 28c41 -1 65 -12 99 -35c40 -27 61.0888 -48.9494 85 -91c29 -51 39.8653 -82.0071 43 -140c2 -37 -5 -64 -31 -90c-29 -29 -55.2231 -46.2188 -95 -42c-66 7 -99 35 -165 43c-31 4 -51 1 -79 -14c-14 -7 -22 -21 -17 -36
c4 -15 20 -14 34 -19c41 -14 67 -13 106 -31c36 -16 58.009 -26.2862 85 -55c47 -50 65 -90 66 -155c1 -58 -28 -88 -61 -136c-20 -29 -40 -39 -72 -54c-50 -23 -80 -39 -134 -42c-34.0063 -1.88924 -56 10 -82 32c-27 22 -41 41 -48 75c-7 36 7 57 16 92c7 26 21 36 25 63
c5 33 5 53 -3 85c-4 19 -9 34 -27 41c-14 5 -26 -6 -33 -19c-15 -30 -5 -53 -18 -84c-15 -36 -29 -54 -53 -86c-23 -31 -33 -53 -66 -74s-56 -28 -95 -29c-37 -1 -60 6 -91 24c-40 23 -58 44 -89 79c-22 25 -31.849 42.0618 -45 74c-14 34 -19 56 -20 93
c-1.0592 39.1903 10 64 39 91s54 36 94 38c36 2 52 -20 87 -29c31 -8 50 -14 82 -14c27 0 43 2 67 13c14 6 25 15 24 30s-16 19 -29 24c-30 11 -50 4 -80 15c-39 15 -60 27 -94 51c-27 19 -43 32 -60 59c-19 29 -27 49 -31 84c-4 36 1 58 12 93c9 28 20 43 39 66
c20 24 32 38 59 52z" />
    <glyph glyph-name="p" unicode="p" horiz-adv-x="1430" 
d="M979 293l1 -9l-60 7zM469 0l-26 -21l-345 6zM637 176l-28 -35l-487 7zM766 298l-30 -23l-382 10zM805 341l-17 -20l-580 7zM772 646l-14 -15l-258 5zM968 534v-24l-546 4zM829 713l-26 -26l-803 5zM1104 513l-244 -239l173 -178c14 -17 20 -33 14 -54
c-6 -20 -18 -28 -40 -34l-281 -58c-35 -7 -62 5 -74 34c-11 27 8 58 34 65l202 41l-102 108l-368 -368c-24 -22 -61 -31 -86 -8c-23 20 -13 52 8 78l614 612l-90 98l-136 -130c-21 -21 -57 -26 -78 -4s-16 52 6 78l158 159c18 15 29 24 51 25c16 1 27 -11 35 -20zM987 394
l75 4l-4 -15zM1072 417v-99h190c34 0 61 -22 62 -54c1 -31 -24 -53 -59 -54h-293v89v25zM1052 747l155 12l-1 -15zM1024 776l226 10l-12 -14zM1270 792c83 5 157 -65 154 -148c-3 -94 -72 -168 -166 -174c-85 -5 -159 68 -156 154c3 93 76 162 168 168z" />
    <glyph glyph-name="q" unicode="q" horiz-adv-x="1015" 
d="M20 -71c-5 0 -10 1 -14 5s-6 8 -6 14v110c0 6 1 8 5 12s7 5 12 5l780 -1v110c0 7 4 15 11 18s14 1 20 -4l181 -181c4 -4 6 -8 6 -13c0 -6 -2 -10 -6 -14l-181 -181c-7 -6 -13 -6 -20 -3s-11 9 -11 16v107h-777zM870 782c0 5 1.2265 8.83975 4 13c2 3 5 5 9 5h113
c5 0 10 -1 14 -4s5 -7 5 -12v-475c0 -5 -1 -7 -4 -11s-8 -5 -12 -5h-113c-6 0 -8 1 -12 5c-3 4 -4 7 -4 12v472zM580 673c0 5 1 9 4 13s6 5 11 5h111c6 0 10 0 15 -4c4 -4 4 -8 4 -13v-363c0 -5 -1 -10 -5 -14c-3 -4 -7 -5 -12 -5h-110c-6 0 -10 1 -14 5s-4 8 -4 13v363z
M290 564c0 6 1 9 4 13s7 5 11 5h112c5 0 9 -2 13 -5s6 -9 6 -13v-254c0 -5 -1 -10 -5 -14c-3 -3 -6 -4 -11 -4h-112c-5 0 -9 1 -13 5c-4 3 -5 6 -5 12v255zM0 454c0 6 1 9 5 14c3 3 7 4 12 4h109c6 0 10 0 15 -4c4 -3 5 -6 5 -10v-149c0 -6 -1 -9 -5 -13c-3 -3 -6 -4 -10 -4
h-113c-5 0 -8 1 -12 4s-6 6 -6 11v147z" />
    <glyph glyph-name="r" unicode="r" horiz-adv-x="1402" 
d="M681.42 609.29l-81.3457 -76.5605l132.386 -132.385l-130.79 -130.79l74.167 -75.7627l131.588 133.98l129.195 -131.588l75.7617 74.9658l-128.397 131.587l129.195 130.79l-75.7627 70.1797l-124.41 -126.005zM398.308 0c-49.4453 0 -87.9854 27.8916 -129.993 66.1924
c-27.1152 24.7227 -41.4697 40.6729 -67.7871 66.9902l-133.183 133.979c-39.0771 45.458 -67.7871 74.9648 -67.7871 133.183c0 57.4199 27.9121 82.1426 68.585 130.79l132.385 132.385c25.5195 26.3184 39.2012 39.6611 65.3945 65.3955
c45.458 44.6602 76.5605 66.9902 131.588 66.9902l865.287 1.59473c40.6729 0 65.791 -14.751 91.7129 -40.6729c27.1152 -27.1143 40.6729 -58.2168 40.6729 -92.5098v-533.527c0 -38.2803 -14.3428 -64.6104 -41.4707 -90.915
c-26.3174 -25.5205 -56.6221 -39.875 -91.7119 -39.875h-863.692z" />
    <glyph glyph-name="s" unicode="s" horiz-adv-x="1292" 
d="M175 657l165 -53l738 105l-165 35zM379 -130l824 271l26 530l-868 -124zM318 -112l-19 665l-233 73l22 -600zM352 -201l-322 201l-30 691l916 106l373 -74l-27 -624z" />
    <glyph glyph-name="t" unicode="t" horiz-adv-x="989" 
d="M62.9395 738.178v-683.983h859.762l-1.25781 683.983l-322.443 -0.177734v-73h-62l-48 -71l-39 71h-71v73zM804.374 -115.535v-24.0654h62.9404v24.0654h-62.9404zM712.481 -115.535v-24.0654h62.9404v24.0654h-62.9404zM804.374 -57.2695v-24.0664h62.9404v24.0664
h-62.9404zM712.481 -57.2695v-24.0664h62.9404v24.0664h-62.9404zM804.374 2.2627v-24.0664h62.9404v24.0664h-62.9404zM712.481 2.2627v-24.0664h62.9404v24.0664h-62.9404zM127.139 -33.2041v-77.2646c0 -7.59961 0 -10.1318 5.03516 -15.1982
c3.77539 -3.80078 7.55273 -5.06641 13.8457 -5.06641h181.269c6.29395 0 11.3291 1.26562 15.1055 5.06641c5.03516 5.06641 5.03516 8.86621 5.03516 15.1982v78.5322c0 5.06641 -1.25879 10.1328 -5.03516 13.9326c-5.03516 3.7998 -8.81152 5.06641 -15.1055 5.06641
h-181.269c-6.29297 0 -11.3281 -1.2666 -15.1055 -5.06641c-3.77539 -5.06641 -3.77539 -7.59961 -3.77539 -15.2002zM0 -151v899.311c0 13.9336 7.55273 25.332 17.6221 35.4658c8.8125 8.86621 18.8818 12.6611 31.4707 12.666c352.098 0.137695 537.451 0 883.679 0
c13.8477 0 28.9531 -3.7998 39.0234 -13.9326c11.3301 -11.3994 13.8467 -21.5332 13.8467 -36.7324v-894.245c0 -16.4658 -3.12793 -27.2139 -13.8467 -37.999c-10.0703 -10.1328 -21.3984 -12.666 -36.5049 -12.666h-883.68c-13.8467 0 -22.6582 2.5332 -32.7295 11.4004
c-11.3281 10.1328 -18.8809 21.5322 -18.8809 36.7324z" />
    <glyph glyph-name="u" unicode="u" horiz-adv-x="1247" 
d="M103 693h228v-158h-228v158zM83 713v-661h1078v661h-1078zM101 800h1044c30 0 52.4932 -6.49316 72 -26c22 -22 27 -45 27 -77v-627c0 -28 -6.04339 -49.9545 -27 -70c-23 -22 -48 -29 -78 -29h-480l3 -84h230c6 0 11.4727 -1.47266 16 -6c4 -4 5 -8 5 -13v-42
c0 -7 0 -12 -5 -17s-12 -5 -18 -5h-536c-7 0 -13 0 -18 6c-4.09918 4.91902 -5 8 -5 14v42c0 5 0 12 4 16c5 5 7 5 16 5h232v82h-480c-31 0 -55.9521 3.0498 -79 25c-21 20 -24 47 -24 74v628c0 30 4 54 25 76s47 28 76 28z" />
    <glyph glyph-name="v" unicode="v" horiz-adv-x="1247" 
d="M913 693h228v-158h-228v158zM83 713v-661h1078v661h-1078zM101 800h1044c30 0 52.4932 -6.49316 72 -26c22 -22 27 -45 27 -77v-627c0 -28 -6.04339 -49.9545 -27 -70c-23 -22 -48 -29 -78 -29h-480l3 -84h230c6 0 11.4727 -1.47266 16 -6c4 -4 5 -8 5 -13v-42
c0 -7 0 -12 -5 -17s-12 -5 -18 -5h-536c-7 0 -13 0 -18 6c-4.09918 4.91902 -5 8 -5 14v42c0 5 0 12 4 16c5 5 7 5 16 5h232v82h-480c-31 0 -55.9521 3.0498 -79 25c-21 20 -24 47 -24 74v628c0 30 4 54 25 76s47 28 76 28z" />
    <glyph glyph-name="w" unicode="w" horiz-adv-x="1247" 
d="M103 230h228v-158h-228v158zM83 713v-661h1078v661h-1078zM101 800h1044c30 0 52.4932 -6.49316 72 -26c22 -22 27 -45 27 -77v-627c0 -28 -6.04339 -49.9545 -27 -70c-23 -22 -48 -29 -78 -29h-480l3 -84h230c6 0 11.4727 -1.47266 16 -6c4 -4 5 -8 5 -13v-42
c0 -7 0 -12 -5 -17s-12 -5 -18 -5h-536c-7 0 -13 0 -18 6c-4.09918 4.91902 -5 8 -5 14v42c0 5 0 12 4 16c5 5 7 5 16 5h232v82h-480c-31 0 -55.9521 3.0498 -79 25c-21 20 -24 47 -24 74v628c0 30 4 54 25 76s47 28 76 28z" />
    <glyph glyph-name="x" unicode="x" horiz-adv-x="1247" 
d="M913 230h228v-158h-228v158zM83 713v-661h1078v661h-1078zM101 800h1044c30 0 52.4932 -6.49316 72 -26c22 -22 27 -45 27 -77v-627c0 -28 -6.04339 -49.9545 -27 -70c-23 -22 -48 -29 -78 -29h-480l3 -84h230c6 0 11.4727 -1.47266 16 -6c4 -4 5 -8 5 -13v-42
c0 -7 0 -12 -5 -17s-12 -5 -18 -5h-536c-7 0 -13 0 -18 6c-4.09918 4.91902 -5 8 -5 14v42c0 5 0 12 4 16c5 5 7 5 16 5h232v82h-480c-31 0 -55.9521 3.0498 -79 25c-21 20 -24 47 -24 74v628c0 30 4 54 25 76s47 28 76 28z" />
    <glyph glyph-name="y" unicode="y" horiz-adv-x="817" 
d="M275 747c41 -33 75 -53 129 -53c58 0 94 20 138 54c-48 16 -80 26 -133 26s-84 -8 -134 -27zM159 0c83 -48 148 -74 249 -74c102 0 165 30 252 74c43 -28 60 -38 95 -66c35.7669 -28.6135 63 -82 35 -111c-34.9582 -36.2067 -88.3406 -13.9663 -141 1
c-95 27 -144 58 -241 60c-85 2 -134 -24 -212 -50c-60.5153 -20.1718 -125 -46 -164 -10c-37.9332 35.0153 5.89767 91.5814 46 125c30 25 42 28 81 51zM464 442c-25 26 -78 32 -110 3c-29 -26 -26 -66 4 -100c7 39 -1 54 24 77c26 24 45 16 82 20zM407 496
c61 0 110 -49 111 -110c1 -60 -49 -107 -109 -107c-59 0 -108 47 -109 106c-1 60 47 111 107 111zM409 582c-107 0 -196 -86 -195 -193c1 -108 90 -195 198 -195c107 0 195 87 194 194c-1 108 -89 194 -197 194zM0 391c1 225 186 407 411 406s407 -185 406 -410
c-1 -224 -184 -405 -409 -404s-409 183 -408 408z" />
    <glyph glyph-name="B" unicode="B" 
d="M0 -85h1000v-115h-1000v115zM481 338l58 -60v-144c0 -30 -13 -50 -34 -70c-22 -21 -44 -33 -74 -33h-431v115h363c18 0 31 6 43 19c13 14 18 30 18 47v66zM231 800h500v-231h-154v-88l-96 -105l-96 105v88h-154v231z" />
    <glyph glyph-name="exclamdown" unicode="&#xa1;" horiz-adv-x="1001" 
d="M229.318 368.639l98.6816 87.3613l14.9033 -125.04l-36.8301 10.0781c-4.87305 -41.9199 -7.25488 -72.0576 8.46289 -113.747c13.7354 -38.2139 42.2041 -63.7295 63.1875 -82.5361c16.4844 -14.7744 15.7314 -25.5645 6.41992 -35.4795
c-8.44141 -9.41895 -29.4092 -8.66699 -38.0781 0.15625c-38.418 39.1035 -61.96 68.2715 -78.9121 116.163c-16.9531 47.8916 -16.1787 82.8691 -7.58105 130.367zM584.979 38.167l-124.979 41.833l100.868 75.3838l9.6709 -36.9395
c38.748 16.7236 66.0439 29.7178 94.3047 64.1621c26.2393 30.9922 34.1182 68.4004 39.9258 95.9746c4.56055 21.6602 14.2842 26.3994 27.5254 23.2881c12.377 -2.60742 22.2021 -21.1465 18.8896 -33.0645c-14.6777 -52.8154 -28.1826 -87.7812 -61.1982 -126.395
c-33.0146 -38.6133 -63.7002 -55.418 -109.141 -71.7021zM697 511l27 -129l-116 49l27 27c-34 25 -59 42 -103 49c-40 7 -76.268 -5.08933 -103 -14c-21 -7 -30 -1 -34 12c-4 12 7.04088 29.841 19 33c53 14 90 20 140 11s80 -27 117 -58z" />
    <glyph glyph-name="cent" unicode="&#xa2;" horiz-adv-x="1001" 
d="M0 800h1001v-1000h-1001v1000z" />
    <glyph glyph-name="sterling" unicode="&#xa3;" horiz-adv-x="1001" 
d="M502 667c203 -3 366 -168 366 -371c0 -202 -166 -366 -367 -363c-205 3 -368 170 -368 375c0 201 168 362 369 359z" />
    <glyph glyph-name="currency" unicode="&#xa4;" horiz-adv-x="1001" 
d="M0 208v170l106 -105c27 -92 40 -151 106 -218c80 -81 134 -103 254 -146l111 -109h-166zM916 -200h-169l-123 125l104 57zM0 716l182 -184l-53 -110l-129 121v173zM1001 49v-165l-183 187l57 107zM252 800l125 -126l-109 -57l-183 183h167zM420 800h170l411 -412v-166
l-110 106c-30 102 -47 166 -121 241c-74 74 -133 82 -239 122zM502 667c-201 3 -369 -158 -369 -359c0 -205 163 -372 368 -375c201 -3 367 161 367 363c0 203 -163 368 -366 371zM503 699c221 -2 399 -183 398 -404c-1 -220 -182 -397 -401 -395c-222 2 -402 182 -401 404
c1 220 184 397 404 395zM0 40l241 -240h-171l-70 72v168zM762 800h164l75 -75v-167z" />
    <glyph glyph-name="Z" unicode="Z" horiz-adv-x="1150" 
d="M443.902 269.677c-13.5537 11.0576 -12.9121 28.4893 -4.06641 40.0879c9.48828 12.4424 29.8193 9.67676 39.3066 2.76562l97.5889 -71.8848l157.227 66.3555c16.2646 6.91211 32.5293 4.14648 40.6621 -11.0596c6.77637 -13.8242 -1.35645 -27.6475 -17.6201 -35.9414
l-158.582 -74.6504c-12.1982 -5.5293 -16.3486 -9.66602 -27.1074 -8.29492c-10.8438 1.38281 -12.1982 4.14746 -23.042 11.0596zM378.418 143.35zM575 524c-165 0 -299 -132 -299 -297s134 -301 299 -301c166 0 301 135 301 300s-136 298 -301 298zM-2 495
c0 39 17.4798 73.5288 50 105c31 30 56 42 100 43h143c22 50 24 89 44 111c24.8069 27.2876 46 46 85 46h307c35 0 57.9102 -14.0757 79 -39c33 -39 34 -72 56 -118h139c55 -1 74 -18 106 -50c30 -30 43 -57 43 -100v-538c0 -47 -14 -73 -46 -105s-59 -50 -106 -50h-846
c-42 2 -69 13 -99 43c-34 34 -55 67 -55 111v541z" />
    <glyph glyph-name="z" unicode="z" horiz-adv-x="1116" 
d="M0 615h369v-96h-273v-519h925v519h-274v96h369v-705h-59v-110h-94v110h-89v-110h-93v110h-85l-1 -110h-97v110h-84v-110h-94v110h-87v-110h-95v110h-84v-110h-93v110h-61v705zM453 800h210v-370h159l-265 -384l-256 384h152v370z" />
    <glyph glyph-name="yen" unicode="&#xa5;" horiz-adv-x="1118" 
d="M674.022 407.53c0 28.4268 -10.1973 53.0264 -30.5898 73.7998c-20.3936 20.7734 -44.543 31.1602 -72.4502 31.1602s-52.0566 -10.3867 -72.4502 -31.1602c-20.3926 -20.7734 -30.5898 -45.373 -30.5898 -73.7998c0 -28.9736 10.0625 -53.71 30.1875 -74.21
s44.4092 -30.75 72.8525 -30.75s52.7275 10.25 72.8525 30.75s30.1875 45.2363 30.1875 74.21zM880.103 464.93v-114.8c0 -8.74707 -39.9824 -17.2197 -119.945 -25.4199c-6.43945 -14.7598 -14.4893 -28.9727 -24.1494 -42.6396
c27.3701 -61.7734 41.0547 -99.4932 41.0547 -113.16c0 -2.1875 -1.07324 -4.10059 -3.21973 -5.74023c-65.4736 -38.8125 -98.7471 -58.2197 -99.8203 -58.2197c-4.29297 0 -16.6367 12.8467 -37.0303 38.54c-20.3926 25.6924 -34.3467 44.2793 -41.8594 55.7598
c-10.7334 -1.09277 -18.7832 -1.63965 -24.1504 -1.63965s-13.417 0.546875 -24.1504 1.63965c-7.5127 -11.4805 -21.4668 -30.0674 -41.8594 -55.7598c-20.3936 -25.6934 -32.7373 -38.54 -37.0303 -38.54c-1.07324 0 -34.3467 19.4072 -99.8203 58.2197
c-2.14648 1.63965 -3.21973 3.55273 -3.21973 5.74023c0 13.667 13.6855 51.3867 41.0547 113.16c-9.65918 13.667 -17.71 27.8799 -24.1494 42.6396c-79.9629 8.2002 -119.945 16.6729 -119.945 25.4199v114.8c0 8.74707 39.9824 17.2207 119.945 25.4199
c6.97656 15.8535 15.0264 30.0674 24.1494 42.6406c-27.3691 61.7725 -41.0547 99.4932 -41.0547 113.16c0 2.18652 1.07324 4.09961 3.21973 5.73926c2.14746 1.09375 11.5381 6.56055 28.1758 16.4004c16.6367 9.83984 32.4678 19.1328 47.4951 27.8799
c15.0264 8.74707 23.0762 13.1201 24.1494 13.1201c4.29297 0 16.6367 -12.71 37.0303 -38.1299c20.3926 -25.4199 34.3467 -43.8701 41.8594 -55.3506c10.7334 1.09375 18.7832 1.64062 24.1504 1.64062s13.417 -0.546875 24.1504 -1.64062
c27.3701 38.8135 52.0566 69.4277 74.0596 91.8408l4.83008 1.63965c2.14648 0 35.4199 -19.1328 99.8203 -57.4004c2.14648 -1.63965 3.21973 -3.55273 3.21973 -5.73926c0 -13.667 -13.6846 -51.3877 -41.0547 -113.16
c9.12305 -12.5732 17.1729 -26.7871 24.1494 -42.6406c79.9629 -8.19922 119.945 -16.6729 119.945 -25.4199zM0 795h219v-96h-123v-699h925v699h-124v96h219v-885h-59v-110h-94v110h-89v-110h-93v110h-85l-1 -110h-97v110h-84v-110h-94v110h-87v-110h-95v110h-84v-110h-93
v110h-61v885z" />
    <glyph glyph-name="brokenbar" unicode="&#xa6;" horiz-adv-x="884" 
d="M705.085 142.206l56.5 23.5996c-23.8857 34.6777 -45.9355 62.1299 -106.571 62.6113c-79.1406 0.629883 -117.422 -54.915 -118.515 -123.297c-1.37793 -86.2119 51.8945 -129.47 118.975 -129.077c82.2256 0.481445 120.812 68.873 115.759 133.893l-111.625 -0.481445
v-37.5674h43.1797c0 -26.0078 -12.8613 -47.1992 -46.3945 -47.1992c-38.3262 0 -62.9326 38.0488 -63.3916 78.0244c-0.459961 39.4941 24.2256 78.1543 61.5537 77.543c29.3994 -0.482422 38.5859 -17.8213 50.5303 -38.0488zM390.882 169.658
c-34.9111 0 -65.2295 -26.4893 -66.1475 -63.0938c-0.918945 -38.0488 26.6436 -71.2812 62.9326 -71.2812c37.207 0 66.6064 31.7881 67.5264 70.7998c0.917969 36.123 -29.8594 63.5752 -64.3115 63.5752zM390.882 227.455
c66.1484 0.480469 126.324 -51.0537 125.864 -120.409c-0.458984 -73.208 -58.3379 -130.04 -128.161 -130.521c-67.9854 -0.481445 -123.567 58.2773 -123.108 129.559c0.459961 69.8369 58.7979 120.89 125.405 121.372zM123.075 -18.1777v239.853h61.5547
l-0.459961 -185.91h71.2012v-53.9424h-132.296zM844.652 589.104c10.752 -10.3945 19.9678 -24.499 27.6475 -42.3164c7.67969 -17.8184 11.5205 -34.1514 11.5205 -48.999v-641.434c0 -14.8477 -5.37598 -27.4688 -16.1289 -37.8623
c-10.751 -10.3936 -23.8076 -15.5898 -39.167 -15.5898h-774.145c-15.3604 0 -28.416 5.19629 -39.168 15.5898c-10.752 10.3936 -16.1279 23.0146 -16.1279 37.8623v890.88c0 14.8486 5.37598 27.4688 16.1279 37.8633c10.752 10.3926 23.8076 15.5898 39.168 15.5898
h516.096c15.3604 0 32.2568 -3.71289 50.6885 -11.1367c18.4326 -7.42285 33.0234 -16.332 43.7754 -26.7256zM588.908 724.964v-209.357h216.575c-3.83984 10.7646 -8.06348 18.375 -12.6719 22.8291l-180.287 174.278c-4.6084 4.45508 -12.4805 8.53711 -23.6162 12.25z
M810.092 -125.826v570.162h-239.616c-15.3594 0 -28.416 5.19727 -39.167 15.5908c-10.7529 10.3936 -16.1289 23.0137 -16.1289 37.8623v231.629h-442.368v-855.244h737.28z" />
    <glyph glyph-name="section" unicode="&#xa7;" horiz-adv-x="1072" 
d="M919.271 610.146l-274.172 -304.129l-137.679 152.72c-3.94043 4.36914 -8.46973 6.55469 -13.5908 6.55469s-9.65039 -2.18555 -13.5908 -6.55469l-345.672 -383.44l113.452 -125.846l245.811 272.667l137.679 -152.72
c3.93945 -4.36816 8.46777 -6.55371 13.5908 -6.55371c5.12012 0 9.65137 2.18555 13.5908 6.55371l374.033 414.901zM1072.35 -123.474v-77.123l-1072.35 0.59668v1000l77.8418 -0.59668v-922.877h994.513z" />
    <glyph glyph-name="dieresis" unicode="&#xa8;" horiz-adv-x="625" 
d="M237 335h151l-75 -87zM60 450l-1 -353c-3 -122 119.996 -240 254 -240c135 0 253 108 253 237v356h-191c0 -38 -26 -74 -63 -74c-38 0 -61 35 -61 74h-191zM237 591l76 87l76 -87h-152zM566 476c-1 153 -114 265 -255 265c-140 0 -250 -112 -252 -265h191
c1 34 25 74 63 74s61 -37 60 -74h193zM0 485c0 164 142 314 312 315s313 -153 313 -312v-377c0 -170 -143 -311 -313 -311s-312 146 -312 312v373z" />
  </font>
</defs>
</svg>
