solid 100x100 avec formes
facet normal 0.0 0.0 -1.0
outer loop
vertex 50.0 70.0 0.0
vertex 50.0 25.0 0.0
vertex 49.8296291314453 26.2940952255126 0.0
endloop
endfacet
facet normal 0.0 0.0 -1.0
outer loop
vertex 50.0 25.0 0.0
vertex 50.0 70.0 0.0
vertex 50.6814834742186 64.8236190979496 0.0
endloop
endfacet
facet normal 0.0 0.0 -1.0
outer loop
vertex 64.8236190979496 50.6814834742186 0.0
vertex 63.0 25.0 0.0
vertex 60.0 52.6794919243112 0.0
endloop
endfacet
facet normal 0.0 0.0 -1.0
outer loop
vertex 63.0 25.0 0.0
vertex 64.8236190979496 50.6814834742186 0.0
vertex 63.0681483474219 25.517638090205 0.0
endloop
endfacet
facet normal 0.0 0.0 -1.0
outer loop
vertex 63.0681483474219 25.517638090205 0.0
vertex 64.8236190979496 50.6814834742186 0.0
vertex 63.2679491924311 26.0 0.0
endloop
endfacet
facet normal 0.0 0.0 -1.0
outer loop
vertex 63.2679491924311 26.0 0.0
vertex 64.8236190979496 50.6814834742186 0.0
vertex 63.5857864376269 26.4142135623731 0.0
endloop
endfacet
facet normal 0.0 0.0 -1.0
outer loop
vertex 63.5857864376269 26.4142135623731 0.0
vertex 64.8236190979496 50.6814834742186 0.0
vertex 64.0 26.7320508075689 0.0
endloop
endfacet
facet normal 0.0 0.0 -1.0
outer loop
vertex 64.0 26.7320508075689 0.0
vertex 64.8236190979496 50.6814834742186 0.0
vertex 64.4823619097949 26.9318516525781 0.0
endloop
endfacet
facet normal 0.0 0.0 -1.0
outer loop
vertex 64.4823619097949 26.9318516525781 0.0
vertex 64.8236190979496 50.6814834742186 0.0
vertex 65.0 27.0 0.0
endloop
endfacet
facet normal 0.0 0.0 -1.0
outer loop
vertex 65.0 27.0 0.0
vertex 64.8236190979496 50.6814834742186 0.0
vertex 70.0 50.0 0.0
endloop
endfacet
facet normal 0.0 0.0 -1.0
outer loop
vertex 65.0 27.0 0.0
vertex 70.0 50.0 0.0
vertex 65.517638090205 26.9318516525781 0.0
endloop
endfacet
facet normal 0.0 0.0 -1.0
outer loop
vertex 65.517638090205 26.9318516525781 0.0
vertex 70.0 50.0 0.0
vertex 66.0 26.7320508075689 0.0
endloop
endfacet
facet normal 0.0 0.0 -1.0
outer loop
vertex 66.0 26.7320508075689 0.0
vertex 70.0 50.0 0.0
vertex 66.4142135623731 26.4142135623731 0.0
endloop
endfacet
facet normal 0.0 0.0 -1.0
outer loop
vertex 66.4142135623731 26.4142135623731 0.0
vertex 70.0 50.0 0.0
vertex 66.7320508075689 26.0 0.0
endloop
endfacet
facet normal 0.0 0.0 -1.0
outer loop
vertex 66.7320508075689 26.0 0.0
vertex 70.0 50.0 0.0
vertex 66.9318516525781 25.517638090205 0.0
endloop
endfacet
facet normal 0.0 0.0 -1.0
outer loop
vertex 66.9318516525781 25.517638090205 0.0
vertex 70.0 50.0 0.0
vertex 67.0 25.0 0.0
endloop
endfacet
facet normal 0.0 0.0 -1.0
outer loop
vertex 75.1763809020504 50.6814834742186 0.0
vertex 72.0 25.0 0.0
vertex 70.0 50.0 0.0
endloop
endfacet
facet normal 0.0 0.0 -1.0
outer loop
vertex 72.0 25.0 0.0
vertex 75.1763809020504 50.6814834742186 0.0
vertex 72.1022225211328 25.7764571353076 0.0
endloop
endfacet
facet normal 0.0 0.0 -1.0
outer loop
vertex 72.1022225211328 25.7764571353076 0.0
vertex 75.1763809020504 50.6814834742186 0.0
vertex 72.4019237886467 26.5 0.0
endloop
endfacet
facet normal 0.0 0.0 -1.0
outer loop
vertex 72.4019237886467 26.5 0.0
vertex 75.1763809020504 50.6814834742186 0.0
vertex 72.8786796564404 27.1213203435596 0.0
endloop
endfacet
facet normal 0.0 0.0 -1.0
outer loop
vertex 72.8786796564404 27.1213203435596 0.0
vertex 75.1763809020504 50.6814834742186 0.0
vertex 73.5 27.5980762113533 0.0
endloop
endfacet
facet normal 0.0 0.0 -1.0
outer loop
vertex 73.5 27.5980762113533 0.0
vertex 75.1763809020504 50.6814834742186 0.0
vertex 74.2235428646924 27.8977774788672 0.0
endloop
endfacet
facet normal 0.0 0.0 -1.0
outer loop
vertex 74.2235428646924 27.8977774788672 0.0
vertex 75.1763809020504 50.6814834742186 0.0
vertex 75.0 28.0 0.0
endloop
endfacet
facet normal 0.0 0.0 -1.0
outer loop
vertex 75.0 28.0 0.0
vertex 75.1763809020504 50.6814834742186 0.0
vertex 75.7764571353076 27.8977774788672 0.0
endloop
endfacet
facet normal 0.0 0.0 -1.0
outer loop
vertex 75.7764571353076 27.8977774788672 0.0
vertex 75.1763809020504 50.6814834742186 0.0
vertex 80.0 52.6794919243112 0.0
endloop
endfacet
facet normal 0.0 0.0 -1.0
outer loop
vertex 75.7764571353076 27.8977774788672 0.0
vertex 80.0 52.6794919243112 0.0
vertex 76.5 27.5980762113533 0.0
endloop
endfacet
facet normal 0.0 0.0 -1.0
outer loop
vertex 76.5 27.5980762113533 0.0
vertex 80.0 52.6794919243112 0.0
vertex 77.1213203435596 27.1213203435596 0.0
endloop
endfacet
facet normal 0.0 0.0 -1.0
outer loop
vertex 77.1213203435596 27.1213203435596 0.0
vertex 80.0 52.6794919243112 0.0
vertex 77.5980762113533 26.5 0.0
endloop
endfacet
facet normal 0.0 0.0 -1.0
outer loop
vertex 77.5980762113533 26.5 0.0
vertex 80.0 52.6794919243112 0.0
vertex 77.8977774788672 25.7764571353076 0.0
endloop
endfacet
facet normal 0.0 0.0 -1.0
outer loop
vertex 77.8977774788672 25.7764571353076 0.0
vertex 80.0 52.6794919243112 0.0
vertex 78.0 25.0 0.0
endloop
endfacet
facet normal 0.0 0.0 -1.0
outer loop
vertex 1.12798659301916e-014 100.0 0.0
vertex 10.0 90.0 0.0
vertex 10.0 20.0 0.0
endloop
endfacet
facet normal 0.0 0.0 -1.0
outer loop
vertex 10.0 90.0 0.0
vertex 1.12798659301916e-014 100.0 0.0
vertex 100.0 100.0 0.0
endloop
endfacet
facet normal 0.0 0.0 -1.0
outer loop
vertex 10.0 20.0 0.0
vertex 10.0 90.0 0.0
vertex 10.0 65.0 0.0
endloop
endfacet
facet normal 0.0 0.0 -1.0
outer loop
vertex 10.0 90.0 0.0
vertex 100.0 100.0 0.0
vertex 35.0 90.0 0.0
endloop
endfacet
facet normal 0.0 0.0 -1.0
outer loop
vertex 35.0 90.0 0.0
vertex 100.0 100.0 0.0
vertex 64.8236190979496 89.3185165257814 0.0
endloop
endfacet
facet normal 0.0 0.0 -1.0
outer loop
vertex 35.0 90.0 0.0
vertex 64.8236190979496 89.3185165257814 0.0
vertex 60.0 87.3205080756888 0.0
endloop
endfacet
facet normal 0.0 0.0 -1.0
outer loop
vertex 35.0 90.0 0.0
vertex 60.0 87.3205080756888 0.0
vertex 55.857864376269 84.142135623731 0.0
endloop
endfacet
facet normal 0.0 0.0 -1.0
outer loop
vertex 35.0 90.0 0.0
vertex 55.857864376269 84.142135623731 0.0
vertex 35.0 65.0 0.0
endloop
endfacet
facet normal 0.0 0.0 -1.0
outer loop
vertex 35.0 65.0 0.0
vertex 55.857864376269 84.142135623731 0.0
vertex 52.6794919243112 80.0 0.0
endloop
endfacet
facet normal 0.0 0.0 -1.0
outer loop
vertex 35.0 65.0 0.0
vertex 52.6794919243112 80.0 0.0
vertex 50.6814834742186 75.1763809020504 0.0
endloop
endfacet
facet normal 0.0 0.0 -1.0
outer loop
vertex 35.0 65.0 0.0
vertex 50.6814834742186 75.1763809020504 0.0
vertex 40.1703708685547 26.2940952255126 0.0
endloop
endfacet
facet normal 0.0 0.0 -1.0
outer loop
vertex 35.0 65.0 0.0
vertex 40.1703708685547 26.2940952255126 0.0
vertex 40.0 25.0 0.0
endloop
endfacet
facet normal 0.0 0.0 -1.0
outer loop
vertex 40.1703708685547 26.2940952255126 0.0
vertex 50.6814834742186 75.1763809020504 0.0
vertex 40.6698729810778 27.5 0.0
endloop
endfacet
facet normal 0.0 0.0 -1.0
outer loop
vertex 40.6698729810778 27.5 0.0
vertex 50.6814834742186 75.1763809020504 0.0
vertex 41.4644660940673 28.5355339059327 0.0
endloop
endfacet
facet normal 0.0 0.0 -1.0
outer loop
vertex 41.4644660940673 28.5355339059327 0.0
vertex 50.6814834742186 75.1763809020504 0.0
vertex 42.5 29.3301270189222 0.0
endloop
endfacet
facet normal 0.0 0.0 -1.0
outer loop
vertex 42.5 29.3301270189222 0.0
vertex 50.6814834742186 75.1763809020504 0.0
vertex 43.7059047744874 29.8296291314453 0.0
endloop
endfacet
facet normal 0.0 0.0 -1.0
outer loop
vertex 43.7059047744874 29.8296291314453 0.0
vertex 50.6814834742186 75.1763809020504 0.0
vertex 50.0 70.0 0.0
endloop
endfacet
facet normal 0.0 0.0 -1.0
outer loop
vertex 43.7059047744874 29.8296291314453 0.0
vertex 50.0 70.0 0.0
vertex 45.0 30.0 0.0
endloop
endfacet
facet normal 0.0 0.0 -1.0
outer loop
vertex 45.0 30.0 0.0
vertex 50.0 70.0 0.0
vertex 46.2940952255126 29.8296291314453 0.0
endloop
endfacet
facet normal 0.0 0.0 -1.0
outer loop
vertex 46.2940952255126 29.8296291314453 0.0
vertex 50.0 70.0 0.0
vertex 47.5 29.3301270189222 0.0
endloop
endfacet
facet normal 0.0 0.0 -1.0
outer loop
vertex 47.5 29.3301270189222 0.0
vertex 50.0 70.0 0.0
vertex 48.5355339059327 28.5355339059327 0.0
endloop
endfacet
facet normal 0.0 0.0 -1.0
outer loop
vertex 48.5355339059327 28.5355339059327 0.0
vertex 50.0 70.0 0.0
vertex 49.3301270189222 27.5 0.0
endloop
endfacet
facet normal 0.0 0.0 -1.0
outer loop
vertex 49.3301270189222 27.5 0.0
vertex 50.0 70.0 0.0
vertex 49.8296291314453 26.2940952255126 0.0
endloop
endfacet
facet normal 0.0 0.0 -1.0
outer loop
vertex 64.8236190979496 89.3185165257814 0.0
vertex 100.0 100.0 0.0
vertex 70.0 90.0 0.0
endloop
endfacet
facet normal 0.0 0.0 -1.0
outer loop
vertex 70.0 90.0 0.0
vertex 100.0 100.0 0.0
vertex 75.1763809020504 89.3185165257814 0.0
endloop
endfacet
facet normal 0.0 0.0 -1.0
outer loop
vertex 75.1763809020504 89.3185165257814 0.0
vertex 100.0 100.0 0.0
vertex 80.0 87.3205080756888 0.0
endloop
endfacet
facet normal 0.0 0.0 -1.0
outer loop
vertex 80.0 87.3205080756888 0.0
vertex 100.0 100.0 0.0
vertex 84.1421356237309 84.142135623731 0.0
endloop
endfacet
facet normal 0.0 0.0 -1.0
outer loop
vertex 84.1421356237309 84.142135623731 0.0
vertex 100.0 100.0 0.0
vertex 87.3205080756888 80.0 0.0
endloop
endfacet
facet normal 0.0 0.0 -1.0
outer loop
vertex 87.3205080756888 80.0 0.0
vertex 100.0 100.0 0.0
vertex 89.3185165257814 75.1763809020504 0.0
endloop
endfacet
facet normal 0.0 0.0 -1.0
outer loop
vertex 89.3185165257814 75.1763809020504 0.0
vertex 100.0 100.0 0.0
vertex 90.0 70.0 0.0
endloop
endfacet
facet normal 0.0 0.0 -1.0
outer loop
vertex 0.0 0.0 0.0
vertex 10.0 20.0 0.0
vertex 100.0 0.0 0.0
endloop
endfacet
facet normal 0.0 0.0 -1.0
outer loop
vertex 10.0 20.0 0.0
vertex 0.0 0.0 0.0
vertex 1.12798659301916e-014 100.0 0.0
endloop
endfacet
facet normal 0.0 0.0 -1.0
outer loop
vertex 100.0 0.0 0.0
vertex 10.0 20.0 0.0
vertex 35.0 20.0 0.0
endloop
endfacet
facet normal 0.0 0.0 -1.0
outer loop
vertex 100.0 0.0 0.0
vertex 35.0 20.0 0.0
vertex 43.7059047744874 20.1703708685547 0.0
endloop
endfacet
facet normal 0.0 0.0 -1.0
outer loop
vertex 43.7059047744874 20.1703708685547 0.0
vertex 35.0 20.0 0.0
vertex 42.5 20.6698729810778 0.0
endloop
endfacet
facet normal 0.0 0.0 -1.0
outer loop
vertex 42.5 20.6698729810778 0.0
vertex 35.0 20.0 0.0
vertex 41.4644660940673 21.4644660940673 0.0
endloop
endfacet
facet normal 0.0 0.0 -1.0
outer loop
vertex 41.4644660940673 21.4644660940673 0.0
vertex 35.0 20.0 0.0
vertex 40.6698729810778 22.5 0.0
endloop
endfacet
facet normal 0.0 0.0 -1.0
outer loop
vertex 40.6698729810778 22.5 0.0
vertex 35.0 20.0 0.0
vertex 40.1703708685547 23.7059047744874 0.0
endloop
endfacet
facet normal 0.0 0.0 -1.0
outer loop
vertex 40.1703708685547 23.7059047744874 0.0
vertex 35.0 20.0 0.0
vertex 40.0 25.0 0.0
endloop
endfacet
facet normal 0.0 0.0 -1.0
outer loop
vertex 40.0 25.0 0.0
vertex 35.0 20.0 0.0
vertex 35.0 65.0 0.0
endloop
endfacet
facet normal 0.0 0.0 -1.0
outer loop
vertex 100.0 0.0 0.0
vertex 43.7059047744874 20.1703708685547 0.0
vertex 45.0 20.0 0.0
endloop
endfacet
facet normal 0.0 0.0 -1.0
outer loop
vertex 100.0 0.0 0.0
vertex 45.0 20.0 0.0
vertex 46.2940952255126 20.1703708685547 0.0
endloop
endfacet
facet normal 0.0 0.0 -1.0
outer loop
vertex 100.0 0.0 0.0
vertex 46.2940952255126 20.1703708685547 0.0
vertex 47.5 20.6698729810778 0.0
endloop
endfacet
facet normal 0.0 0.0 -1.0
outer loop
vertex 100.0 0.0 0.0
vertex 47.5 20.6698729810778 0.0
vertex 48.5355339059327 21.4644660940673 0.0
endloop
endfacet
facet normal 0.0 0.0 -1.0
outer loop
vertex 100.0 0.0 0.0
vertex 48.5355339059327 21.4644660940673 0.0
vertex 49.3301270189222 22.5 0.0
endloop
endfacet
facet normal 0.0 0.0 -1.0
outer loop
vertex 100.0 0.0 0.0
vertex 49.3301270189222 22.5 0.0
vertex 49.8296291314453 23.7059047744874 0.0
endloop
endfacet
facet normal 0.0 0.0 -1.0
outer loop
vertex 100.0 0.0 0.0
vertex 49.8296291314453 23.7059047744874 0.0
vertex 50.0 25.0 0.0
endloop
endfacet
facet normal 0.0 0.0 -1.0
outer loop
vertex 100.0 0.0 0.0
vertex 50.0 25.0 0.0
vertex 64.0 23.2679491924311 0.0
endloop
endfacet
facet normal 0.0 0.0 -1.0
outer loop
vertex 64.0 23.2679491924311 0.0
vertex 50.0 25.0 0.0
vertex 63.5857864376269 23.5857864376269 0.0
endloop
endfacet
facet normal 0.0 0.0 -1.0
outer loop
vertex 63.5857864376269 23.5857864376269 0.0
vertex 50.0 25.0 0.0
vertex 63.2679491924311 24.0 0.0
endloop
endfacet
facet normal 0.0 0.0 -1.0
outer loop
vertex 63.2679491924311 24.0 0.0
vertex 50.0 25.0 0.0
vertex 63.0681483474219 24.482361909795 0.0
endloop
endfacet
facet normal 0.0 0.0 -1.0
outer loop
vertex 63.0681483474219 24.482361909795 0.0
vertex 50.0 25.0 0.0
vertex 50.6814834742186 64.8236190979496 0.0
endloop
endfacet
facet normal 0.0 0.0 -1.0
outer loop
vertex 63.0681483474219 24.482361909795 0.0
vertex 50.6814834742186 64.8236190979496 0.0
vertex 52.6794919243112 60.0 0.0
endloop
endfacet
facet normal 0.0 0.0 -1.0
outer loop
vertex 63.0681483474219 24.482361909795 0.0
vertex 52.6794919243112 60.0 0.0
vertex 55.8578643762691 55.857864376269 0.0
endloop
endfacet
facet normal 0.0 0.0 -1.0
outer loop
vertex 63.0681483474219 24.482361909795 0.0
vertex 55.8578643762691 55.857864376269 0.0
vertex 63.0 25.0 0.0
endloop
endfacet
facet normal 0.0 0.0 -1.0
outer loop
vertex 63.0 25.0 0.0
vertex 55.8578643762691 55.857864376269 0.0
vertex 60.0 52.6794919243112 0.0
endloop
endfacet
facet normal 0.0 0.0 -1.0
outer loop
vertex 100.0 0.0 0.0
vertex 64.0 23.2679491924311 0.0
vertex 64.482361909795 23.0681483474219 0.0
endloop
endfacet
facet normal 0.0 0.0 -1.0
outer loop
vertex 100.0 0.0 0.0
vertex 64.482361909795 23.0681483474219 0.0
vertex 65.0 23.0 0.0
endloop
endfacet
facet normal 0.0 0.0 -1.0
outer loop
vertex 100.0 0.0 0.0
vertex 65.0 23.0 0.0
vertex 65.517638090205 23.0681483474219 0.0
endloop
endfacet
facet normal 0.0 0.0 -1.0
outer loop
vertex 100.0 0.0 0.0
vertex 65.517638090205 23.0681483474219 0.0
vertex 66.0 23.2679491924311 0.0
endloop
endfacet
facet normal 0.0 0.0 -1.0
outer loop
vertex 100.0 0.0 0.0
vertex 66.0 23.2679491924311 0.0
vertex 66.4142135623731 23.5857864376269 0.0
endloop
endfacet
facet normal 0.0 0.0 -1.0
outer loop
vertex 100.0 0.0 0.0
vertex 66.4142135623731 23.5857864376269 0.0
vertex 66.7320508075689 24.0 0.0
endloop
endfacet
facet normal 0.0 0.0 -1.0
outer loop
vertex 100.0 0.0 0.0
vertex 66.7320508075689 24.0 0.0
vertex 66.9318516525781 24.482361909795 0.0
endloop
endfacet
facet normal 0.0 0.0 -1.0
outer loop
vertex 100.0 0.0 0.0
vertex 66.9318516525781 24.482361909795 0.0
vertex 67.0 25.0 0.0
endloop
endfacet
facet normal 0.0 0.0 -1.0
outer loop
vertex 100.0 0.0 0.0
vertex 67.0 25.0 0.0
vertex 72.8786796564404 22.8786796564404 0.0
endloop
endfacet
facet normal 0.0 0.0 -1.0
outer loop
vertex 72.8786796564404 22.8786796564404 0.0
vertex 67.0 25.0 0.0
vertex 72.4019237886467 23.5 0.0
endloop
endfacet
facet normal 0.0 0.0 -1.0
outer loop
vertex 72.4019237886467 23.5 0.0
vertex 67.0 25.0 0.0
vertex 72.1022225211328 24.2235428646924 0.0
endloop
endfacet
facet normal 0.0 0.0 -1.0
outer loop
vertex 72.1022225211328 24.2235428646924 0.0
vertex 67.0 25.0 0.0
vertex 72.0 25.0 0.0
endloop
endfacet
facet normal 0.0 0.0 -1.0
outer loop
vertex 72.0 25.0 0.0
vertex 67.0 25.0 0.0
vertex 70.0 50.0 0.0
endloop
endfacet
facet normal 0.0 0.0 -1.0
outer loop
vertex 100.0 0.0 0.0
vertex 72.8786796564404 22.8786796564404 0.0
vertex 73.5 22.4019237886467 0.0
endloop
endfacet
facet normal 0.0 0.0 -1.0
outer loop
vertex 100.0 0.0 0.0
vertex 73.5 22.4019237886467 0.0
vertex 74.2235428646924 22.1022225211328 0.0
endloop
endfacet
facet normal 0.0 0.0 -1.0
outer loop
vertex 100.0 0.0 0.0
vertex 74.2235428646924 22.1022225211328 0.0
vertex 75.0 22.0 0.0
endloop
endfacet
facet normal 0.0 0.0 -1.0
outer loop
vertex 100.0 0.0 0.0
vertex 75.0 22.0 0.0
vertex 75.7764571353076 22.1022225211328 0.0
endloop
endfacet
facet normal 0.0 0.0 -1.0
outer loop
vertex 100.0 0.0 0.0
vertex 75.7764571353076 22.1022225211328 0.0
vertex 76.5 22.4019237886467 0.0
endloop
endfacet
facet normal 0.0 0.0 -1.0
outer loop
vertex 100.0 0.0 0.0
vertex 76.5 22.4019237886467 0.0
vertex 77.1213203435596 22.8786796564404 0.0
endloop
endfacet
facet normal 0.0 0.0 -1.0
outer loop
vertex 100.0 0.0 0.0
vertex 77.1213203435596 22.8786796564404 0.0
vertex 77.5980762113533 23.5 0.0
endloop
endfacet
facet normal 0.0 0.0 -1.0
outer loop
vertex 100.0 0.0 0.0
vertex 77.5980762113533 23.5 0.0
vertex 77.8977774788672 24.2235428646924 0.0
endloop
endfacet
facet normal 0.0 0.0 -1.0
outer loop
vertex 100.0 0.0 0.0
vertex 77.8977774788672 24.2235428646924 0.0
vertex 78.0 25.0 0.0
endloop
endfacet
facet normal 0.0 0.0 -1.0
outer loop
vertex 100.0 0.0 0.0
vertex 78.0 25.0 0.0
vertex 80.0 52.6794919243112 0.0
endloop
endfacet
facet normal 0.0 0.0 -1.0
outer loop
vertex 100.0 0.0 0.0
vertex 80.0 52.6794919243112 0.0
vertex 84.142135623731 55.8578643762691 0.0
endloop
endfacet
facet normal 0.0 0.0 -1.0
outer loop
vertex 100.0 0.0 0.0
vertex 84.142135623731 55.8578643762691 0.0
vertex 87.3205080756888 60.0 0.0
endloop
endfacet
facet normal 0.0 0.0 -1.0
outer loop
vertex 100.0 0.0 0.0
vertex 87.3205080756888 60.0 0.0
vertex 89.3185165257814 64.8236190979496 0.0
endloop
endfacet
facet normal 0.0 0.0 -1.0
outer loop
vertex 100.0 0.0 0.0
vertex 89.3185165257814 64.8236190979496 0.0
vertex 90.0 70.0 0.0
endloop
endfacet
facet normal 0.0 0.0 -1.0
outer loop
vertex 100.0 0.0 0.0
vertex 90.0 70.0 0.0
vertex 100.0 100.0 0.0
endloop
endfacet
facet normal 0.0 0.0 -1.0
outer loop
vertex 10.0 65.0 0.0
vertex 22.5 41.650635094611 0.0
vertex 10.0 20.0 0.0
endloop
endfacet
facet normal 0.0 0.0 -1.0
outer loop
vertex 22.5 41.650635094611 0.0
vertex 10.0 65.0 0.0
vertex 35.0 65.0 0.0
endloop
endfacet
facet normal 0.0 0.0 -1.0
outer loop
vertex 22.5 41.650635094611 0.0
vertex 35.0 65.0 0.0
vertex 35.0 20.0 0.0
endloop
endfacet
facet normal 0.0 0.0 1.0
outer loop
vertex 22.5 41.650635094611 2.0
vertex 10.0 65.0 2.0
vertex 10.0 20.0 2.0
endloop
endfacet
facet normal 0.0 0.0 1.0
outer loop
vertex 10.0 65.0 2.0
vertex 22.5 41.650635094611 2.0
vertex 35.0 65.0 2.0
endloop
endfacet
facet normal 0.0 0.0 1.0
outer loop
vertex 35.0 65.0 2.0
vertex 22.5 41.650635094611 2.0
vertex 35.0 20.0 2.0
endloop
endfacet
facet normal 0.0 0.0 1.0
outer loop
vertex 63.0 25.0 2.0
vertex 64.8236190979496 50.6814834742186 2.0
vertex 60.0 52.6794919243112 2.0
endloop
endfacet
facet normal 0.0 0.0 1.0
outer loop
vertex 64.8236190979496 50.6814834742186 2.0
vertex 63.0 25.0 2.0
vertex 63.0681483474219 25.517638090205 2.0
endloop
endfacet
facet normal 0.0 0.0 1.0
outer loop
vertex 64.8236190979496 50.6814834742186 2.0
vertex 63.0681483474219 25.517638090205 2.0
vertex 63.2679491924311 26.0 2.0
endloop
endfacet
facet normal 0.0 0.0 1.0
outer loop
vertex 64.8236190979496 50.6814834742186 2.0
vertex 63.2679491924311 26.0 2.0
vertex 63.5857864376269 26.4142135623731 2.0
endloop
endfacet
facet normal 0.0 0.0 1.0
outer loop
vertex 64.8236190979496 50.6814834742186 2.0
vertex 63.5857864376269 26.4142135623731 2.0
vertex 64.0 26.7320508075689 2.0
endloop
endfacet
facet normal 0.0 0.0 1.0
outer loop
vertex 64.8236190979496 50.6814834742186 2.0
vertex 64.0 26.7320508075689 2.0
vertex 64.4823619097949 26.9318516525781 2.0
endloop
endfacet
facet normal 0.0 0.0 1.0
outer loop
vertex 64.8236190979496 50.6814834742186 2.0
vertex 64.4823619097949 26.9318516525781 2.0
vertex 65.0 27.0 2.0
endloop
endfacet
facet normal 0.0 0.0 1.0
outer loop
vertex 64.8236190979496 50.6814834742186 2.0
vertex 65.0 27.0 2.0
vertex 70.0 50.0 2.0
endloop
endfacet
facet normal 0.0 0.0 1.0
outer loop
vertex 70.0 50.0 2.0
vertex 65.0 27.0 2.0
vertex 65.517638090205 26.9318516525781 2.0
endloop
endfacet
facet normal 0.0 0.0 1.0
outer loop
vertex 70.0 50.0 2.0
vertex 65.517638090205 26.9318516525781 2.0
vertex 66.0 26.7320508075689 2.0
endloop
endfacet
facet normal 0.0 0.0 1.0
outer loop
vertex 70.0 50.0 2.0
vertex 66.0 26.7320508075689 2.0
vertex 66.4142135623731 26.4142135623731 2.0
endloop
endfacet
facet normal 0.0 0.0 1.0
outer loop
vertex 70.0 50.0 2.0
vertex 66.4142135623731 26.4142135623731 2.0
vertex 66.7320508075689 26.0 2.0
endloop
endfacet
facet normal 0.0 0.0 1.0
outer loop
vertex 70.0 50.0 2.0
vertex 66.7320508075689 26.0 2.0
vertex 66.9318516525781 25.517638090205 2.0
endloop
endfacet
facet normal 0.0 0.0 1.0
outer loop
vertex 70.0 50.0 2.0
vertex 66.9318516525781 25.517638090205 2.0
vertex 67.0 25.0 2.0
endloop
endfacet
facet normal 0.0 0.0 1.0
outer loop
vertex 0.0 0.0 2.0
vertex 10.0 20.0 2.0
vertex 1.12798659301916e-014 100.0 2.0
endloop
endfacet
facet normal 0.0 0.0 1.0
outer loop
vertex 10.0 20.0 2.0
vertex 0.0 0.0 2.0
vertex 100.0 0.0 2.0
endloop
endfacet
facet normal 0.0 0.0 1.0
outer loop
vertex 10.0 20.0 2.0
vertex 100.0 0.0 2.0
vertex 35.0 20.0 2.0
endloop
endfacet
facet normal 0.0 0.0 1.0
outer loop
vertex 35.0 20.0 2.0
vertex 100.0 0.0 2.0
vertex 43.7059047744874 20.1703708685547 2.0
endloop
endfacet
facet normal 0.0 0.0 1.0
outer loop
vertex 35.0 20.0 2.0
vertex 43.7059047744874 20.1703708685547 2.0
vertex 42.5 20.6698729810778 2.0
endloop
endfacet
facet normal 0.0 0.0 1.0
outer loop
vertex 35.0 20.0 2.0
vertex 42.5 20.6698729810778 2.0
vertex 41.4644660940673 21.4644660940673 2.0
endloop
endfacet
facet normal 0.0 0.0 1.0
outer loop
vertex 35.0 20.0 2.0
vertex 41.4644660940673 21.4644660940673 2.0
vertex 40.6698729810778 22.5 2.0
endloop
endfacet
facet normal 0.0 0.0 1.0
outer loop
vertex 35.0 20.0 2.0
vertex 40.6698729810778 22.5 2.0
vertex 40.1703708685547 23.7059047744874 2.0
endloop
endfacet
facet normal 0.0 0.0 1.0
outer loop
vertex 35.0 20.0 2.0
vertex 40.1703708685547 23.7059047744874 2.0
vertex 40.0 25.0 2.0
endloop
endfacet
facet normal 0.0 0.0 1.0
outer loop
vertex 35.0 20.0 2.0
vertex 40.0 25.0 2.0
vertex 35.0 65.0 2.0
endloop
endfacet
facet normal 0.0 0.0 1.0
outer loop
vertex 35.0 65.0 2.0
vertex 40.0 25.0 2.0
vertex 35.0 90.0 2.0
endloop
endfacet
facet normal 0.0 0.0 1.0
outer loop
vertex 43.7059047744874 20.1703708685547 2.0
vertex 100.0 0.0 2.0
vertex 45.0 20.0 2.0
endloop
endfacet
facet normal 0.0 0.0 1.0
outer loop
vertex 45.0 20.0 2.0
vertex 100.0 0.0 2.0
vertex 46.2940952255126 20.1703708685547 2.0
endloop
endfacet
facet normal 0.0 0.0 1.0
outer loop
vertex 46.2940952255126 20.1703708685547 2.0
vertex 100.0 0.0 2.0
vertex 47.5 20.6698729810778 2.0
endloop
endfacet
facet normal 0.0 0.0 1.0
outer loop
vertex 47.5 20.6698729810778 2.0
vertex 100.0 0.0 2.0
vertex 48.5355339059327 21.4644660940673 2.0
endloop
endfacet
facet normal 0.0 0.0 1.0
outer loop
vertex 48.5355339059327 21.4644660940673 2.0
vertex 100.0 0.0 2.0
vertex 49.3301270189222 22.5 2.0
endloop
endfacet
facet normal 0.0 0.0 1.0
outer loop
vertex 49.3301270189222 22.5 2.0
vertex 100.0 0.0 2.0
vertex 49.8296291314453 23.7059047744874 2.0
endloop
endfacet
facet normal 0.0 0.0 1.0
outer loop
vertex 49.8296291314453 23.7059047744874 2.0
vertex 100.0 0.0 2.0
vertex 50.0 25.0 2.0
endloop
endfacet
facet normal 0.0 0.0 1.0
outer loop
vertex 50.0 25.0 2.0
vertex 100.0 0.0 2.0
vertex 64.0 23.2679491924311 2.0
endloop
endfacet
facet normal 0.0 0.0 1.0
outer loop
vertex 50.0 25.0 2.0
vertex 64.0 23.2679491924311 2.0
vertex 63.5857864376269 23.5857864376269 2.0
endloop
endfacet
facet normal 0.0 0.0 1.0
outer loop
vertex 50.0 25.0 2.0
vertex 63.5857864376269 23.5857864376269 2.0
vertex 63.2679491924311 24.0 2.0
endloop
endfacet
facet normal 0.0 0.0 1.0
outer loop
vertex 50.0 25.0 2.0
vertex 63.2679491924311 24.0 2.0
vertex 63.0681483474219 24.482361909795 2.0
endloop
endfacet
facet normal 0.0 0.0 1.0
outer loop
vertex 50.0 25.0 2.0
vertex 63.0681483474219 24.482361909795 2.0
vertex 50.6814834742186 64.8236190979496 2.0
endloop
endfacet
facet normal 0.0 0.0 1.0
outer loop
vertex 50.0 25.0 2.0
vertex 50.6814834742186 64.8236190979496 2.0
vertex 50.0 70.0 2.0
endloop
endfacet
facet normal 0.0 0.0 1.0
outer loop
vertex 50.6814834742186 64.8236190979496 2.0
vertex 63.0681483474219 24.482361909795 2.0
vertex 52.6794919243112 60.0 2.0
endloop
endfacet
facet normal 0.0 0.0 1.0
outer loop
vertex 52.6794919243112 60.0 2.0
vertex 63.0681483474219 24.482361909795 2.0
vertex 55.8578643762691 55.857864376269 2.0
endloop
endfacet
facet normal 0.0 0.0 1.0
outer loop
vertex 55.8578643762691 55.857864376269 2.0
vertex 63.0681483474219 24.482361909795 2.0
vertex 63.0 25.0 2.0
endloop
endfacet
facet normal 0.0 0.0 1.0
outer loop
vertex 55.8578643762691 55.857864376269 2.0
vertex 63.0 25.0 2.0
vertex 60.0 52.6794919243112 2.0
endloop
endfacet
facet normal 0.0 0.0 1.0
outer loop
vertex 64.0 23.2679491924311 2.0
vertex 100.0 0.0 2.0
vertex 64.482361909795 23.0681483474219 2.0
endloop
endfacet
facet normal 0.0 0.0 1.0
outer loop
vertex 64.482361909795 23.0681483474219 2.0
vertex 100.0 0.0 2.0
vertex 65.0 23.0 2.0
endloop
endfacet
facet normal 0.0 0.0 1.0
outer loop
vertex 65.0 23.0 2.0
vertex 100.0 0.0 2.0
vertex 65.517638090205 23.0681483474219 2.0
endloop
endfacet
facet normal 0.0 0.0 1.0
outer loop
vertex 65.517638090205 23.0681483474219 2.0
vertex 100.0 0.0 2.0
vertex 66.0 23.2679491924311 2.0
endloop
endfacet
facet normal 0.0 0.0 1.0
outer loop
vertex 66.0 23.2679491924311 2.0
vertex 100.0 0.0 2.0
vertex 66.4142135623731 23.5857864376269 2.0
endloop
endfacet
facet normal 0.0 0.0 1.0
outer loop
vertex 66.4142135623731 23.5857864376269 2.0
vertex 100.0 0.0 2.0
vertex 66.7320508075689 24.0 2.0
endloop
endfacet
facet normal 0.0 0.0 1.0
outer loop
vertex 66.7320508075689 24.0 2.0
vertex 100.0 0.0 2.0
vertex 66.9318516525781 24.482361909795 2.0
endloop
endfacet
facet normal 0.0 0.0 1.0
outer loop
vertex 66.9318516525781 24.482361909795 2.0
vertex 100.0 0.0 2.0
vertex 67.0 25.0 2.0
endloop
endfacet
facet normal 0.0 0.0 1.0
outer loop
vertex 67.0 25.0 2.0
vertex 100.0 0.0 2.0
vertex 72.8786796564404 22.8786796564404 2.0
endloop
endfacet
facet normal 0.0 0.0 1.0
outer loop
vertex 67.0 25.0 2.0
vertex 72.8786796564404 22.8786796564404 2.0
vertex 72.4019237886467 23.5 2.0
endloop
endfacet
facet normal 0.0 0.0 1.0
outer loop
vertex 67.0 25.0 2.0
vertex 72.4019237886467 23.5 2.0
vertex 72.1022225211328 24.2235428646924 2.0
endloop
endfacet
facet normal 0.0 0.0 1.0
outer loop
vertex 67.0 25.0 2.0
vertex 72.1022225211328 24.2235428646924 2.0
vertex 72.0 25.0 2.0
endloop
endfacet
facet normal 0.0 0.0 1.0
outer loop
vertex 67.0 25.0 2.0
vertex 72.0 25.0 2.0
vertex 70.0 50.0 2.0
endloop
endfacet
facet normal 0.0 0.0 1.0
outer loop
vertex 72.8786796564404 22.8786796564404 2.0
vertex 100.0 0.0 2.0
vertex 73.5 22.4019237886467 2.0
endloop
endfacet
facet normal 0.0 0.0 1.0
outer loop
vertex 73.5 22.4019237886467 2.0
vertex 100.0 0.0 2.0
vertex 74.2235428646924 22.1022225211328 2.0
endloop
endfacet
facet normal 0.0 0.0 1.0
outer loop
vertex 74.2235428646924 22.1022225211328 2.0
vertex 100.0 0.0 2.0
vertex 75.0 22.0 2.0
endloop
endfacet
facet normal 0.0 0.0 1.0
outer loop
vertex 75.0 22.0 2.0
vertex 100.0 0.0 2.0
vertex 75.7764571353076 22.1022225211328 2.0
endloop
endfacet
facet normal 0.0 0.0 1.0
outer loop
vertex 75.7764571353076 22.1022225211328 2.0
vertex 100.0 0.0 2.0
vertex 76.5 22.4019237886467 2.0
endloop
endfacet
facet normal 0.0 0.0 1.0
outer loop
vertex 76.5 22.4019237886467 2.0
vertex 100.0 0.0 2.0
vertex 77.1213203435596 22.8786796564404 2.0
endloop
endfacet
facet normal 0.0 0.0 1.0
outer loop
vertex 77.1213203435596 22.8786796564404 2.0
vertex 100.0 0.0 2.0
vertex 77.5980762113533 23.5 2.0
endloop
endfacet
facet normal 0.0 0.0 1.0
outer loop
vertex 77.5980762113533 23.5 2.0
vertex 100.0 0.0 2.0
vertex 77.8977774788672 24.2235428646924 2.0
endloop
endfacet
facet normal 0.0 0.0 1.0
outer loop
vertex 77.8977774788672 24.2235428646924 2.0
vertex 100.0 0.0 2.0
vertex 78.0 25.0 2.0
endloop
endfacet
facet normal 0.0 0.0 1.0
outer loop
vertex 78.0 25.0 2.0
vertex 100.0 0.0 2.0
vertex 80.0 52.6794919243112 2.0
endloop
endfacet
facet normal 0.0 0.0 1.0
outer loop
vertex 80.0 52.6794919243112 2.0
vertex 100.0 0.0 2.0
vertex 84.142135623731 55.8578643762691 2.0
endloop
endfacet
facet normal 0.0 0.0 1.0
outer loop
vertex 84.142135623731 55.8578643762691 2.0
vertex 100.0 0.0 2.0
vertex 87.3205080756888 60.0 2.0
endloop
endfacet
facet normal 0.0 0.0 1.0
outer loop
vertex 87.3205080756888 60.0 2.0
vertex 100.0 0.0 2.0
vertex 89.3185165257814 64.8236190979496 2.0
endloop
endfacet
facet normal 0.0 0.0 1.0
outer loop
vertex 89.3185165257814 64.8236190979496 2.0
vertex 100.0 0.0 2.0
vertex 90.0 70.0 2.0
endloop
endfacet
facet normal 0.0 0.0 1.0
outer loop
vertex 1.12798659301916e-014 100.0 2.0
vertex 10.0 90.0 2.0
vertex 100.0 100.0 2.0
endloop
endfacet
facet normal 0.0 0.0 1.0
outer loop
vertex 10.0 90.0 2.0
vertex 1.12798659301916e-014 100.0 2.0
vertex 10.0 20.0 2.0
endloop
endfacet
facet normal 0.0 0.0 1.0
outer loop
vertex 10.0 90.0 2.0
vertex 10.0 20.0 2.0
vertex 10.0 65.0 2.0
endloop
endfacet
facet normal 0.0 0.0 1.0
outer loop
vertex 100.0 100.0 2.0
vertex 10.0 90.0 2.0
vertex 35.0 90.0 2.0
endloop
endfacet
facet normal 0.0 0.0 1.0
outer loop
vertex 100.0 100.0 2.0
vertex 35.0 90.0 2.0
vertex 64.8236190979496 89.3185165257814 2.0
endloop
endfacet
facet normal 0.0 0.0 1.0
outer loop
vertex 64.8236190979496 89.3185165257814 2.0
vertex 35.0 90.0 2.0
vertex 60.0 87.3205080756888 2.0
endloop
endfacet
facet normal 0.0 0.0 1.0
outer loop
vertex 60.0 87.3205080756888 2.0
vertex 35.0 90.0 2.0
vertex 55.857864376269 84.142135623731 2.0
endloop
endfacet
facet normal 0.0 0.0 1.0
outer loop
vertex 55.857864376269 84.142135623731 2.0
vertex 35.0 90.0 2.0
vertex 52.6794919243112 80.0 2.0
endloop
endfacet
facet normal 0.0 0.0 1.0
outer loop
vertex 52.6794919243112 80.0 2.0
vertex 35.0 90.0 2.0
vertex 50.6814834742186 75.1763809020504 2.0
endloop
endfacet
facet normal 0.0 0.0 1.0
outer loop
vertex 50.6814834742186 75.1763809020504 2.0
vertex 35.0 90.0 2.0
vertex 40.1703708685547 26.2940952255126 2.0
endloop
endfacet
facet normal 0.0 0.0 1.0
outer loop
vertex 40.1703708685547 26.2940952255126 2.0
vertex 35.0 90.0 2.0
vertex 40.0 25.0 2.0
endloop
endfacet
facet normal 0.0 0.0 1.0
outer loop
vertex 50.6814834742186 75.1763809020504 2.0
vertex 40.1703708685547 26.2940952255126 2.0
vertex 40.6698729810778 27.5 2.0
endloop
endfacet
facet normal 0.0 0.0 1.0
outer loop
vertex 50.6814834742186 75.1763809020504 2.0
vertex 40.6698729810778 27.5 2.0
vertex 41.4644660940673 28.5355339059327 2.0
endloop
endfacet
facet normal 0.0 0.0 1.0
outer loop
vertex 50.6814834742186 75.1763809020504 2.0
vertex 41.4644660940673 28.5355339059327 2.0
vertex 42.5 29.3301270189222 2.0
endloop
endfacet
facet normal 0.0 0.0 1.0
outer loop
vertex 50.6814834742186 75.1763809020504 2.0
vertex 42.5 29.3301270189222 2.0
vertex 43.7059047744874 29.8296291314453 2.0
endloop
endfacet
facet normal 0.0 0.0 1.0
outer loop
vertex 50.6814834742186 75.1763809020504 2.0
vertex 43.7059047744874 29.8296291314453 2.0
vertex 50.0 70.0 2.0
endloop
endfacet
facet normal 0.0 0.0 1.0
outer loop
vertex 50.0 70.0 2.0
vertex 43.7059047744874 29.8296291314453 2.0
vertex 45.0 30.0 2.0
endloop
endfacet
facet normal 0.0 0.0 1.0
outer loop
vertex 50.0 70.0 2.0
vertex 45.0 30.0 2.0
vertex 46.2940952255126 29.8296291314453 2.0
endloop
endfacet
facet normal 0.0 0.0 1.0
outer loop
vertex 50.0 70.0 2.0
vertex 46.2940952255126 29.8296291314453 2.0
vertex 47.5 29.3301270189222 2.0
endloop
endfacet
facet normal 0.0 0.0 1.0
outer loop
vertex 50.0 70.0 2.0
vertex 47.5 29.3301270189222 2.0
vertex 48.5355339059327 28.5355339059327 2.0
endloop
endfacet
facet normal 0.0 0.0 1.0
outer loop
vertex 50.0 70.0 2.0
vertex 48.5355339059327 28.5355339059327 2.0
vertex 49.3301270189222 27.5 2.0
endloop
endfacet
facet normal 0.0 0.0 1.0
outer loop
vertex 50.0 70.0 2.0
vertex 49.3301270189222 27.5 2.0
vertex 49.8296291314453 26.2940952255126 2.0
endloop
endfacet
facet normal 0.0 0.0 1.0
outer loop
vertex 50.0 70.0 2.0
vertex 49.8296291314453 26.2940952255126 2.0
vertex 50.0 25.0 2.0
endloop
endfacet
facet normal 0.0 0.0 1.0
outer loop
vertex 100.0 100.0 2.0
vertex 64.8236190979496 89.3185165257814 2.0
vertex 70.0 90.0 2.0
endloop
endfacet
facet normal 0.0 0.0 1.0
outer loop
vertex 100.0 100.0 2.0
vertex 70.0 90.0 2.0
vertex 75.1763809020504 89.3185165257814 2.0
endloop
endfacet
facet normal 0.0 0.0 1.0
outer loop
vertex 100.0 100.0 2.0
vertex 75.1763809020504 89.3185165257814 2.0
vertex 80.0 87.3205080756888 2.0
endloop
endfacet
facet normal 0.0 0.0 1.0
outer loop
vertex 100.0 100.0 2.0
vertex 80.0 87.3205080756888 2.0
vertex 84.1421356237309 84.142135623731 2.0
endloop
endfacet
facet normal 0.0 0.0 1.0
outer loop
vertex 100.0 100.0 2.0
vertex 84.1421356237309 84.142135623731 2.0
vertex 87.3205080756888 80.0 2.0
endloop
endfacet
facet normal 0.0 0.0 1.0
outer loop
vertex 100.0 100.0 2.0
vertex 87.3205080756888 80.0 2.0
vertex 89.3185165257814 75.1763809020504 2.0
endloop
endfacet
facet normal 0.0 0.0 1.0
outer loop
vertex 100.0 100.0 2.0
vertex 89.3185165257814 75.1763809020504 2.0
vertex 90.0 70.0 2.0
endloop
endfacet
facet normal 0.0 0.0 1.0
outer loop
vertex 100.0 100.0 2.0
vertex 90.0 70.0 2.0
vertex 100.0 0.0 2.0
endloop
endfacet
facet normal 0.0 0.0 1.0
outer loop
vertex 72.0 25.0 2.0
vertex 75.1763809020504 50.6814834742186 2.0
vertex 70.0 50.0 2.0
endloop
endfacet
facet normal 0.0 0.0 1.0
outer loop
vertex 75.1763809020504 50.6814834742186 2.0
vertex 72.0 25.0 2.0
vertex 72.1022225211328 25.7764571353076 2.0
endloop
endfacet
facet normal 0.0 0.0 1.0
outer loop
vertex 75.1763809020504 50.6814834742186 2.0
vertex 72.1022225211328 25.7764571353076 2.0
vertex 72.4019237886467 26.5 2.0
endloop
endfacet
facet normal 0.0 0.0 1.0
outer loop
vertex 75.1763809020504 50.6814834742186 2.0
vertex 72.4019237886467 26.5 2.0
vertex 72.8786796564404 27.1213203435596 2.0
endloop
endfacet
facet normal 0.0 0.0 1.0
outer loop
vertex 75.1763809020504 50.6814834742186 2.0
vertex 72.8786796564404 27.1213203435596 2.0
vertex 73.5 27.5980762113533 2.0
endloop
endfacet
facet normal 0.0 0.0 1.0
outer loop
vertex 75.1763809020504 50.6814834742186 2.0
vertex 73.5 27.5980762113533 2.0
vertex 74.2235428646924 27.8977774788672 2.0
endloop
endfacet
facet normal 0.0 0.0 1.0
outer loop
vertex 75.1763809020504 50.6814834742186 2.0
vertex 74.2235428646924 27.8977774788672 2.0
vertex 75.0 28.0 2.0
endloop
endfacet
facet normal 0.0 0.0 1.0
outer loop
vertex 75.1763809020504 50.6814834742186 2.0
vertex 75.0 28.0 2.0
vertex 75.7764571353076 27.8977774788672 2.0
endloop
endfacet
facet normal 0.0 0.0 1.0
outer loop
vertex 75.1763809020504 50.6814834742186 2.0
vertex 75.7764571353076 27.8977774788672 2.0
vertex 80.0 52.6794919243112 2.0
endloop
endfacet
facet normal 0.0 0.0 1.0
outer loop
vertex 80.0 52.6794919243112 2.0
vertex 75.7764571353076 27.8977774788672 2.0
vertex 76.5 27.5980762113533 2.0
endloop
endfacet
facet normal 0.0 0.0 1.0
outer loop
vertex 80.0 52.6794919243112 2.0
vertex 76.5 27.5980762113533 2.0
vertex 77.1213203435596 27.1213203435596 2.0
endloop
endfacet
facet normal 0.0 0.0 1.0
outer loop
vertex 80.0 52.6794919243112 2.0
vertex 77.1213203435596 27.1213203435596 2.0
vertex 77.5980762113533 26.5 2.0
endloop
endfacet
facet normal 0.0 0.0 1.0
outer loop
vertex 80.0 52.6794919243112 2.0
vertex 77.5980762113533 26.5 2.0
vertex 77.8977774788672 25.7764571353076 2.0
endloop
endfacet
facet normal 0.0 0.0 1.0
outer loop
vertex 80.0 52.6794919243112 2.0
vertex 77.8977774788672 25.7764571353076 2.0
vertex 78.0 25.0 2.0
endloop
endfacet
facet normal -1.0 1.12798659301916e-016 0.0
outer loop
vertex 1.12798659301916e-014 100.0 2.0
vertex 0.0 0.0 0.0
vertex 0.0 0.0 2.0
endloop
endfacet
facet normal -1.0 1.12798659301916e-016 0.0
outer loop
vertex 0.0 0.0 0.0
vertex 1.12798659301916e-014 100.0 2.0
vertex 1.12798659301916e-014 100.0 0.0
endloop
endfacet
facet normal -0.0 1.0 0.0
outer loop
vertex 1.12798659301916e-014 100.0 2.0
vertex 100.0 100.0 0.0
vertex 1.12798659301916e-014 100.0 0.0
endloop
endfacet
facet normal -0.0 1.0 0.0
outer loop
vertex 100.0 100.0 0.0
vertex 1.12798659301916e-014 100.0 2.0
vertex 100.0 100.0 2.0
endloop
endfacet
facet normal 1.0 0.0 0.0
outer loop
vertex 100.0 100.0 0.0
vertex 100.0 0.0 2.0
vertex 100.0 0.0 0.0
endloop
endfacet
facet normal 1.0 0.0 0.0
outer loop
vertex 100.0 0.0 2.0
vertex 100.0 100.0 0.0
vertex 100.0 100.0 2.0
endloop
endfacet
facet normal -0.0 -1.0 -0.0
outer loop
vertex 100.0 0.0 2.0
vertex 0.0 0.0 0.0
vertex 100.0 0.0 0.0
endloop
endfacet
facet normal -0.0 -1.0 -0.0
outer loop
vertex 0.0 0.0 0.0
vertex 100.0 0.0 2.0
vertex 0.0 0.0 2.0
endloop
endfacet
facet normal 1.0 -5.6399329650958e-017 -0.0
outer loop
vertex 10.0 90.0 0.0
vertex 10.0 65.0 2.0
vertex 10.0 65.0 0.0
endloop
endfacet
facet normal 1.0 -5.6399329650958e-017 -0.0
outer loop
vertex 10.0 65.0 2.0
vertex 10.0 90.0 0.0
vertex 10.0 90.0 2.0
endloop
endfacet
facet normal -0.0 1.0 -0.0
outer loop
vertex 10.0 65.0 2.0
vertex 35.0 65.0 0.0
vertex 10.0 65.0 0.0
endloop
endfacet
facet normal -0.0 1.0 -0.0
outer loop
vertex 35.0 65.0 0.0
vertex 10.0 65.0 2.0
vertex 35.0 65.0 2.0
endloop
endfacet
facet normal -1.0 0.0 -0.0
outer loop
vertex 35.0 90.0 2.0
vertex 35.0 65.0 0.0
vertex 35.0 65.0 2.0
endloop
endfacet
facet normal -1.0 0.0 -0.0
outer loop
vertex 35.0 65.0 0.0
vertex 35.0 90.0 2.0
vertex 35.0 90.0 0.0
endloop
endfacet
facet normal -0.0 -1.0 -0.0
outer loop
vertex 35.0 90.0 2.0
vertex 10.0 90.0 0.0
vertex 35.0 90.0 0.0
endloop
endfacet
facet normal -0.0 -1.0 -0.0
outer loop
vertex 10.0 90.0 0.0
vertex 35.0 90.0 2.0
vertex 10.0 90.0 2.0
endloop
endfacet
facet normal 0.130526192220052 -0.99144486137381 -0.0
outer loop
vertex 70.0 90.0 2.0
vertex 64.8236190979496 89.3185165257814 0.0
vertex 70.0 90.0 0.0
endloop
endfacet
facet normal 0.130526192220052 -0.99144486137381 -0.0
outer loop
vertex 64.8236190979496 89.3185165257814 0.0
vertex 70.0 90.0 2.0
vertex 64.8236190979496 89.3185165257814 2.0
endloop
endfacet
facet normal 0.38268343236509 -0.923879532511287 -0.0
outer loop
vertex 64.8236190979496 89.3185165257814 2.0
vertex 60.0 87.3205080756888 0.0
vertex 64.8236190979496 89.3185165257814 0.0
endloop
endfacet
facet normal 0.38268343236509 -0.923879532511287 -0.0
outer loop
vertex 60.0 87.3205080756888 0.0
vertex 64.8236190979496 89.3185165257814 2.0
vertex 60.0 87.3205080756888 2.0
endloop
endfacet
facet normal 0.608761429008721 -0.793353340291235 -0.0
outer loop
vertex 60.0 87.3205080756888 2.0
vertex 55.857864376269 84.142135623731 0.0
vertex 60.0 87.3205080756888 0.0
endloop
endfacet
facet normal 0.608761429008721 -0.793353340291235 -0.0
outer loop
vertex 55.857864376269 84.142135623731 0.0
vertex 60.0 87.3205080756888 2.0
vertex 55.857864376269 84.142135623731 2.0
endloop
endfacet
facet normal 0.793353340291236 -0.60876142900872 -0.0
outer loop
vertex 55.857864376269 84.142135623731 0.0
vertex 52.6794919243112 80.0 2.0
vertex 52.6794919243112 80.0 0.0
endloop
endfacet
facet normal 0.793353340291236 -0.60876142900872 -0.0
outer loop
vertex 52.6794919243112 80.0 2.0
vertex 55.857864376269 84.142135623731 0.0
vertex 55.857864376269 84.142135623731 2.0
endloop
endfacet
facet normal 0.923879532511287 -0.38268343236509 -0.0
outer loop
vertex 52.6794919243112 80.0 0.0
vertex 50.6814834742186 75.1763809020504 2.0
vertex 50.6814834742186 75.1763809020504 0.0
endloop
endfacet
facet normal 0.923879532511287 -0.38268343236509 -0.0
outer loop
vertex 50.6814834742186 75.1763809020504 2.0
vertex 52.6794919243112 80.0 0.0
vertex 52.6794919243112 80.0 2.0
endloop
endfacet
facet normal 0.99144486137381 -0.130526192220052 -0.0
outer loop
vertex 50.6814834742186 75.1763809020504 0.0
vertex 50.0 70.0 2.0
vertex 50.0 70.0 0.0
endloop
endfacet
facet normal 0.99144486137381 -0.130526192220052 -0.0
outer loop
vertex 50.0 70.0 2.0
vertex 50.6814834742186 75.1763809020504 0.0
vertex 50.6814834742186 75.1763809020504 2.0
endloop
endfacet
facet normal 0.99144486137381 0.130526192220052 0.0
outer loop
vertex 50.0 70.0 0.0
vertex 50.6814834742186 64.8236190979496 2.0
vertex 50.6814834742186 64.8236190979496 0.0
endloop
endfacet
facet normal 0.99144486137381 0.130526192220052 0.0
outer loop
vertex 50.6814834742186 64.8236190979496 2.0
vertex 50.0 70.0 0.0
vertex 50.0 70.0 2.0
endloop
endfacet
facet normal 0.923879532511286 0.382683432365091 0.0
outer loop
vertex 50.6814834742186 64.8236190979496 0.0
vertex 52.6794919243112 60.0 2.0
vertex 52.6794919243112 60.0 0.0
endloop
endfacet
facet normal 0.923879532511286 0.382683432365091 0.0
outer loop
vertex 52.6794919243112 60.0 2.0
vertex 50.6814834742186 64.8236190979496 0.0
vertex 50.6814834742186 64.8236190979496 2.0
endloop
endfacet
facet normal 0.793353340291235 0.608761429008721 0.0
outer loop
vertex 52.6794919243112 60.0 0.0
vertex 55.8578643762691 55.857864376269 2.0
vertex 55.8578643762691 55.857864376269 0.0
endloop
endfacet
facet normal 0.793353340291235 0.608761429008721 0.0
outer loop
vertex 55.8578643762691 55.857864376269 2.0
vertex 52.6794919243112 60.0 0.0
vertex 52.6794919243112 60.0 2.0
endloop
endfacet
facet normal 0.60876142900872 0.793353340291236 0.0
outer loop
vertex 55.8578643762691 55.857864376269 2.0
vertex 60.0 52.6794919243112 0.0
vertex 55.8578643762691 55.857864376269 0.0
endloop
endfacet
facet normal 0.60876142900872 0.793353340291236 0.0
outer loop
vertex 60.0 52.6794919243112 0.0
vertex 55.8578643762691 55.857864376269 2.0
vertex 60.0 52.6794919243112 2.0
endloop
endfacet
facet normal 0.38268343236509 0.923879532511287 0.0
outer loop
vertex 60.0 52.6794919243112 2.0
vertex 64.8236190979496 50.6814834742186 0.0
vertex 60.0 52.6794919243112 0.0
endloop
endfacet
facet normal 0.38268343236509 0.923879532511287 0.0
outer loop
vertex 64.8236190979496 50.6814834742186 0.0
vertex 60.0 52.6794919243112 2.0
vertex 64.8236190979496 50.6814834742186 2.0
endloop
endfacet
facet normal 0.130526192220052 0.99144486137381 0.0
outer loop
vertex 64.8236190979496 50.6814834742186 2.0
vertex 70.0 50.0 0.0
vertex 64.8236190979496 50.6814834742186 0.0
endloop
endfacet
facet normal 0.130526192220052 0.99144486137381 0.0
outer loop
vertex 70.0 50.0 0.0
vertex 64.8236190979496 50.6814834742186 2.0
vertex 70.0 50.0 2.0
endloop
endfacet
facet normal -0.130526192220051 0.991444861373811 -0.0
outer loop
vertex 70.0 50.0 2.0
vertex 75.1763809020504 50.6814834742186 0.0
vertex 70.0 50.0 0.0
endloop
endfacet
facet normal -0.130526192220051 0.991444861373811 -0.0
outer loop
vertex 75.1763809020504 50.6814834742186 0.0
vertex 70.0 50.0 2.0
vertex 75.1763809020504 50.6814834742186 2.0
endloop
endfacet
facet normal -0.382683432365092 0.923879532511286 -0.0
outer loop
vertex 75.1763809020504 50.6814834742186 2.0
vertex 80.0 52.6794919243112 0.0
vertex 75.1763809020504 50.6814834742186 0.0
endloop
endfacet
facet normal -0.382683432365092 0.923879532511286 -0.0
outer loop
vertex 80.0 52.6794919243112 0.0
vertex 75.1763809020504 50.6814834742186 2.0
vertex 80.0 52.6794919243112 2.0
endloop
endfacet
facet normal -0.608761429008721 0.793353340291235 -0.0
outer loop
vertex 80.0 52.6794919243112 2.0
vertex 84.142135623731 55.8578643762691 0.0
vertex 80.0 52.6794919243112 0.0
endloop
endfacet
facet normal -0.608761429008721 0.793353340291235 -0.0
outer loop
vertex 84.142135623731 55.8578643762691 0.0
vertex 80.0 52.6794919243112 2.0
vertex 84.142135623731 55.8578643762691 2.0
endloop
endfacet
facet normal -0.793353340291235 0.608761429008721 -0.0
outer loop
vertex 87.3205080756888 60.0 2.0
vertex 84.142135623731 55.8578643762691 0.0
vertex 84.142135623731 55.8578643762691 2.0
endloop
endfacet
facet normal -0.793353340291235 0.608761429008721 -0.0
outer loop
vertex 84.142135623731 55.8578643762691 0.0
vertex 87.3205080756888 60.0 2.0
vertex 87.3205080756888 60.0 0.0
endloop
endfacet
facet normal -0.923879532511287 0.38268343236509 -0.0
outer loop
vertex 89.3185165257814 64.8236190979496 2.0
vertex 87.3205080756888 60.0 0.0
vertex 87.3205080756888 60.0 2.0
endloop
endfacet
facet normal -0.923879532511287 0.38268343236509 -0.0
outer loop
vertex 87.3205080756888 60.0 0.0
vertex 89.3185165257814 64.8236190979496 2.0
vertex 89.3185165257814 64.8236190979496 0.0
endloop
endfacet
facet normal -0.99144486137381 0.130526192220052 -0.0
outer loop
vertex 90.0 70.0 2.0
vertex 89.3185165257814 64.8236190979496 0.0
vertex 89.3185165257814 64.8236190979496 2.0
endloop
endfacet
facet normal -0.99144486137381 0.130526192220052 -0.0
outer loop
vertex 89.3185165257814 64.8236190979496 0.0
vertex 90.0 70.0 2.0
vertex 90.0 70.0 0.0
endloop
endfacet
facet normal -0.99144486137381 -0.130526192220052 -0.0
outer loop
vertex 89.3185165257814 75.1763809020504 2.0
vertex 90.0 70.0 0.0
vertex 90.0 70.0 2.0
endloop
endfacet
facet normal -0.99144486137381 -0.130526192220052 -0.0
outer loop
vertex 90.0 70.0 0.0
vertex 89.3185165257814 75.1763809020504 2.0
vertex 89.3185165257814 75.1763809020504 0.0
endloop
endfacet
facet normal -0.923879532511286 -0.382683432365091 -0.0
outer loop
vertex 87.3205080756888 80.0 2.0
vertex 89.3185165257814 75.1763809020504 0.0
vertex 89.3185165257814 75.1763809020504 2.0
endloop
endfacet
facet normal -0.923879532511286 -0.382683432365091 -0.0
outer loop
vertex 89.3185165257814 75.1763809020504 0.0
vertex 87.3205080756888 80.0 2.0
vertex 87.3205080756888 80.0 0.0
endloop
endfacet
facet normal -0.793353340291235 -0.608761429008721 -0.0
outer loop
vertex 84.1421356237309 84.142135623731 2.0
vertex 87.3205080756888 80.0 0.0
vertex 87.3205080756888 80.0 2.0
endloop
endfacet
facet normal -0.793353340291235 -0.608761429008721 -0.0
outer loop
vertex 87.3205080756888 80.0 0.0
vertex 84.1421356237309 84.142135623731 2.0
vertex 84.1421356237309 84.142135623731 0.0
endloop
endfacet
facet normal -0.608761429008721 -0.793353340291235 -0.0
outer loop
vertex 84.1421356237309 84.142135623731 2.0
vertex 80.0 87.3205080756888 0.0
vertex 84.1421356237309 84.142135623731 0.0
endloop
endfacet
facet normal -0.608761429008721 -0.793353340291235 -0.0
outer loop
vertex 80.0 87.3205080756888 0.0
vertex 84.1421356237309 84.142135623731 2.0
vertex 80.0 87.3205080756888 2.0
endloop
endfacet
facet normal -0.38268343236509 -0.923879532511287 -0.0
outer loop
vertex 80.0 87.3205080756888 2.0
vertex 75.1763809020504 89.3185165257814 0.0
vertex 80.0 87.3205080756888 0.0
endloop
endfacet
facet normal -0.38268343236509 -0.923879532511287 -0.0
outer loop
vertex 75.1763809020504 89.3185165257814 0.0
vertex 80.0 87.3205080756888 2.0
vertex 75.1763809020504 89.3185165257814 2.0
endloop
endfacet
facet normal -0.130526192220052 -0.99144486137381 -0.0
outer loop
vertex 75.1763809020504 89.3185165257814 2.0
vertex 70.0 90.0 0.0
vertex 75.1763809020504 89.3185165257814 0.0
endloop
endfacet
facet normal -0.130526192220052 -0.99144486137381 -0.0
outer loop
vertex 70.0 90.0 0.0
vertex 75.1763809020504 89.3185165257814 2.0
vertex 70.0 90.0 2.0
endloop
endfacet
facet normal 0.866025403784439 -0.5 -0.0
outer loop
vertex 22.5 41.650635094611 0.0
vertex 10.0 20.0 2.0
vertex 10.0 20.0 0.0
endloop
endfacet
facet normal 0.866025403784439 -0.5 -0.0
outer loop
vertex 10.0 20.0 2.0
vertex 22.5 41.650635094611 0.0
vertex 22.5 41.650635094611 2.0
endloop
endfacet
facet normal -0.0 1.0 -0.0
outer loop
vertex 10.0 20.0 2.0
vertex 35.0 20.0 0.0
vertex 10.0 20.0 0.0
endloop
endfacet
facet normal -0.0 1.0 -0.0
outer loop
vertex 35.0 20.0 0.0
vertex 10.0 20.0 2.0
vertex 35.0 20.0 2.0
endloop
endfacet
facet normal -0.866025403784439 -0.5 -0.0
outer loop
vertex 22.5 41.650635094611 2.0
vertex 35.0 20.0 0.0
vertex 35.0 20.0 2.0
endloop
endfacet
facet normal -0.866025403784439 -0.5 -0.0
outer loop
vertex 35.0 20.0 0.0
vertex 22.5 41.650635094611 2.0
vertex 22.5 41.650635094611 0.0
endloop
endfacet
facet normal 0.130526192220051 -0.991444861373811 -0.0
outer loop
vertex 45.0 30.0 2.0
vertex 43.7059047744874 29.8296291314453 0.0
vertex 45.0 30.0 0.0
endloop
endfacet
facet normal 0.130526192220051 -0.991444861373811 -0.0
outer loop
vertex 43.7059047744874 29.8296291314453 0.0
vertex 45.0 30.0 2.0
vertex 43.7059047744874 29.8296291314453 2.0
endloop
endfacet
facet normal 0.38268343236509 -0.923879532511287 -0.0
outer loop
vertex 43.7059047744874 29.8296291314453 2.0
vertex 42.5 29.3301270189222 0.0
vertex 43.7059047744874 29.8296291314453 0.0
endloop
endfacet
facet normal 0.38268343236509 -0.923879532511287 -0.0
outer loop
vertex 42.5 29.3301270189222 0.0
vertex 43.7059047744874 29.8296291314453 2.0
vertex 42.5 29.3301270189222 2.0
endloop
endfacet
facet normal 0.608761429008722 -0.793353340291234 -0.0
outer loop
vertex 42.5 29.3301270189222 2.0
vertex 41.4644660940673 28.5355339059327 0.0
vertex 42.5 29.3301270189222 0.0
endloop
endfacet
facet normal 0.608761429008722 -0.793353340291234 -0.0
outer loop
vertex 41.4644660940673 28.5355339059327 0.0
vertex 42.5 29.3301270189222 2.0
vertex 41.4644660940673 28.5355339059327 2.0
endloop
endfacet
facet normal 0.793353340291236 -0.60876142900872 -0.0
outer loop
vertex 41.4644660940673 28.5355339059327 0.0
vertex 40.6698729810778 27.5 2.0
vertex 40.6698729810778 27.5 0.0
endloop
endfacet
facet normal 0.793353340291236 -0.60876142900872 -0.0
outer loop
vertex 40.6698729810778 27.5 2.0
vertex 41.4644660940673 28.5355339059327 0.0
vertex 41.4644660940673 28.5355339059327 2.0
endloop
endfacet
facet normal 0.923879532511287 -0.38268343236509 -0.0
outer loop
vertex 40.6698729810778 27.5 0.0
vertex 40.1703708685547 26.2940952255126 2.0
vertex 40.1703708685547 26.2940952255126 0.0
endloop
endfacet
facet normal 0.923879532511287 -0.38268343236509 -0.0
outer loop
vertex 40.1703708685547 26.2940952255126 2.0
vertex 40.6698729810778 27.5 0.0
vertex 40.6698729810778 27.5 2.0
endloop
endfacet
facet normal 0.99144486137381 -0.130526192220052 -0.0
outer loop
vertex 40.1703708685547 26.2940952255126 0.0
vertex 40.0 25.0 2.0
vertex 40.0 25.0 0.0
endloop
endfacet
facet normal 0.99144486137381 -0.130526192220052 -0.0
outer loop
vertex 40.0 25.0 2.0
vertex 40.1703708685547 26.2940952255126 0.0
vertex 40.1703708685547 26.2940952255126 2.0
endloop
endfacet
facet normal 0.991444861373811 0.130526192220051 0.0
outer loop
vertex 40.0 25.0 0.0
vertex 40.1703708685547 23.7059047744874 2.0
vertex 40.1703708685547 23.7059047744874 0.0
endloop
endfacet
facet normal 0.991444861373811 0.130526192220051 0.0
outer loop
vertex 40.1703708685547 23.7059047744874 2.0
vertex 40.0 25.0 0.0
vertex 40.0 25.0 2.0
endloop
endfacet
facet normal 0.923879532511287 0.38268343236509 0.0
outer loop
vertex 40.1703708685547 23.7059047744874 0.0
vertex 40.6698729810778 22.5 2.0
vertex 40.6698729810778 22.5 0.0
endloop
endfacet
facet normal 0.923879532511287 0.38268343236509 0.0
outer loop
vertex 40.6698729810778 22.5 2.0
vertex 40.1703708685547 23.7059047744874 0.0
vertex 40.1703708685547 23.7059047744874 2.0
endloop
endfacet
facet normal 0.793353340291233 0.608761429008723 0.0
outer loop
vertex 40.6698729810778 22.5 0.0
vertex 41.4644660940673 21.4644660940673 2.0
vertex 41.4644660940673 21.4644660940673 0.0
endloop
endfacet
facet normal 0.793353340291233 0.608761429008723 0.0
outer loop
vertex 41.4644660940673 21.4644660940673 2.0
vertex 40.6698729810778 22.5 0.0
vertex 40.6698729810778 22.5 2.0
endloop
endfacet
facet normal 0.608761429008722 0.793353340291234 0.0
outer loop
vertex 41.4644660940673 21.4644660940673 2.0
vertex 42.5 20.6698729810778 0.0
vertex 41.4644660940673 21.4644660940673 0.0
endloop
endfacet
facet normal 0.608761429008722 0.793353340291234 0.0
outer loop
vertex 42.5 20.6698729810778 0.0
vertex 41.4644660940673 21.4644660940673 2.0
vertex 42.5 20.6698729810778 2.0
endloop
endfacet
facet normal 0.382683432365089 0.923879532511287 0.0
outer loop
vertex 42.5 20.6698729810778 2.0
vertex 43.7059047744874 20.1703708685547 0.0
vertex 42.5 20.6698729810778 0.0
endloop
endfacet
facet normal 0.382683432365089 0.923879532511287 0.0
outer loop
vertex 43.7059047744874 20.1703708685547 0.0
vertex 42.5 20.6698729810778 2.0
vertex 43.7059047744874 20.1703708685547 2.0
endloop
endfacet
facet normal 0.130526192220052 0.99144486137381 0.0
outer loop
vertex 43.7059047744874 20.1703708685547 2.0
vertex 45.0 20.0 0.0
vertex 43.7059047744874 20.1703708685547 0.0
endloop
endfacet
facet normal 0.130526192220052 0.99144486137381 0.0
outer loop
vertex 45.0 20.0 0.0
vertex 43.7059047744874 20.1703708685547 2.0
vertex 45.0 20.0 2.0
endloop
endfacet
facet normal -0.130526192220051 0.991444861373811 -0.0
outer loop
vertex 45.0 20.0 2.0
vertex 46.2940952255126 20.1703708685547 0.0
vertex 45.0 20.0 0.0
endloop
endfacet
facet normal -0.130526192220051 0.991444861373811 -0.0
outer loop
vertex 46.2940952255126 20.1703708685547 0.0
vertex 45.0 20.0 2.0
vertex 46.2940952255126 20.1703708685547 2.0
endloop
endfacet
facet normal -0.38268343236509 0.923879532511287 -0.0
outer loop
vertex 46.2940952255126 20.1703708685547 2.0
vertex 47.5 20.6698729810778 0.0
vertex 46.2940952255126 20.1703708685547 0.0
endloop
endfacet
facet normal -0.38268343236509 0.923879532511287 -0.0
outer loop
vertex 47.5 20.6698729810778 0.0
vertex 46.2940952255126 20.1703708685547 2.0
vertex 47.5 20.6698729810778 2.0
endloop
endfacet
facet normal -0.608761429008721 0.793353340291235 -0.0
outer loop
vertex 47.5 20.6698729810778 2.0
vertex 48.5355339059327 21.4644660940673 0.0
vertex 47.5 20.6698729810778 0.0
endloop
endfacet
facet normal -0.608761429008721 0.793353340291235 -0.0
outer loop
vertex 48.5355339059327 21.4644660940673 0.0
vertex 47.5 20.6698729810778 2.0
vertex 48.5355339059327 21.4644660940673 2.0
endloop
endfacet
facet normal -0.793353340291235 0.608761429008721 -0.0
outer loop
vertex 49.3301270189222 22.5 2.0
vertex 48.5355339059327 21.4644660940673 0.0
vertex 48.5355339059327 21.4644660940673 2.0
endloop
endfacet
facet normal -0.793353340291235 0.608761429008721 -0.0
outer loop
vertex 48.5355339059327 21.4644660940673 0.0
vertex 49.3301270189222 22.5 2.0
vertex 49.3301270189222 22.5 0.0
endloop
endfacet
facet normal -0.923879532511287 0.382683432365089 -0.0
outer loop
vertex 49.8296291314453 23.7059047744874 2.0
vertex 49.3301270189222 22.5 0.0
vertex 49.3301270189222 22.5 2.0
endloop
endfacet
facet normal -0.923879532511287 0.382683432365089 -0.0
outer loop
vertex 49.3301270189222 22.5 0.0
vertex 49.8296291314453 23.7059047744874 2.0
vertex 49.8296291314453 23.7059047744874 0.0
endloop
endfacet
facet normal -0.99144486137381 0.130526192220052 -0.0
outer loop
vertex 50.0 25.0 2.0
vertex 49.8296291314453 23.7059047744874 0.0
vertex 49.8296291314453 23.7059047744874 2.0
endloop
endfacet
facet normal -0.99144486137381 0.130526192220052 -0.0
outer loop
vertex 49.8296291314453 23.7059047744874 0.0
vertex 50.0 25.0 2.0
vertex 50.0 25.0 0.0
endloop
endfacet
facet normal -0.99144486137381 -0.130526192220052 -0.0
outer loop
vertex 49.8296291314453 26.2940952255126 2.0
vertex 50.0 25.0 0.0
vertex 50.0 25.0 2.0
endloop
endfacet
facet normal -0.99144486137381 -0.130526192220052 -0.0
outer loop
vertex 50.0 25.0 0.0
vertex 49.8296291314453 26.2940952255126 2.0
vertex 49.8296291314453 26.2940952255126 0.0
endloop
endfacet
facet normal -0.923879532511287 -0.382683432365089 -0.0
outer loop
vertex 49.3301270189222 27.5 2.0
vertex 49.8296291314453 26.2940952255126 0.0
vertex 49.8296291314453 26.2940952255126 2.0
endloop
endfacet
facet normal -0.923879532511287 -0.382683432365089 -0.0
outer loop
vertex 49.8296291314453 26.2940952255126 0.0
vertex 49.3301270189222 27.5 2.0
vertex 49.3301270189222 27.5 0.0
endloop
endfacet
facet normal -0.793353340291236 -0.60876142900872 -0.0
outer loop
vertex 48.5355339059327 28.5355339059327 2.0
vertex 49.3301270189222 27.5 0.0
vertex 49.3301270189222 27.5 2.0
endloop
endfacet
facet normal -0.793353340291236 -0.60876142900872 -0.0
outer loop
vertex 49.3301270189222 27.5 0.0
vertex 48.5355339059327 28.5355339059327 2.0
vertex 48.5355339059327 28.5355339059327 0.0
endloop
endfacet
facet normal -0.60876142900872 -0.793353340291236 -0.0
outer loop
vertex 48.5355339059327 28.5355339059327 2.0
vertex 47.5 29.3301270189222 0.0
vertex 48.5355339059327 28.5355339059327 0.0
endloop
endfacet
facet normal -0.60876142900872 -0.793353340291236 -0.0
outer loop
vertex 47.5 29.3301270189222 0.0
vertex 48.5355339059327 28.5355339059327 2.0
vertex 47.5 29.3301270189222 2.0
endloop
endfacet
facet normal -0.382683432365089 -0.923879532511287 -0.0
outer loop
vertex 47.5 29.3301270189222 2.0
vertex 46.2940952255126 29.8296291314453 0.0
vertex 47.5 29.3301270189222 0.0
endloop
endfacet
facet normal -0.382683432365089 -0.923879532511287 -0.0
outer loop
vertex 46.2940952255126 29.8296291314453 0.0
vertex 47.5 29.3301270189222 2.0
vertex 46.2940952255126 29.8296291314453 2.0
endloop
endfacet
facet normal -0.130526192220052 -0.99144486137381 -0.0
outer loop
vertex 46.2940952255126 29.8296291314453 2.0
vertex 45.0 30.0 0.0
vertex 46.2940952255126 29.8296291314453 0.0
endloop
endfacet
facet normal -0.130526192220052 -0.99144486137381 -0.0
outer loop
vertex 45.0 30.0 0.0
vertex 46.2940952255126 29.8296291314453 2.0
vertex 45.0 30.0 2.0
endloop
endfacet
facet normal 0.130526192220051 -0.991444861373811 -0.0
outer loop
vertex 65.0 27.0 2.0
vertex 64.4823619097949 26.9318516525781 0.0
vertex 65.0 27.0 0.0
endloop
endfacet
facet normal 0.130526192220051 -0.991444861373811 -0.0
outer loop
vertex 64.4823619097949 26.9318516525781 0.0
vertex 65.0 27.0 2.0
vertex 64.4823619097949 26.9318516525781 2.0
endloop
endfacet
facet normal 0.382683432365095 -0.923879532511285 -0.0
outer loop
vertex 64.4823619097949 26.9318516525781 2.0
vertex 64.0 26.7320508075689 0.0
vertex 64.4823619097949 26.9318516525781 0.0
endloop
endfacet
facet normal 0.382683432365095 -0.923879532511285 -0.0
outer loop
vertex 64.0 26.7320508075689 0.0
vertex 64.4823619097949 26.9318516525781 2.0
vertex 64.0 26.7320508075689 2.0
endloop
endfacet
facet normal 0.608761429008723 -0.793353340291233 -0.0
outer loop
vertex 64.0 26.7320508075689 2.0
vertex 63.5857864376269 26.4142135623731 0.0
vertex 64.0 26.7320508075689 0.0
endloop
endfacet
facet normal 0.608761429008723 -0.793353340291233 -0.0
outer loop
vertex 63.5857864376269 26.4142135623731 0.0
vertex 64.0 26.7320508075689 2.0
vertex 63.5857864376269 26.4142135623731 2.0
endloop
endfacet
facet normal 0.793353340291227 -0.608761429008732 -0.0
outer loop
vertex 63.5857864376269 26.4142135623731 0.0
vertex 63.2679491924311 26.0 2.0
vertex 63.2679491924311 26.0 0.0
endloop
endfacet
facet normal 0.793353340291227 -0.608761429008732 -0.0
outer loop
vertex 63.2679491924311 26.0 2.0
vertex 63.5857864376269 26.4142135623731 0.0
vertex 63.5857864376269 26.4142135623731 2.0
endloop
endfacet
facet normal 0.92387953251129 -0.382683432365082 -0.0
outer loop
vertex 63.2679491924311 26.0 0.0
vertex 63.0681483474219 25.517638090205 2.0
vertex 63.0681483474219 25.517638090205 0.0
endloop
endfacet
facet normal 0.92387953251129 -0.382683432365082 -0.0
outer loop
vertex 63.0681483474219 25.517638090205 2.0
vertex 63.2679491924311 26.0 0.0
vertex 63.2679491924311 26.0 2.0
endloop
endfacet
facet normal 0.99144486137381 -0.130526192220052 -0.0
outer loop
vertex 63.0681483474219 25.517638090205 0.0
vertex 63.0 25.0 2.0
vertex 63.0 25.0 0.0
endloop
endfacet
facet normal 0.99144486137381 -0.130526192220052 -0.0
outer loop
vertex 63.0 25.0 2.0
vertex 63.0681483474219 25.517638090205 0.0
vertex 63.0681483474219 25.517638090205 2.0
endloop
endfacet
facet normal 0.99144486137381 0.130526192220051 0.0
outer loop
vertex 63.0 25.0 0.0
vertex 63.0681483474219 24.482361909795 2.0
vertex 63.0681483474219 24.482361909795 0.0
endloop
endfacet
facet normal 0.99144486137381 0.130526192220051 0.0
outer loop
vertex 63.0681483474219 24.482361909795 2.0
vertex 63.0 25.0 0.0
vertex 63.0 25.0 2.0
endloop
endfacet
facet normal 0.923879532511289 0.382683432365084 0.0
outer loop
vertex 63.0681483474219 24.482361909795 0.0
vertex 63.2679491924311 24.0 2.0
vertex 63.2679491924311 24.0 0.0
endloop
endfacet
facet normal 0.923879532511289 0.382683432365084 0.0
outer loop
vertex 63.2679491924311 24.0 2.0
vertex 63.0681483474219 24.482361909795 0.0
vertex 63.0681483474219 24.482361909795 2.0
endloop
endfacet
facet normal 0.793353340291227 0.608761429008732 0.0
outer loop
vertex 63.2679491924311 24.0 0.0
vertex 63.5857864376269 23.5857864376269 2.0
vertex 63.5857864376269 23.5857864376269 0.0
endloop
endfacet
facet normal 0.793353340291227 0.608761429008732 0.0
outer loop
vertex 63.5857864376269 23.5857864376269 2.0
vertex 63.2679491924311 24.0 0.0
vertex 63.2679491924311 24.0 2.0
endloop
endfacet
facet normal 0.608761429008727 0.793353340291231 0.0
outer loop
vertex 63.5857864376269 23.5857864376269 2.0
vertex 64.0 23.2679491924311 0.0
vertex 63.5857864376269 23.5857864376269 0.0
endloop
endfacet
facet normal 0.608761429008727 0.793353340291231 0.0
outer loop
vertex 64.0 23.2679491924311 0.0
vertex 63.5857864376269 23.5857864376269 2.0
vertex 64.0 23.2679491924311 2.0
endloop
endfacet
facet normal 0.382683432365083 0.92387953251129 0.0
outer loop
vertex 64.0 23.2679491924311 2.0
vertex 64.482361909795 23.0681483474219 0.0
vertex 64.0 23.2679491924311 0.0
endloop
endfacet
facet normal 0.382683432365083 0.92387953251129 0.0
outer loop
vertex 64.482361909795 23.0681483474219 0.0
vertex 64.0 23.2679491924311 2.0
vertex 64.482361909795 23.0681483474219 2.0
endloop
endfacet
facet normal 0.130526192220054 0.99144486137381 0.0
outer loop
vertex 64.482361909795 23.0681483474219 2.0
vertex 65.0 23.0 0.0
vertex 64.482361909795 23.0681483474219 0.0
endloop
endfacet
facet normal 0.130526192220054 0.99144486137381 0.0
outer loop
vertex 65.0 23.0 0.0
vertex 64.482361909795 23.0681483474219 2.0
vertex 65.0 23.0 2.0
endloop
endfacet
facet normal -0.130526192220051 0.991444861373811 -0.0
outer loop
vertex 65.0 23.0 2.0
vertex 65.517638090205 23.0681483474219 0.0
vertex 65.0 23.0 0.0
endloop
endfacet
facet normal -0.130526192220051 0.991444861373811 -0.0
outer loop
vertex 65.517638090205 23.0681483474219 0.0
vertex 65.0 23.0 2.0
vertex 65.517638090205 23.0681483474219 2.0
endloop
endfacet
facet normal -0.382683432365095 0.923879532511285 -0.0
outer loop
vertex 65.517638090205 23.0681483474219 2.0
vertex 66.0 23.2679491924311 0.0
vertex 65.517638090205 23.0681483474219 0.0
endloop
endfacet
facet normal -0.382683432365095 0.923879532511285 -0.0
outer loop
vertex 66.0 23.2679491924311 0.0
vertex 65.517638090205 23.0681483474219 2.0
vertex 66.0 23.2679491924311 2.0
endloop
endfacet
facet normal -0.608761429008713 0.793353340291241 -0.0
outer loop
vertex 66.0 23.2679491924311 2.0
vertex 66.4142135623731 23.5857864376269 0.0
vertex 66.0 23.2679491924311 0.0
endloop
endfacet
facet normal -0.608761429008713 0.793353340291241 -0.0
outer loop
vertex 66.4142135623731 23.5857864376269 0.0
vertex 66.0 23.2679491924311 2.0
vertex 66.4142135623731 23.5857864376269 2.0
endloop
endfacet
facet normal -0.793353340291237 0.608761429008718 -0.0
outer loop
vertex 66.7320508075689 24.0 2.0
vertex 66.4142135623731 23.5857864376269 0.0
vertex 66.4142135623731 23.5857864376269 2.0
endloop
endfacet
facet normal -0.793353340291237 0.608761429008718 -0.0
outer loop
vertex 66.4142135623731 23.5857864376269 0.0
vertex 66.7320508075689 24.0 2.0
vertex 66.7320508075689 24.0 0.0
endloop
endfacet
facet normal -0.92387953251129 0.382683432365082 -0.0
outer loop
vertex 66.9318516525781 24.482361909795 2.0
vertex 66.7320508075689 24.0 0.0
vertex 66.7320508075689 24.0 2.0
endloop
endfacet
facet normal -0.92387953251129 0.382683432365082 -0.0
outer loop
vertex 66.7320508075689 24.0 0.0
vertex 66.9318516525781 24.482361909795 2.0
vertex 66.9318516525781 24.482361909795 0.0
endloop
endfacet
facet normal -0.99144486137381 0.130526192220052 -0.0
outer loop
vertex 67.0 25.0 2.0
vertex 66.9318516525781 24.482361909795 0.0
vertex 66.9318516525781 24.482361909795 2.0
endloop
endfacet
facet normal -0.99144486137381 0.130526192220052 -0.0
outer loop
vertex 66.9318516525781 24.482361909795 0.0
vertex 67.0 25.0 2.0
vertex 67.0 25.0 0.0
endloop
endfacet
facet normal -0.99144486137381 -0.130526192220052 -0.0
outer loop
vertex 66.9318516525781 25.517638090205 2.0
vertex 67.0 25.0 0.0
vertex 67.0 25.0 2.0
endloop
endfacet
facet normal -0.99144486137381 -0.130526192220052 -0.0
outer loop
vertex 67.0 25.0 0.0
vertex 66.9318516525781 25.517638090205 2.0
vertex 66.9318516525781 25.517638090205 0.0
endloop
endfacet
facet normal -0.92387953251129 -0.382683432365082 -0.0
outer loop
vertex 66.7320508075689 26.0 2.0
vertex 66.9318516525781 25.517638090205 0.0
vertex 66.9318516525781 25.517638090205 2.0
endloop
endfacet
facet normal -0.92387953251129 -0.382683432365082 -0.0
outer loop
vertex 66.9318516525781 25.517638090205 0.0
vertex 66.7320508075689 26.0 2.0
vertex 66.7320508075689 26.0 0.0
endloop
endfacet
facet normal -0.793353340291227 -0.608761429008732 -0.0
outer loop
vertex 66.4142135623731 26.4142135623731 2.0
vertex 66.7320508075689 26.0 0.0
vertex 66.7320508075689 26.0 2.0
endloop
endfacet
facet normal -0.793353340291227 -0.608761429008732 -0.0
outer loop
vertex 66.7320508075689 26.0 0.0
vertex 66.4142135623731 26.4142135623731 2.0
vertex 66.4142135623731 26.4142135623731 0.0
endloop
endfacet
facet normal -0.608761429008723 -0.793353340291233 -0.0
outer loop
vertex 66.4142135623731 26.4142135623731 2.0
vertex 66.0 26.7320508075689 0.0
vertex 66.4142135623731 26.4142135623731 0.0
endloop
endfacet
facet normal -0.608761429008723 -0.793353340291233 -0.0
outer loop
vertex 66.0 26.7320508075689 0.0
vertex 66.4142135623731 26.4142135623731 2.0
vertex 66.0 26.7320508075689 2.0
endloop
endfacet
facet normal -0.382683432365095 -0.923879532511285 -0.0
outer loop
vertex 66.0 26.7320508075689 2.0
vertex 65.517638090205 26.9318516525781 0.0
vertex 66.0 26.7320508075689 0.0
endloop
endfacet
facet normal -0.382683432365095 -0.923879532511285 -0.0
outer loop
vertex 65.517638090205 26.9318516525781 0.0
vertex 66.0 26.7320508075689 2.0
vertex 65.517638090205 26.9318516525781 2.0
endloop
endfacet
facet normal -0.130526192220051 -0.991444861373811 -0.0
outer loop
vertex 65.517638090205 26.9318516525781 2.0
vertex 65.0 27.0 0.0
vertex 65.517638090205 26.9318516525781 0.0
endloop
endfacet
facet normal -0.130526192220051 -0.991444861373811 -0.0
outer loop
vertex 65.0 27.0 0.0
vertex 65.517638090205 26.9318516525781 2.0
vertex 65.0 27.0 2.0
endloop
endfacet
facet normal -0.793353340291241 0.608761429008713 -0.0
outer loop
vertex 77.5980762113533 23.5 2.0
vertex 77.1213203435596 22.8786796564404 0.0
vertex 77.1213203435596 22.8786796564404 2.0
endloop
endfacet
facet normal -0.793353340291241 0.608761429008713 -0.0
outer loop
vertex 77.1213203435596 22.8786796564404 0.0
vertex 77.5980762113533 23.5 2.0
vertex 77.5980762113533 23.5 0.0
endloop
endfacet
facet normal -0.923879532511285 0.382683432365094 -0.0
outer loop
vertex 77.8977774788672 24.2235428646924 2.0
vertex 77.5980762113533 23.5 0.0
vertex 77.5980762113533 23.5 2.0
endloop
endfacet
facet normal -0.923879532511285 0.382683432365094 -0.0
outer loop
vertex 77.5980762113533 23.5 0.0
vertex 77.8977774788672 24.2235428646924 2.0
vertex 77.8977774788672 24.2235428646924 0.0
endloop
endfacet
facet normal -0.991444861373811 0.130526192220045 -0.0
outer loop
vertex 78.0 25.0 2.0
vertex 77.8977774788672 24.2235428646924 0.0
vertex 77.8977774788672 24.2235428646924 2.0
endloop
endfacet
facet normal -0.991444861373811 0.130526192220045 -0.0
outer loop
vertex 77.8977774788672 24.2235428646924 0.0
vertex 78.0 25.0 2.0
vertex 78.0 25.0 0.0
endloop
endfacet
facet normal -0.991444861373811 -0.130526192220045 -0.0
outer loop
vertex 77.8977774788672 25.7764571353076 2.0
vertex 78.0 25.0 0.0
vertex 78.0 25.0 2.0
endloop
endfacet
facet normal -0.991444861373811 -0.130526192220045 -0.0
outer loop
vertex 78.0 25.0 0.0
vertex 77.8977774788672 25.7764571353076 2.0
vertex 77.8977774788672 25.7764571353076 0.0
endloop
endfacet
facet normal -0.923879532511286 -0.382683432365093 -0.0
outer loop
vertex 77.5980762113533 26.5 2.0
vertex 77.8977774788672 25.7764571353076 0.0
vertex 77.8977774788672 25.7764571353076 2.0
endloop
endfacet
facet normal -0.923879532511286 -0.382683432365093 -0.0
outer loop
vertex 77.8977774788672 25.7764571353076 0.0
vertex 77.5980762113533 26.5 2.0
vertex 77.5980762113533 26.5 0.0
endloop
endfacet
facet normal -0.79335334029124 -0.608761429008715 -0.0
outer loop
vertex 77.1213203435596 27.1213203435596 2.0
vertex 77.5980762113533 26.5 0.0
vertex 77.5980762113533 26.5 2.0
endloop
endfacet
facet normal -0.79335334029124 -0.608761429008715 -0.0
outer loop
vertex 77.5980762113533 26.5 0.0
vertex 77.1213203435596 27.1213203435596 2.0
vertex 77.1213203435596 27.1213203435596 0.0
endloop
endfacet
facet normal -0.608761429008717 -0.793353340291238 -0.0
outer loop
vertex 77.1213203435596 27.1213203435596 2.0
vertex 76.5 27.5980762113533 0.0
vertex 77.1213203435596 27.1213203435596 0.0
endloop
endfacet
facet normal -0.608761429008717 -0.793353340291238 -0.0
outer loop
vertex 76.5 27.5980762113533 0.0
vertex 77.1213203435596 27.1213203435596 2.0
vertex 76.5 27.5980762113533 2.0
endloop
endfacet
facet normal -0.382683432365087 -0.923879532511288 -0.0
outer loop
vertex 76.5 27.5980762113533 2.0
vertex 75.7764571353076 27.8977774788672 0.0
vertex 76.5 27.5980762113533 0.0
endloop
endfacet
facet normal -0.382683432365087 -0.923879532511288 -0.0
outer loop
vertex 75.7764571353076 27.8977774788672 0.0
vertex 76.5 27.5980762113533 2.0
vertex 75.7764571353076 27.8977774788672 2.0
endloop
endfacet
facet normal -0.130526192220053 -0.99144486137381 -0.0
outer loop
vertex 75.7764571353076 27.8977774788672 2.0
vertex 75.0 28.0 0.0
vertex 75.7764571353076 27.8977774788672 0.0
endloop
endfacet
facet normal -0.130526192220053 -0.99144486137381 -0.0
outer loop
vertex 75.0 28.0 0.0
vertex 75.7764571353076 27.8977774788672 2.0
vertex 75.0 28.0 2.0
endloop
endfacet
facet normal 0.130526192220051 -0.99144486137381 -0.0
outer loop
vertex 75.0 28.0 2.0
vertex 74.2235428646924 27.8977774788672 0.0
vertex 75.0 28.0 0.0
endloop
endfacet
facet normal 0.130526192220051 -0.99144486137381 -0.0
outer loop
vertex 74.2235428646924 27.8977774788672 0.0
vertex 75.0 28.0 2.0
vertex 74.2235428646924 27.8977774788672 2.0
endloop
endfacet
facet normal 0.382683432365092 -0.923879532511286 -0.0
outer loop
vertex 74.2235428646924 27.8977774788672 2.0
vertex 73.5 27.5980762113533 0.0
vertex 74.2235428646924 27.8977774788672 0.0
endloop
endfacet
facet normal 0.382683432365092 -0.923879532511286 -0.0
outer loop
vertex 73.5 27.5980762113533 0.0
vertex 74.2235428646924 27.8977774788672 2.0
vertex 73.5 27.5980762113533 2.0
endloop
endfacet
facet normal 0.608761429008717 -0.793353340291238 -0.0
outer loop
vertex 73.5 27.5980762113533 2.0
vertex 72.8786796564404 27.1213203435596 0.0
vertex 73.5 27.5980762113533 0.0
endloop
endfacet
facet normal 0.608761429008717 -0.793353340291238 -0.0
outer loop
vertex 72.8786796564404 27.1213203435596 0.0
vertex 73.5 27.5980762113533 2.0
vertex 72.8786796564404 27.1213203435596 2.0
endloop
endfacet
facet normal 0.793353340291242 -0.608761429008712 -0.0
outer loop
vertex 72.8786796564404 27.1213203435596 0.0
vertex 72.4019237886467 26.5 2.0
vertex 72.4019237886467 26.5 0.0
endloop
endfacet
facet normal 0.793353340291242 -0.608761429008712 -0.0
outer loop
vertex 72.4019237886467 26.5 2.0
vertex 72.8786796564404 27.1213203435596 0.0
vertex 72.8786796564404 27.1213203435596 2.0
endloop
endfacet
facet normal 0.923879532511284 -0.382683432365096 -0.0
outer loop
vertex 72.4019237886467 26.5 0.0
vertex 72.1022225211328 25.7764571353076 2.0
vertex 72.1022225211328 25.7764571353076 0.0
endloop
endfacet
facet normal 0.923879532511284 -0.382683432365096 -0.0
outer loop
vertex 72.1022225211328 25.7764571353076 2.0
vertex 72.4019237886467 26.5 0.0
vertex 72.4019237886467 26.5 2.0
endloop
endfacet
facet normal 0.991444861373811 -0.130526192220045 -0.0
outer loop
vertex 72.1022225211328 25.7764571353076 0.0
vertex 72.0 25.0 2.0
vertex 72.0 25.0 0.0
endloop
endfacet
facet normal 0.991444861373811 -0.130526192220045 -0.0
outer loop
vertex 72.0 25.0 2.0
vertex 72.1022225211328 25.7764571353076 0.0
vertex 72.1022225211328 25.7764571353076 2.0
endloop
endfacet
facet normal 0.991444861373811 0.130526192220044 0.0
outer loop
vertex 72.0 25.0 0.0
vertex 72.1022225211328 24.2235428646924 2.0
vertex 72.1022225211328 24.2235428646924 0.0
endloop
endfacet
facet normal 0.991444861373811 0.130526192220044 0.0
outer loop
vertex 72.1022225211328 24.2235428646924 2.0
vertex 72.0 25.0 0.0
vertex 72.0 25.0 2.0
endloop
endfacet
facet normal 0.923879532511284 0.382683432365096 0.0
outer loop
vertex 72.1022225211328 24.2235428646924 0.0
vertex 72.4019237886467 23.5 2.0
vertex 72.4019237886467 23.5 0.0
endloop
endfacet
facet normal 0.923879532511284 0.382683432365096 0.0
outer loop
vertex 72.4019237886467 23.5 2.0
vertex 72.1022225211328 24.2235428646924 0.0
vertex 72.1022225211328 24.2235428646924 2.0
endloop
endfacet
facet normal 0.793353340291234 0.608761429008723 0.0
outer loop
vertex 72.4019237886467 23.5 0.0
vertex 72.8786796564404 22.8786796564404 2.0
vertex 72.8786796564404 22.8786796564404 0.0
endloop
endfacet
facet normal 0.793353340291234 0.608761429008723 0.0
outer loop
vertex 72.8786796564404 22.8786796564404 2.0
vertex 72.4019237886467 23.5 0.0
vertex 72.4019237886467 23.5 2.0
endloop
endfacet
facet normal 0.608761429008724 0.793353340291233 0.0
outer loop
vertex 72.8786796564404 22.8786796564404 2.0
vertex 73.5 22.4019237886467 0.0
vertex 72.8786796564404 22.8786796564404 0.0
endloop
endfacet
facet normal 0.608761429008724 0.793353340291233 0.0
outer loop
vertex 73.5 22.4019237886467 0.0
vertex 72.8786796564404 22.8786796564404 2.0
vertex 73.5 22.4019237886467 2.0
endloop
endfacet
facet normal 0.382683432365087 0.923879532511288 0.0
outer loop
vertex 73.5 22.4019237886467 2.0
vertex 74.2235428646924 22.1022225211328 0.0
vertex 73.5 22.4019237886467 0.0
endloop
endfacet
facet normal 0.382683432365087 0.923879532511288 0.0
outer loop
vertex 74.2235428646924 22.1022225211328 0.0
vertex 73.5 22.4019237886467 2.0
vertex 74.2235428646924 22.1022225211328 2.0
endloop
endfacet
facet normal 0.130526192220053 0.99144486137381 0.0
outer loop
vertex 74.2235428646924 22.1022225211328 2.0
vertex 75.0 22.0 0.0
vertex 74.2235428646924 22.1022225211328 0.0
endloop
endfacet
facet normal 0.130526192220053 0.99144486137381 0.0
outer loop
vertex 75.0 22.0 0.0
vertex 74.2235428646924 22.1022225211328 2.0
vertex 75.0 22.0 2.0
endloop
endfacet
facet normal -0.130526192220051 0.99144486137381 -0.0
outer loop
vertex 75.0 22.0 2.0
vertex 75.7764571353076 22.1022225211328 0.0
vertex 75.0 22.0 0.0
endloop
endfacet
facet normal -0.130526192220051 0.99144486137381 -0.0
outer loop
vertex 75.7764571353076 22.1022225211328 0.0
vertex 75.0 22.0 2.0
vertex 75.7764571353076 22.1022225211328 2.0
endloop
endfacet
facet normal -0.382683432365095 0.923879532511285 -0.0
outer loop
vertex 75.7764571353076 22.1022225211328 2.0
vertex 76.5 22.4019237886467 0.0
vertex 75.7764571353076 22.1022225211328 0.0
endloop
endfacet
facet normal -0.382683432365095 0.923879532511285 -0.0
outer loop
vertex 76.5 22.4019237886467 0.0
vertex 75.7764571353076 22.1022225211328 2.0
vertex 76.5 22.4019237886467 2.0
endloop
endfacet
facet normal -0.608761429008715 0.793353340291239 -0.0
outer loop
vertex 76.5 22.4019237886467 2.0
vertex 77.1213203435596 22.8786796564404 0.0
vertex 76.5 22.4019237886467 0.0
endloop
endfacet
facet normal -0.608761429008715 0.793353340291239 -0.0
outer loop
vertex 77.1213203435596 22.8786796564404 0.0
vertex 76.5 22.4019237886467 2.0
vertex 77.1213203435596 22.8786796564404 2.0
endloop
endfacet
endsolid 100x100 avec formes
