solid 100x100x3
facet normal 0.0 0.0 -1.0
outer loop
vertex 0.0 100.0 0.0
vertex 5.0 95.0 0.0
vertex 0.0 0.0 0.0
endloop
endfacet
facet normal 0.0 0.0 -1.0
outer loop
vertex 5.0 95.0 0.0
vertex 0.0 100.0 0.0
vertex 100.0 100.0 0.0
endloop
endfacet
facet normal 0.0 0.0 -1.0
outer loop
vertex 5.0 95.0 0.0
vertex 100.0 100.0 0.0
vertex 95.0 95.0 0.0
endloop
endfacet
facet normal 0.0 0.0 -1.0
outer loop
vertex 95.0 95.0 0.0
vertex 100.0 100.0 0.0
vertex 95.0 5.0 0.0
endloop
endfacet
facet normal 0.0 0.0 -1.0
outer loop
vertex 0.0 0.0 0.0
vertex 5.0 5.0 0.0
vertex 100.0 0.0 0.0
endloop
endfacet
facet normal 0.0 0.0 -1.0
outer loop
vertex 5.0 5.0 0.0
vertex 0.0 0.0 0.0
vertex 5.0 95.0 0.0
endloop
endfacet
facet normal 0.0 0.0 -1.0
outer loop
vertex 100.0 0.0 0.0
vertex 5.0 5.0 0.0
vertex 95.0 5.0 0.0
endloop
endfacet
facet normal 0.0 0.0 -1.0
outer loop
vertex 100.0 0.0 0.0
vertex 95.0 5.0 0.0
vertex 100.0 100.0 0.0
endloop
endfacet
facet normal 0.0 0.0 1.0
outer loop
vertex 0.0 0.0 1.0
vertex 5.0 5.0 1.0
vertex 0.0 100.0 1.0
endloop
endfacet
facet normal 0.0 0.0 1.0
outer loop
vertex 5.0 5.0 1.0
vertex 0.0 0.0 1.0
vertex 100.0 0.0 1.0
endloop
endfacet
facet normal 0.0 0.0 1.0
outer loop
vertex 5.0 5.0 1.0
vertex 100.0 0.0 1.0
vertex 95.0 5.0 1.0
endloop
endfacet
facet normal 0.0 0.0 1.0
outer loop
vertex 95.0 5.0 1.0
vertex 100.0 0.0 1.0
vertex 95.0 95.0 1.0
endloop
endfacet
facet normal 0.0 0.0 1.0
outer loop
vertex 0.0 100.0 1.0
vertex 5.0 95.0 1.0
vertex 100.0 100.0 1.0
endloop
endfacet
facet normal 0.0 0.0 1.0
outer loop
vertex 5.0 95.0 1.0
vertex 0.0 100.0 1.0
vertex 5.0 5.0 1.0
endloop
endfacet
facet normal 0.0 0.0 1.0
outer loop
vertex 100.0 100.0 1.0
vertex 5.0 95.0 1.0
vertex 95.0 95.0 1.0
endloop
endfacet
facet normal 0.0 0.0 1.0
outer loop
vertex 100.0 100.0 1.0
vertex 95.0 95.0 1.0
vertex 100.0 0.0 1.0
endloop
endfacet
facet normal -0.0 -1.0 -0.0
outer loop
vertex 100.0 0.0 1.0
vertex 0.0 0.0 0.0
vertex 100.0 0.0 0.0
endloop
endfacet
facet normal -0.0 -1.0 -0.0
outer loop
vertex 0.0 0.0 0.0
vertex 100.0 0.0 1.0
vertex 0.0 0.0 1.0
endloop
endfacet
facet normal -1.0 0.0 0.0
outer loop
vertex 0.0 100.0 1.0
vertex 0.0 0.0 0.0
vertex 0.0 0.0 1.0
endloop
endfacet
facet normal -1.0 0.0 0.0
outer loop
vertex 0.0 0.0 0.0
vertex 0.0 100.0 1.0
vertex 0.0 100.0 0.0
endloop
endfacet
facet normal -0.0 1.0 0.0
outer loop
vertex 0.0 100.0 1.0
vertex 100.0 100.0 0.0
vertex 0.0 100.0 0.0
endloop
endfacet
facet normal -0.0 1.0 0.0
outer loop
vertex 100.0 100.0 0.0
vertex 0.0 100.0 1.0
vertex 100.0 100.0 1.0
endloop
endfacet
facet normal 1.0 0.0 0.0
outer loop
vertex 100.0 100.0 0.0
vertex 100.0 0.0 1.0
vertex 100.0 0.0 0.0
endloop
endfacet
facet normal 1.0 0.0 0.0
outer loop
vertex 100.0 0.0 1.0
vertex 100.0 100.0 0.0
vertex 100.0 100.0 1.0
endloop
endfacet
facet normal -2.34997206878992e-017 1.0 -0.0
outer loop
vertex 5.0 5.0 1.0
vertex 95.0 5.0 0.0
vertex 5.0 5.0 0.0
endloop
endfacet
facet normal -2.34997206878992e-017 1.0 -0.0
outer loop
vertex 95.0 5.0 0.0
vertex 5.0 5.0 1.0
vertex 95.0 5.0 1.0
endloop
endfacet
facet normal -1.0 0.0 -0.0
outer loop
vertex 95.0 95.0 1.0
vertex 95.0 5.0 0.0
vertex 95.0 5.0 1.0
endloop
endfacet
facet normal -1.0 0.0 -0.0
outer loop
vertex 95.0 5.0 0.0
vertex 95.0 95.0 1.0
vertex 95.0 95.0 0.0
endloop
endfacet
facet normal -0.0 -1.0 -0.0
outer loop
vertex 95.0 95.0 1.0
vertex 5.0 95.0 0.0
vertex 95.0 95.0 0.0
endloop
endfacet
facet normal -0.0 -1.0 -0.0
outer loop
vertex 5.0 95.0 0.0
vertex 95.0 95.0 1.0
vertex 5.0 95.0 1.0
endloop
endfacet
facet normal 1.0 0.0 0.0
outer loop
vertex 5.0 95.0 0.0
vertex 5.0 5.0 1.0
vertex 5.0 5.0 0.0
endloop
endfacet
facet normal 1.0 0.0 0.0
outer loop
vertex 5.0 5.0 1.0
vertex 5.0 95.0 0.0
vertex 5.0 95.0 1.0
endloop
endfacet
endsolid 100x100x3
