solid Boite30x30
facet normal 0.0 0.0 -1.0
outer loop
vertex 30.0 30.0 -3.0
vertex 0.0 0.0 -3.0
vertex 0.0 30.0 -3.0
endloop
endfacet
facet normal 0.0 0.0 -1.0
outer loop
vertex 0.0 0.0 -3.0
vertex 30.0 30.0 -3.0
vertex 30.0 0.0 -3.0
endloop
endfacet
facet normal -0.0 -1.0 -0.0
outer loop
vertex 30.0 0.0 20.0
vertex 0.0 0.0 -3.0
vertex 30.0 0.0 -3.0
endloop
endfacet
facet normal -0.0 -1.0 -0.0
outer loop
vertex 0.0 0.0 -3.0
vertex 30.0 0.0 20.0
vertex 0.0 0.0 20.0
endloop
endfacet
facet normal -1.0 0.0 0.0
outer loop
vertex 0.0 30.0 20.0
vertex 0.0 0.0 -3.0
vertex 0.0 0.0 20.0
endloop
endfacet
facet normal -1.0 0.0 0.0
outer loop
vertex 0.0 0.0 -3.0
vertex 0.0 30.0 20.0
vertex 0.0 30.0 -3.0
endloop
endfacet
facet normal -0.0 1.0 0.0
outer loop
vertex 0.0 30.0 20.0
vertex 30.0 30.0 -3.0
vertex 0.0 30.0 -3.0
endloop
endfacet
facet normal -0.0 1.0 0.0
outer loop
vertex 30.0 30.0 -3.0
vertex 0.0 30.0 20.0
vertex 30.0 30.0 20.0
endloop
endfacet
facet normal 1.0 0.0 0.0
outer loop
vertex 30.0 30.0 -3.0
vertex 30.0 0.0 20.0
vertex 30.0 0.0 -3.0
endloop
endfacet
facet normal 1.0 0.0 0.0
outer loop
vertex 30.0 0.0 20.0
vertex 30.0 30.0 -3.0
vertex 30.0 30.0 20.0
endloop
endfacet
facet normal -0.0 -0.0 1.0
outer loop
vertex 27.0 3.0 0.0
vertex 3.0 27.0 0.0
vertex 3.0 3.0 0.0
endloop
endfacet
facet normal -0.0 -0.0 1.0
outer loop
vertex 3.0 27.0 0.0
vertex 27.0 3.0 0.0
vertex 27.0 27.0 0.0
endloop
endfacet
facet normal 0.0 0.0 1.0
outer loop
vertex 0.0 0.0 20.0
vertex 3.0 3.0 20.0
vertex 0.0 30.0 20.0
endloop
endfacet
facet normal 0.0 0.0 1.0
outer loop
vertex 3.0 3.0 20.0
vertex 0.0 0.0 20.0
vertex 30.0 0.0 20.0
endloop
endfacet
facet normal 0.0 0.0 1.0
outer loop
vertex 3.0 3.0 20.0
vertex 30.0 0.0 20.0
vertex 27.0 3.0 20.0
endloop
endfacet
facet normal 0.0 0.0 1.0
outer loop
vertex 27.0 3.0 20.0
vertex 30.0 0.0 20.0
vertex 27.0 27.0 20.0
endloop
endfacet
facet normal 0.0 0.0 1.0
outer loop
vertex 0.0 30.0 20.0
vertex 3.0 27.0 20.0
vertex 30.0 30.0 20.0
endloop
endfacet
facet normal 0.0 0.0 1.0
outer loop
vertex 3.0 27.0 20.0
vertex 0.0 30.0 20.0
vertex 3.0 3.0 20.0
endloop
endfacet
facet normal 0.0 0.0 1.0
outer loop
vertex 30.0 30.0 20.0
vertex 3.0 27.0 20.0
vertex 27.0 27.0 20.0
endloop
endfacet
facet normal 0.0 0.0 1.0
outer loop
vertex 30.0 30.0 20.0
vertex 27.0 27.0 20.0
vertex 30.0 0.0 20.0
endloop
endfacet
facet normal 0.0 1.0 0.0
outer loop
vertex 3.0 3.0 20.0
vertex 27.0 3.0 0.0
vertex 3.0 3.0 0.0
endloop
endfacet
facet normal 0.0 1.0 0.0
outer loop
vertex 27.0 3.0 0.0
vertex 3.0 3.0 20.0
vertex 27.0 3.0 20.0
endloop
endfacet
facet normal 1.0 -0.0 0.0
outer loop
vertex 3.0 27.0 0.0
vertex 3.0 3.0 20.0
vertex 3.0 3.0 0.0
endloop
endfacet
facet normal 1.0 -0.0 0.0
outer loop
vertex 3.0 3.0 20.0
vertex 3.0 27.0 0.0
vertex 3.0 27.0 20.0
endloop
endfacet
facet normal 0.0 -1.0 0.0
outer loop
vertex 27.0 27.0 20.0
vertex 3.0 27.0 0.0
vertex 27.0 27.0 0.0
endloop
endfacet
facet normal 0.0 -1.0 0.0
outer loop
vertex 3.0 27.0 0.0
vertex 27.0 27.0 20.0
vertex 3.0 27.0 20.0
endloop
endfacet
facet normal -1.0 -0.0 -0.0
outer loop
vertex 27.0 27.0 20.0
vertex 27.0 3.0 0.0
vertex 27.0 3.0 20.0
endloop
endfacet
facet normal -1.0 -0.0 -0.0
outer loop
vertex 27.0 3.0 0.0
vertex 27.0 27.0 20.0
vertex 27.0 27.0 0.0
endloop
endfacet
endsolid Boite30x30
