solid OpenSCAD_Model
  facet normal -1 0 0
    outer loop
      vertex 0 0 0
      vertex 0 0 5
      vertex 0 100 0
    endloop
  endfacet
  facet normal -1 0 0
    outer loop
      vertex 0 100 0
      vertex 0 0 5
      vertex 0 100 5
    endloop
  endfacet
  facet normal 0 -1 0
    outer loop
      vertex 0 0 5
      vertex 0 0 0
      vertex 100 0 0
    endloop
  endfacet
  facet normal 0 -1 0
    outer loop
      vertex 100 0 5
      vertex 0 0 5
      vertex 100 0 0
    endloop
  endfacet
  facet normal 0 0 -1
    outer loop
      vertex 100 5 0
      vertex 100 0 0
      vertex 5 5 0
    endloop
  endfacet
  facet normal 0 0 -1
    outer loop
      vertex 0 0 0
      vertex 0 100 0
      vertex 5 5 0
    endloop
  endfacet
  facet normal 0 0 -1
    outer loop
      vertex 0 0 0
      vertex 5 5 0
      vertex 100 0 0
    endloop
  endfacet
  facet normal 0 0 -1
    outer loop
      vertex 5 5 0
      vertex 0 100 0
      vertex 5 100 0
    endloop
  endfacet
  facet normal 0 1 0
    outer loop
      vertex 0 100 0
      vertex 0 100 5
      vertex 5 100 0
    endloop
  endfacet
  facet normal 0 1 0
    outer loop
      vertex 5 100 0
      vertex 0 100 5
      vertex 5 100 5
    endloop
  endfacet
  facet normal 0 0 1
    outer loop
      vertex 5 5 5
      vertex 0 0 5
      vertex 100 0 5
    endloop
  endfacet
  facet normal 0 0 1
    outer loop
      vertex 5 5 5
      vertex 5 100 5
      vertex 0 100 5
    endloop
  endfacet
  facet normal 0 0 1
    outer loop
      vertex 0 100 5
      vertex 0 0 5
      vertex 5 5 5
    endloop
  endfacet
  facet normal 0 0 1
    outer loop
      vertex 100 5 5
      vertex 5 5 5
      vertex 100 0 5
    endloop
  endfacet
  facet normal 1 0 0
    outer loop
      vertex 100 0 5
      vertex 100 0 0
      vertex 100 5 0
    endloop
  endfacet
  facet normal 1 0 0
    outer loop
      vertex 100 5 5
      vertex 100 0 5
      vertex 100 5 0
    endloop
  endfacet
  facet normal 0 1 0
    outer loop
      vertex 100 5 5
      vertex 100 5 0
      vertex 5 5 5
    endloop
  endfacet
  facet normal 0 1 0
    outer loop
      vertex 5 5 5
      vertex 100 5 0
      vertex 5 5 0
    endloop
  endfacet
  facet normal 1 0 0
    outer loop
      vertex 5 100 0
      vertex 5 100 5
      vertex 5 5 5
    endloop
  endfacet
  facet normal 1 0 0
    outer loop
      vertex 5 5 0
      vertex 5 100 0
      vertex 5 5 5
    endloop
  endfacet
endsolid OpenSCAD_Model
