solid Rond 15mm
facet normal 0.0 0.0 -1.0
outer loop
vertex -14.488887394336 3.88228567653781 0.0
vertex -14.488887394336 -3.88228567653781 0.0
vertex -15.0 9.18485099360515e-016 0.0
endloop
endfacet
facet normal 0.0 0.0 -1.0
outer loop
vertex -14.488887394336 -3.88228567653781 0.0
vertex -14.488887394336 3.88228567653781 0.0
vertex -12.9903810567666 7.5 0.0
endloop
endfacet
facet normal 0.0 0.0 -1.0
outer loop
vertex -14.488887394336 -3.88228567653781 0.0
vertex -12.9903810567666 7.5 0.0
vertex -12.9903810567666 -7.5 0.0
endloop
endfacet
facet normal 0.0 0.0 -1.0
outer loop
vertex -12.9903810567666 -7.5 0.0
vertex -12.9903810567666 7.5 0.0
vertex -10.6066017177982 -10.6066017177982 0.0
endloop
endfacet
facet normal 0.0 0.0 -1.0
outer loop
vertex -10.6066017177982 -10.6066017177982 0.0
vertex -12.9903810567666 7.5 0.0
vertex -10.6066017177982 10.6066017177982 0.0
endloop
endfacet
facet normal 0.0 0.0 -1.0
outer loop
vertex -10.6066017177982 -10.6066017177982 0.0
vertex -10.6066017177982 10.6066017177982 0.0
vertex -7.50000000000001 -12.9903810567666 0.0
endloop
endfacet
facet normal 0.0 0.0 -1.0
outer loop
vertex -7.50000000000001 -12.9903810567666 0.0
vertex -10.6066017177982 10.6066017177982 0.0
vertex -7.5 12.9903810567666 0.0
endloop
endfacet
facet normal 0.0 0.0 -1.0
outer loop
vertex -7.50000000000001 -12.9903810567666 0.0
vertex -7.5 12.9903810567666 0.0
vertex -3.88228567653782 -14.488887394336 0.0
endloop
endfacet
facet normal 0.0 0.0 -1.0
outer loop
vertex -3.88228567653782 -14.488887394336 0.0
vertex -7.5 12.9903810567666 0.0
vertex -3.88228567653781 14.488887394336 0.0
endloop
endfacet
facet normal 0.0 0.0 -1.0
outer loop
vertex -3.88228567653782 -14.488887394336 0.0
vertex -3.88228567653781 14.488887394336 0.0
vertex -1.83697019872103e-015 -15.0 0.0
endloop
endfacet
facet normal 0.0 0.0 -1.0
outer loop
vertex -1.83697019872103e-015 -15.0 0.0
vertex -3.88228567653781 14.488887394336 0.0
vertex 0.0 15.0 0.0
endloop
endfacet
facet normal 0.0 0.0 -1.0
outer loop
vertex -1.83697019872103e-015 -15.0 0.0
vertex 0.0 15.0 0.0
vertex 3.88228567653781 -14.488887394336 0.0
endloop
endfacet
facet normal 0.0 0.0 -1.0
outer loop
vertex 3.88228567653781 -14.488887394336 0.0
vertex 0.0 15.0 0.0
vertex 3.88228567653782 14.488887394336 0.0
endloop
endfacet
facet normal 0.0 0.0 -1.0
outer loop
vertex 3.88228567653781 -14.488887394336 0.0
vertex 3.88228567653782 14.488887394336 0.0
vertex 7.5 -12.9903810567666 0.0
endloop
endfacet
facet normal 0.0 0.0 -1.0
outer loop
vertex 7.5 -12.9903810567666 0.0
vertex 3.88228567653782 14.488887394336 0.0
vertex 7.50000000000001 12.9903810567666 0.0
endloop
endfacet
facet normal 0.0 0.0 -1.0
outer loop
vertex 7.5 -12.9903810567666 0.0
vertex 7.50000000000001 12.9903810567666 0.0
vertex 10.6066017177982 -10.6066017177982 0.0
endloop
endfacet
facet normal 0.0 0.0 -1.0
outer loop
vertex 10.6066017177982 -10.6066017177982 0.0
vertex 7.50000000000001 12.9903810567666 0.0
vertex 10.6066017177982 10.6066017177982 0.0
endloop
endfacet
facet normal 0.0 0.0 -1.0
outer loop
vertex 10.6066017177982 -10.6066017177982 0.0
vertex 10.6066017177982 10.6066017177982 0.0
vertex 12.9903810567666 -7.50000000000001 0.0
endloop
endfacet
facet normal 0.0 0.0 -1.0
outer loop
vertex 12.9903810567666 -7.50000000000001 0.0
vertex 10.6066017177982 10.6066017177982 0.0
vertex 12.9903810567666 7.49999999999999 0.0
endloop
endfacet
facet normal 0.0 0.0 -1.0
outer loop
vertex 12.9903810567666 -7.50000000000001 0.0
vertex 12.9903810567666 7.49999999999999 0.0
vertex 14.488887394336 -3.88228567653782 0.0
endloop
endfacet
facet normal 0.0 0.0 -1.0
outer loop
vertex 14.488887394336 -3.88228567653782 0.0
vertex 12.9903810567666 7.49999999999999 0.0
vertex 14.488887394336 3.8822856765378 0.0
endloop
endfacet
facet normal 0.0 0.0 -1.0
outer loop
vertex 14.488887394336 -3.88228567653782 0.0
vertex 14.488887394336 3.8822856765378 0.0
vertex 15.0 -2.75545529808154e-015 0.0
endloop
endfacet
facet normal -0.0 -0.0 1.0
outer loop
vertex -14.488887394336 -3.88228567653781 30.0
vertex -14.488887394336 3.88228567653781 30.0
vertex -15.0 9.18485099360515e-016 30.0
endloop
endfacet
facet normal -0.0 -0.0 1.0
outer loop
vertex -14.488887394336 3.88228567653781 30.0
vertex -14.488887394336 -3.88228567653781 30.0
vertex -12.9903810567666 -7.5 30.0
endloop
endfacet
facet normal -0.0 -0.0 1.0
outer loop
vertex -14.488887394336 3.88228567653781 30.0
vertex -12.9903810567666 -7.5 30.0
vertex -13.0 -2.38806125833734e-015 30.0
endloop
endfacet
facet normal -0.0 -0.0 1.0
outer loop
vertex -13.0 -2.38806125833734e-015 30.0
vertex -12.9903810567666 -7.5 30.0
vertex -12.5570357417579 -3.36464758633278 30.0
endloop
endfacet
facet normal -0.0 -0.0 1.0
outer loop
vertex -12.5570357417579 -3.36464758633278 30.0
vertex -12.9903810567666 -7.5 30.0
vertex -10.6066017177982 -10.6066017177982 30.0
endloop
endfacet
facet normal -0.0 -0.0 1.0
outer loop
vertex -12.5570357417579 -3.36464758633278 30.0
vertex -10.6066017177982 -10.6066017177982 30.0
vertex -11.2583302491977 -6.50000000000001 30.0
endloop
endfacet
facet normal -0.0 -0.0 1.0
outer loop
vertex -11.2583302491977 -6.50000000000001 30.0
vertex -10.6066017177982 -10.6066017177982 30.0
vertex -9.19238815542511 -9.19238815542512 30.0
endloop
endfacet
facet normal -0.0 -0.0 1.0
outer loop
vertex -9.19238815542511 -9.19238815542512 30.0
vertex -10.6066017177982 -10.6066017177982 30.0
vertex -7.50000000000001 -12.9903810567666 30.0
endloop
endfacet
facet normal -0.0 -0.0 1.0
outer loop
vertex -9.19238815542511 -9.19238815542512 30.0
vertex -7.50000000000001 -12.9903810567666 30.0
vertex -6.5 -11.2583302491977 30.0
endloop
endfacet
facet normal -0.0 -0.0 1.0
outer loop
vertex -6.5 -11.2583302491977 30.0
vertex -7.50000000000001 -12.9903810567666 30.0
vertex -3.88228567653782 -14.488887394336 30.0
endloop
endfacet
facet normal -0.0 -0.0 1.0
outer loop
vertex -6.5 -11.2583302491977 30.0
vertex -3.88228567653782 -14.488887394336 30.0
vertex -3.36464758633276 -12.5570357417579 30.0
endloop
endfacet
facet normal -0.0 -0.0 1.0
outer loop
vertex -3.36464758633276 -12.5570357417579 30.0
vertex -3.88228567653782 -14.488887394336 30.0
vertex -1.83697019872103e-015 -15.0 30.0
endloop
endfacet
facet normal -0.0 -0.0 1.0
outer loop
vertex -3.36464758633276 -12.5570357417579 30.0
vertex -1.83697019872103e-015 -15.0 30.0
vertex 1.59204083889156e-015 -13.0 30.0
endloop
endfacet
facet normal -0.0 -0.0 1.0
outer loop
vertex 1.59204083889156e-015 -13.0 30.0
vertex -1.83697019872103e-015 -15.0 30.0
vertex 3.88228567653781 -14.488887394336 30.0
endloop
endfacet
facet normal -0.0 -0.0 1.0
outer loop
vertex 1.59204083889156e-015 -13.0 30.0
vertex 3.88228567653781 -14.488887394336 30.0
vertex 3.36464758633277 -12.5570357417579 30.0
endloop
endfacet
facet normal -0.0 -0.0 1.0
outer loop
vertex 3.36464758633277 -12.5570357417579 30.0
vertex 3.88228567653781 -14.488887394336 30.0
vertex 6.5 -11.2583302491977 30.0
endloop
endfacet
facet normal -0.0 -0.0 1.0
outer loop
vertex 6.5 -11.2583302491977 30.0
vertex 3.88228567653781 -14.488887394336 30.0
vertex 7.5 -12.9903810567666 30.0
endloop
endfacet
facet normal -0.0 -0.0 1.0
outer loop
vertex 6.5 -11.2583302491977 30.0
vertex 7.5 -12.9903810567666 30.0
vertex 9.19238815542512 -9.19238815542512 30.0
endloop
endfacet
facet normal -0.0 -0.0 1.0
outer loop
vertex 9.19238815542512 -9.19238815542512 30.0
vertex 7.5 -12.9903810567666 30.0
vertex 10.6066017177982 -10.6066017177982 30.0
endloop
endfacet
facet normal -0.0 -0.0 1.0
outer loop
vertex 9.19238815542512 -9.19238815542512 30.0
vertex 10.6066017177982 -10.6066017177982 30.0
vertex 11.2583302491977 -6.5 30.0
endloop
endfacet
facet normal -0.0 -0.0 1.0
outer loop
vertex 11.2583302491977 -6.5 30.0
vertex 10.6066017177982 -10.6066017177982 30.0
vertex 12.9903810567666 -7.50000000000001 30.0
endloop
endfacet
facet normal -0.0 -0.0 1.0
outer loop
vertex 11.2583302491977 -6.5 30.0
vertex 12.9903810567666 -7.50000000000001 30.0
vertex 12.5570357417579 -3.36464758633277 30.0
endloop
endfacet
facet normal -0.0 -0.0 1.0
outer loop
vertex 12.5570357417579 -3.36464758633277 30.0
vertex 12.9903810567666 -7.50000000000001 30.0
vertex 13.0 7.96020419445779e-016 30.0
endloop
endfacet
facet normal -0.0 -0.0 1.0
outer loop
vertex 13.0 7.96020419445779e-016 30.0
vertex 12.9903810567666 -7.50000000000001 30.0
vertex 14.488887394336 -3.88228567653782 30.0
endloop
endfacet
facet normal -0.0 -0.0 1.0
outer loop
vertex -13.0 -2.38806125833734e-015 30.0
vertex -12.9903810567666 7.5 30.0
vertex -14.488887394336 3.88228567653781 30.0
endloop
endfacet
facet normal -0.0 -0.0 1.0
outer loop
vertex -12.9903810567666 7.5 30.0
vertex -13.0 -2.38806125833734e-015 30.0
vertex -12.5570357417579 3.36464758633276 30.0
endloop
endfacet
facet normal -0.0 -0.0 1.0
outer loop
vertex -12.9903810567666 7.5 30.0
vertex -12.5570357417579 3.36464758633276 30.0
vertex -10.6066017177982 10.6066017177982 30.0
endloop
endfacet
facet normal -0.0 -0.0 1.0
outer loop
vertex -10.6066017177982 10.6066017177982 30.0
vertex -12.5570357417579 3.36464758633276 30.0
vertex -11.2583302491977 6.49999999999999 30.0
endloop
endfacet
facet normal -0.0 -0.0 1.0
outer loop
vertex -10.6066017177982 10.6066017177982 30.0
vertex -11.2583302491977 6.49999999999999 30.0
vertex -9.19238815542512 9.19238815542512 30.0
endloop
endfacet
facet normal -0.0 -0.0 1.0
outer loop
vertex -10.6066017177982 10.6066017177982 30.0
vertex -9.19238815542512 9.19238815542512 30.0
vertex -7.5 12.9903810567666 30.0
endloop
endfacet
facet normal -0.0 -0.0 1.0
outer loop
vertex -7.5 12.9903810567666 30.0
vertex -9.19238815542512 9.19238815542512 30.0
vertex -6.50000000000001 11.2583302491977 30.0
endloop
endfacet
facet normal -0.0 -0.0 1.0
outer loop
vertex -7.5 12.9903810567666 30.0
vertex -6.50000000000001 11.2583302491977 30.0
vertex -3.88228567653781 14.488887394336 30.0
endloop
endfacet
facet normal -0.0 -0.0 1.0
outer loop
vertex -3.88228567653781 14.488887394336 30.0
vertex -6.50000000000001 11.2583302491977 30.0
vertex -3.36464758633278 12.5570357417579 30.0
endloop
endfacet
facet normal -0.0 -0.0 1.0
outer loop
vertex -3.88228567653781 14.488887394336 30.0
vertex -3.36464758633278 12.5570357417579 30.0
vertex 0.0 15.0 30.0
endloop
endfacet
facet normal -0.0 -0.0 1.0
outer loop
vertex 0.0 15.0 30.0
vertex -3.36464758633278 12.5570357417579 30.0
vertex 0.0 13.0 30.0
endloop
endfacet
facet normal -0.0 -0.0 1.0
outer loop
vertex 0.0 15.0 30.0
vertex 0.0 13.0 30.0
vertex 3.36464758633277 12.5570357417579 30.0
endloop
endfacet
facet normal -0.0 -0.0 1.0
outer loop
vertex 0.0 15.0 30.0
vertex 3.36464758633277 12.5570357417579 30.0
vertex 3.88228567653782 14.488887394336 30.0
endloop
endfacet
facet normal -0.0 -0.0 1.0
outer loop
vertex 3.88228567653782 14.488887394336 30.0
vertex 3.36464758633277 12.5570357417579 30.0
vertex 6.5 11.2583302491977 30.0
endloop
endfacet
facet normal -0.0 -0.0 1.0
outer loop
vertex 3.88228567653782 14.488887394336 30.0
vertex 6.5 11.2583302491977 30.0
vertex 7.50000000000001 12.9903810567666 30.0
endloop
endfacet
facet normal -0.0 -0.0 1.0
outer loop
vertex 7.50000000000001 12.9903810567666 30.0
vertex 6.5 11.2583302491977 30.0
vertex 9.19238815542512 9.19238815542512 30.0
endloop
endfacet
facet normal -0.0 -0.0 1.0
outer loop
vertex 7.50000000000001 12.9903810567666 30.0
vertex 9.19238815542512 9.19238815542512 30.0
vertex 10.6066017177982 10.6066017177982 30.0
endloop
endfacet
facet normal -0.0 -0.0 1.0
outer loop
vertex 10.6066017177982 10.6066017177982 30.0
vertex 9.19238815542512 9.19238815542512 30.0
vertex 11.2583302491977 6.5 30.0
endloop
endfacet
facet normal -0.0 -0.0 1.0
outer loop
vertex 10.6066017177982 10.6066017177982 30.0
vertex 11.2583302491977 6.5 30.0
vertex 12.9903810567666 7.49999999999999 30.0
endloop
endfacet
facet normal -0.0 -0.0 1.0
outer loop
vertex 12.9903810567666 7.49999999999999 30.0
vertex 11.2583302491977 6.5 30.0
vertex 12.5570357417579 3.36464758633277 30.0
endloop
endfacet
facet normal -0.0 -0.0 1.0
outer loop
vertex 12.9903810567666 7.49999999999999 30.0
vertex 12.5570357417579 3.36464758633277 30.0
vertex 13.0 7.96020419445779e-016 30.0
endloop
endfacet
facet normal -0.0 -0.0 1.0
outer loop
vertex 12.9903810567666 7.49999999999999 30.0
vertex 13.0 7.96020419445779e-016 30.0
vertex 14.488887394336 3.8822856765378 30.0
endloop
endfacet
facet normal -0.0 -0.0 1.0
outer loop
vertex 14.488887394336 3.8822856765378 30.0
vertex 13.0 7.96020419445779e-016 30.0
vertex 14.488887394336 -3.88228567653782 30.0
endloop
endfacet
facet normal -0.0 -0.0 1.0
outer loop
vertex 14.488887394336 3.8822856765378 30.0
vertex 14.488887394336 -3.88228567653782 30.0
vertex 15.0 -2.75545529808154e-015 30.0
endloop
endfacet
facet normal -0.130526192220052 0.99144486137381 0.0
outer loop
vertex -3.88228567653781 14.488887394336 30.0
vertex 0.0 15.0 0.0
vertex -3.88228567653781 14.488887394336 0.0
endloop
endfacet
facet normal -0.130526192220052 0.99144486137381 0.0
outer loop
vertex 0.0 15.0 0.0
vertex -3.88228567653781 14.488887394336 30.0
vertex 0.0 15.0 30.0
endloop
endfacet
facet normal 0.130526192220052 0.99144486137381 0.0
outer loop
vertex 0.0 15.0 30.0
vertex 3.88228567653782 14.488887394336 0.0
vertex 0.0 15.0 0.0
endloop
endfacet
facet normal 0.130526192220052 0.99144486137381 0.0
outer loop
vertex 3.88228567653782 14.488887394336 0.0
vertex 0.0 15.0 30.0
vertex 3.88228567653782 14.488887394336 30.0
endloop
endfacet
facet normal 0.38268343236509 0.923879532511287 0.0
outer loop
vertex 3.88228567653782 14.488887394336 30.0
vertex 7.50000000000001 12.9903810567666 0.0
vertex 3.88228567653782 14.488887394336 0.0
endloop
endfacet
facet normal 0.38268343236509 0.923879532511287 0.0
outer loop
vertex 7.50000000000001 12.9903810567666 0.0
vertex 3.88228567653782 14.488887394336 30.0
vertex 7.50000000000001 12.9903810567666 30.0
endloop
endfacet
facet normal 0.608761429008721 0.793353340291235 0.0
outer loop
vertex 7.50000000000001 12.9903810567666 30.0
vertex 10.6066017177982 10.6066017177982 0.0
vertex 7.50000000000001 12.9903810567666 0.0
endloop
endfacet
facet normal 0.608761429008721 0.793353340291235 0.0
outer loop
vertex 10.6066017177982 10.6066017177982 0.0
vertex 7.50000000000001 12.9903810567666 30.0
vertex 10.6066017177982 10.6066017177982 30.0
endloop
endfacet
facet normal 0.793353340291235 0.608761429008721 0.0
outer loop
vertex 10.6066017177982 10.6066017177982 0.0
vertex 12.9903810567666 7.49999999999999 30.0
vertex 12.9903810567666 7.49999999999999 0.0
endloop
endfacet
facet normal 0.793353340291235 0.608761429008721 0.0
outer loop
vertex 12.9903810567666 7.49999999999999 30.0
vertex 10.6066017177982 10.6066017177982 0.0
vertex 10.6066017177982 10.6066017177982 30.0
endloop
endfacet
facet normal 0.923879532511287 0.382683432365089 0.0
outer loop
vertex 12.9903810567666 7.49999999999999 0.0
vertex 14.488887394336 3.8822856765378 30.0
vertex 14.488887394336 3.8822856765378 0.0
endloop
endfacet
facet normal 0.923879532511287 0.382683432365089 0.0
outer loop
vertex 14.488887394336 3.8822856765378 30.0
vertex 12.9903810567666 7.49999999999999 0.0
vertex 12.9903810567666 7.49999999999999 30.0
endloop
endfacet
facet normal 0.991444861373811 0.130526192220051 0.0
outer loop
vertex 14.488887394336 3.8822856765378 0.0
vertex 15.0 -2.75545529808154e-015 30.0
vertex 15.0 -2.75545529808154e-015 0.0
endloop
endfacet
facet normal 0.991444861373811 0.130526192220051 0.0
outer loop
vertex 15.0 -2.75545529808154e-015 30.0
vertex 14.488887394336 3.8822856765378 0.0
vertex 14.488887394336 3.8822856765378 30.0
endloop
endfacet
facet normal 0.99144486137381 -0.130526192220052 0.0
outer loop
vertex 15.0 -2.75545529808154e-015 0.0
vertex 14.488887394336 -3.88228567653782 30.0
vertex 14.488887394336 -3.88228567653782 0.0
endloop
endfacet
facet normal 0.99144486137381 -0.130526192220052 0.0
outer loop
vertex 14.488887394336 -3.88228567653782 30.0
vertex 15.0 -2.75545529808154e-015 0.0
vertex 15.0 -2.75545529808154e-015 30.0
endloop
endfacet
facet normal 0.923879532511287 -0.38268343236509 0.0
outer loop
vertex 14.488887394336 -3.88228567653782 0.0
vertex 12.9903810567666 -7.50000000000001 30.0
vertex 12.9903810567666 -7.50000000000001 0.0
endloop
endfacet
facet normal 0.923879532511287 -0.38268343236509 0.0
outer loop
vertex 12.9903810567666 -7.50000000000001 30.0
vertex 14.488887394336 -3.88228567653782 0.0
vertex 14.488887394336 -3.88228567653782 30.0
endloop
endfacet
facet normal 0.793353340291235 -0.608761429008721 0.0
outer loop
vertex 12.9903810567666 -7.50000000000001 0.0
vertex 10.6066017177982 -10.6066017177982 30.0
vertex 10.6066017177982 -10.6066017177982 0.0
endloop
endfacet
facet normal 0.793353340291235 -0.608761429008721 0.0
outer loop
vertex 10.6066017177982 -10.6066017177982 30.0
vertex 12.9903810567666 -7.50000000000001 0.0
vertex 12.9903810567666 -7.50000000000001 30.0
endloop
endfacet
facet normal 0.60876142900872 -0.793353340291236 0.0
outer loop
vertex 10.6066017177982 -10.6066017177982 30.0
vertex 7.5 -12.9903810567666 0.0
vertex 10.6066017177982 -10.6066017177982 0.0
endloop
endfacet
facet normal 0.60876142900872 -0.793353340291236 0.0
outer loop
vertex 7.5 -12.9903810567666 0.0
vertex 10.6066017177982 -10.6066017177982 30.0
vertex 7.5 -12.9903810567666 30.0
endloop
endfacet
facet normal 0.38268343236509 -0.923879532511287 0.0
outer loop
vertex 7.5 -12.9903810567666 30.0
vertex 3.88228567653781 -14.488887394336 0.0
vertex 7.5 -12.9903810567666 0.0
endloop
endfacet
facet normal 0.38268343236509 -0.923879532511287 0.0
outer loop
vertex 3.88228567653781 -14.488887394336 0.0
vertex 7.5 -12.9903810567666 30.0
vertex 3.88228567653781 -14.488887394336 30.0
endloop
endfacet
facet normal 0.130526192220051 -0.991444861373811 0.0
outer loop
vertex 3.88228567653781 -14.488887394336 30.0
vertex -1.83697019872103e-015 -15.0 0.0
vertex 3.88228567653781 -14.488887394336 0.0
endloop
endfacet
facet normal 0.130526192220051 -0.991444861373811 0.0
outer loop
vertex -1.83697019872103e-015 -15.0 0.0
vertex 3.88228567653781 -14.488887394336 30.0
vertex -1.83697019872103e-015 -15.0 30.0
endloop
endfacet
facet normal -0.130526192220052 -0.99144486137381 -0.0
outer loop
vertex -1.83697019872103e-015 -15.0 30.0
vertex -3.88228567653782 -14.488887394336 0.0
vertex -1.83697019872103e-015 -15.0 0.0
endloop
endfacet
facet normal -0.130526192220052 -0.99144486137381 -0.0
outer loop
vertex -3.88228567653782 -14.488887394336 0.0
vertex -1.83697019872103e-015 -15.0 30.0
vertex -3.88228567653782 -14.488887394336 30.0
endloop
endfacet
facet normal -0.38268343236509 -0.923879532511287 -0.0
outer loop
vertex -3.88228567653782 -14.488887394336 30.0
vertex -7.50000000000001 -12.9903810567666 0.0
vertex -3.88228567653782 -14.488887394336 0.0
endloop
endfacet
facet normal -0.38268343236509 -0.923879532511287 -0.0
outer loop
vertex -7.50000000000001 -12.9903810567666 0.0
vertex -3.88228567653782 -14.488887394336 30.0
vertex -7.50000000000001 -12.9903810567666 30.0
endloop
endfacet
facet normal -0.608761429008721 -0.793353340291235 -0.0
outer loop
vertex -7.50000000000001 -12.9903810567666 30.0
vertex -10.6066017177982 -10.6066017177982 0.0
vertex -7.50000000000001 -12.9903810567666 0.0
endloop
endfacet
facet normal -0.608761429008721 -0.793353340291235 -0.0
outer loop
vertex -10.6066017177982 -10.6066017177982 0.0
vertex -7.50000000000001 -12.9903810567666 30.0
vertex -10.6066017177982 -10.6066017177982 30.0
endloop
endfacet
facet normal -0.793353340291235 -0.608761429008721 -0.0
outer loop
vertex -12.9903810567666 -7.5 30.0
vertex -10.6066017177982 -10.6066017177982 0.0
vertex -10.6066017177982 -10.6066017177982 30.0
endloop
endfacet
facet normal -0.793353340291235 -0.608761429008721 -0.0
outer loop
vertex -10.6066017177982 -10.6066017177982 0.0
vertex -12.9903810567666 -7.5 30.0
vertex -12.9903810567666 -7.5 0.0
endloop
endfacet
facet normal -0.923879532511287 -0.382683432365089 -0.0
outer loop
vertex -14.488887394336 -3.88228567653781 30.0
vertex -12.9903810567666 -7.5 0.0
vertex -12.9903810567666 -7.5 30.0
endloop
endfacet
facet normal -0.923879532511287 -0.382683432365089 -0.0
outer loop
vertex -12.9903810567666 -7.5 0.0
vertex -14.488887394336 -3.88228567653781 30.0
vertex -14.488887394336 -3.88228567653781 0.0
endloop
endfacet
facet normal -0.99144486137381 -0.130526192220052 -0.0
outer loop
vertex -15.0 9.18485099360515e-016 30.0
vertex -14.488887394336 -3.88228567653781 0.0
vertex -14.488887394336 -3.88228567653781 30.0
endloop
endfacet
facet normal -0.99144486137381 -0.130526192220052 -0.0
outer loop
vertex -14.488887394336 -3.88228567653781 0.0
vertex -15.0 9.18485099360515e-016 30.0
vertex -15.0 9.18485099360515e-016 0.0
endloop
endfacet
facet normal -0.99144486137381 0.130526192220052 0.0
outer loop
vertex -14.488887394336 3.88228567653781 30.0
vertex -15.0 9.18485099360515e-016 0.0
vertex -15.0 9.18485099360515e-016 30.0
endloop
endfacet
facet normal -0.99144486137381 0.130526192220052 0.0
outer loop
vertex -15.0 9.18485099360515e-016 0.0
vertex -14.488887394336 3.88228567653781 30.0
vertex -14.488887394336 3.88228567653781 0.0
endloop
endfacet
facet normal -0.923879532511287 0.38268343236509 0.0
outer loop
vertex -12.9903810567666 7.5 30.0
vertex -14.488887394336 3.88228567653781 0.0
vertex -14.488887394336 3.88228567653781 30.0
endloop
endfacet
facet normal -0.923879532511287 0.38268343236509 0.0
outer loop
vertex -14.488887394336 3.88228567653781 0.0
vertex -12.9903810567666 7.5 30.0
vertex -12.9903810567666 7.5 0.0
endloop
endfacet
facet normal -0.793353340291235 0.608761429008721 0.0
outer loop
vertex -10.6066017177982 10.6066017177982 30.0
vertex -12.9903810567666 7.5 0.0
vertex -12.9903810567666 7.5 30.0
endloop
endfacet
facet normal -0.793353340291235 0.608761429008721 0.0
outer loop
vertex -12.9903810567666 7.5 0.0
vertex -10.6066017177982 10.6066017177982 30.0
vertex -10.6066017177982 10.6066017177982 0.0
endloop
endfacet
facet normal -0.608761429008721 0.793353340291235 0.0
outer loop
vertex -10.6066017177982 10.6066017177982 30.0
vertex -7.5 12.9903810567666 0.0
vertex -10.6066017177982 10.6066017177982 0.0
endloop
endfacet
facet normal -0.608761429008721 0.793353340291235 0.0
outer loop
vertex -7.5 12.9903810567666 0.0
vertex -10.6066017177982 10.6066017177982 30.0
vertex -7.5 12.9903810567666 30.0
endloop
endfacet
facet normal -0.382683432365089 0.923879532511287 0.0
outer loop
vertex -7.5 12.9903810567666 30.0
vertex -3.88228567653781 14.488887394336 0.0
vertex -7.5 12.9903810567666 0.0
endloop
endfacet
facet normal -0.382683432365089 0.923879532511287 0.0
outer loop
vertex -3.88228567653781 14.488887394336 0.0
vertex -7.5 12.9903810567666 30.0
vertex -3.88228567653781 14.488887394336 30.0
endloop
endfacet
facet normal 0.0 0.0 1.0
outer loop
vertex -12.5570357417579 -3.36464758633278 5.0
vertex -12.5570357417579 3.36464758633276 5.0
vertex -13.0 -2.38806125833734e-015 5.0
endloop
endfacet
facet normal 0.0 0.0 1.0
outer loop
vertex -12.5570357417579 3.36464758633276 5.0
vertex -12.5570357417579 -3.36464758633278 5.0
vertex -11.2583302491977 6.49999999999999 5.0
endloop
endfacet
facet normal 0.0 0.0 1.0
outer loop
vertex -11.2583302491977 6.49999999999999 5.0
vertex -12.5570357417579 -3.36464758633278 5.0
vertex -11.2583302491977 -6.50000000000001 5.0
endloop
endfacet
facet normal 0.0 0.0 1.0
outer loop
vertex -11.2583302491977 6.49999999999999 5.0
vertex -11.2583302491977 -6.50000000000001 5.0
vertex -9.19238815542512 9.19238815542512 5.0
endloop
endfacet
facet normal 0.0 0.0 1.0
outer loop
vertex -9.19238815542512 9.19238815542512 5.0
vertex -11.2583302491977 -6.50000000000001 5.0
vertex -9.19238815542511 -9.19238815542512 5.0
endloop
endfacet
facet normal 0.0 0.0 1.0
outer loop
vertex -9.19238815542512 9.19238815542512 5.0
vertex -9.19238815542511 -9.19238815542512 5.0
vertex -6.50000000000001 11.2583302491977 5.0
endloop
endfacet
facet normal 0.0 0.0 1.0
outer loop
vertex -6.50000000000001 11.2583302491977 5.0
vertex -9.19238815542511 -9.19238815542512 5.0
vertex -6.5 -11.2583302491977 5.0
endloop
endfacet
facet normal 0.0 0.0 1.0
outer loop
vertex -6.50000000000001 11.2583302491977 5.0
vertex -6.5 -11.2583302491977 5.0
vertex -3.36464758633278 12.5570357417579 5.0
endloop
endfacet
facet normal 0.0 0.0 1.0
outer loop
vertex -3.36464758633278 12.5570357417579 5.0
vertex -6.5 -11.2583302491977 5.0
vertex -3.36464758633276 -12.5570357417579 5.0
endloop
endfacet
facet normal 0.0 0.0 1.0
outer loop
vertex -3.36464758633278 12.5570357417579 5.0
vertex -3.36464758633276 -12.5570357417579 5.0
vertex 0.0 13.0 5.0
endloop
endfacet
facet normal 0.0 0.0 1.0
outer loop
vertex 0.0 13.0 5.0
vertex -3.36464758633276 -12.5570357417579 5.0
vertex 1.59204083889156e-015 -13.0 5.0
endloop
endfacet
facet normal 0.0 0.0 1.0
outer loop
vertex 0.0 13.0 5.0
vertex 1.59204083889156e-015 -13.0 5.0
vertex 3.36464758633277 12.5570357417579 5.0
endloop
endfacet
facet normal 0.0 0.0 1.0
outer loop
vertex 3.36464758633277 12.5570357417579 5.0
vertex 1.59204083889156e-015 -13.0 5.0
vertex 3.36464758633277 -12.5570357417579 5.0
endloop
endfacet
facet normal 0.0 0.0 1.0
outer loop
vertex 3.36464758633277 12.5570357417579 5.0
vertex 3.36464758633277 -12.5570357417579 5.0
vertex 6.5 11.2583302491977 5.0
endloop
endfacet
facet normal 0.0 0.0 1.0
outer loop
vertex 6.5 11.2583302491977 5.0
vertex 3.36464758633277 -12.5570357417579 5.0
vertex 6.5 -11.2583302491977 5.0
endloop
endfacet
facet normal 0.0 0.0 1.0
outer loop
vertex 6.5 11.2583302491977 5.0
vertex 6.5 -11.2583302491977 5.0
vertex 9.19238815542512 9.19238815542512 5.0
endloop
endfacet
facet normal 0.0 0.0 1.0
outer loop
vertex 9.19238815542512 9.19238815542512 5.0
vertex 6.5 -11.2583302491977 5.0
vertex 9.19238815542512 -9.19238815542512 5.0
endloop
endfacet
facet normal 0.0 0.0 1.0
outer loop
vertex 9.19238815542512 9.19238815542512 5.0
vertex 9.19238815542512 -9.19238815542512 5.0
vertex 11.2583302491977 6.5 5.0
endloop
endfacet
facet normal 0.0 0.0 1.0
outer loop
vertex 11.2583302491977 6.5 5.0
vertex 9.19238815542512 -9.19238815542512 5.0
vertex 11.2583302491977 -6.5 5.0
endloop
endfacet
facet normal 0.0 0.0 1.0
outer loop
vertex 11.2583302491977 6.5 5.0
vertex 11.2583302491977 -6.5 5.0
vertex 12.5570357417579 3.36464758633277 5.0
endloop
endfacet
facet normal 0.0 0.0 1.0
outer loop
vertex 12.5570357417579 3.36464758633277 5.0
vertex 11.2583302491977 -6.5 5.0
vertex 12.5570357417579 -3.36464758633277 5.0
endloop
endfacet
facet normal 0.0 0.0 1.0
outer loop
vertex 12.5570357417579 3.36464758633277 5.0
vertex 12.5570357417579 -3.36464758633277 5.0
vertex 13.0 7.96020419445779e-016 5.0
endloop
endfacet
facet normal -0.130526192220051 -0.99144486137381 -0.0
outer loop
vertex 3.36464758633277 12.5570357417579 30.0
vertex 0.0 13.0 5.0
vertex 3.36464758633277 12.5570357417579 5.0
endloop
endfacet
facet normal -0.130526192220051 -0.99144486137381 -0.0
outer loop
vertex 0.0 13.0 5.0
vertex 3.36464758633277 12.5570357417579 30.0
vertex 0.0 13.0 30.0
endloop
endfacet
facet normal 0.130526192220052 -0.99144486137381 -0.0
outer loop
vertex 0.0 13.0 30.0
vertex -3.36464758633278 12.5570357417579 5.0
vertex 0.0 13.0 5.0
endloop
endfacet
facet normal 0.130526192220052 -0.99144486137381 -0.0
outer loop
vertex -3.36464758633278 12.5570357417579 5.0
vertex 0.0 13.0 30.0
vertex -3.36464758633278 12.5570357417579 30.0
endloop
endfacet
facet normal 0.382683432365091 -0.923879532511286 -0.0
outer loop
vertex -3.36464758633278 12.5570357417579 30.0
vertex -6.50000000000001 11.2583302491977 5.0
vertex -3.36464758633278 12.5570357417579 5.0
endloop
endfacet
facet normal 0.382683432365091 -0.923879532511286 -0.0
outer loop
vertex -6.50000000000001 11.2583302491977 5.0
vertex -3.36464758633278 12.5570357417579 30.0
vertex -6.50000000000001 11.2583302491977 30.0
endloop
endfacet
facet normal 0.608761429008721 -0.793353340291235 -0.0
outer loop
vertex -6.50000000000001 11.2583302491977 30.0
vertex -9.19238815542512 9.19238815542512 5.0
vertex -6.50000000000001 11.2583302491977 5.0
endloop
endfacet
facet normal 0.608761429008721 -0.793353340291235 -0.0
outer loop
vertex -9.19238815542512 9.19238815542512 5.0
vertex -6.50000000000001 11.2583302491977 30.0
vertex -9.19238815542512 9.19238815542512 30.0
endloop
endfacet
facet normal 0.793353340291236 -0.60876142900872 -0.0
outer loop
vertex -9.19238815542512 9.19238815542512 5.0
vertex -11.2583302491977 6.49999999999999 30.0
vertex -11.2583302491977 6.49999999999999 5.0
endloop
endfacet
facet normal 0.793353340291236 -0.60876142900872 -0.0
outer loop
vertex -11.2583302491977 6.49999999999999 30.0
vertex -9.19238815542512 9.19238815542512 5.0
vertex -9.19238815542512 9.19238815542512 30.0
endloop
endfacet
facet normal 0.923879532511287 -0.382683432365089 -0.0
outer loop
vertex -11.2583302491977 6.49999999999999 5.0
vertex -12.5570357417579 3.36464758633276 30.0
vertex -12.5570357417579 3.36464758633276 5.0
endloop
endfacet
facet normal 0.923879532511287 -0.382683432365089 -0.0
outer loop
vertex -12.5570357417579 3.36464758633276 30.0
vertex -11.2583302491977 6.49999999999999 5.0
vertex -11.2583302491977 6.49999999999999 30.0
endloop
endfacet
facet normal 0.991444861373811 -0.130526192220051 -0.0
outer loop
vertex -12.5570357417579 3.36464758633276 5.0
vertex -13.0 -2.38806125833734e-015 30.0
vertex -13.0 -2.38806125833734e-015 5.0
endloop
endfacet
facet normal 0.991444861373811 -0.130526192220051 -0.0
outer loop
vertex -13.0 -2.38806125833734e-015 30.0
vertex -12.5570357417579 3.36464758633276 5.0
vertex -12.5570357417579 3.36464758633276 30.0
endloop
endfacet
facet normal 0.99144486137381 0.130526192220052 0.0
outer loop
vertex -13.0 -2.38806125833734e-015 5.0
vertex -12.5570357417579 -3.36464758633278 30.0
vertex -12.5570357417579 -3.36464758633278 5.0
endloop
endfacet
facet normal 0.99144486137381 0.130526192220052 0.0
outer loop
vertex -12.5570357417579 -3.36464758633278 30.0
vertex -13.0 -2.38806125833734e-015 5.0
vertex -13.0 -2.38806125833734e-015 30.0
endloop
endfacet
facet normal 0.923879532511287 0.382683432365091 0.0
outer loop
vertex -12.5570357417579 -3.36464758633278 5.0
vertex -11.2583302491977 -6.50000000000001 30.0
vertex -11.2583302491977 -6.50000000000001 5.0
endloop
endfacet
facet normal 0.923879532511287 0.382683432365091 0.0
outer loop
vertex -11.2583302491977 -6.50000000000001 30.0
vertex -12.5570357417579 -3.36464758633278 5.0
vertex -12.5570357417579 -3.36464758633278 30.0
endloop
endfacet
facet normal 0.793353340291235 0.608761429008721 0.0
outer loop
vertex -11.2583302491977 -6.50000000000001 5.0
vertex -9.19238815542511 -9.19238815542512 30.0
vertex -9.19238815542511 -9.19238815542512 5.0
endloop
endfacet
facet normal 0.793353340291235 0.608761429008721 0.0
outer loop
vertex -9.19238815542511 -9.19238815542512 30.0
vertex -11.2583302491977 -6.50000000000001 5.0
vertex -11.2583302491977 -6.50000000000001 30.0
endloop
endfacet
facet normal 0.60876142900872 0.793353340291236 0.0
outer loop
vertex -9.19238815542511 -9.19238815542512 30.0
vertex -6.5 -11.2583302491977 5.0
vertex -9.19238815542511 -9.19238815542512 5.0
endloop
endfacet
facet normal 0.60876142900872 0.793353340291236 0.0
outer loop
vertex -6.5 -11.2583302491977 5.0
vertex -9.19238815542511 -9.19238815542512 30.0
vertex -6.5 -11.2583302491977 30.0
endloop
endfacet
facet normal 0.38268343236509 0.923879532511287 0.0
outer loop
vertex -6.5 -11.2583302491977 30.0
vertex -3.36464758633276 -12.5570357417579 5.0
vertex -6.5 -11.2583302491977 5.0
endloop
endfacet
facet normal 0.38268343236509 0.923879532511287 0.0
outer loop
vertex -3.36464758633276 -12.5570357417579 5.0
vertex -6.5 -11.2583302491977 30.0
vertex -3.36464758633276 -12.5570357417579 30.0
endloop
endfacet
facet normal 0.130526192220051 0.991444861373811 0.0
outer loop
vertex -3.36464758633276 -12.5570357417579 30.0
vertex 1.59204083889156e-015 -13.0 5.0
vertex -3.36464758633276 -12.5570357417579 5.0
endloop
endfacet
facet normal 0.130526192220051 0.991444861373811 0.0
outer loop
vertex 1.59204083889156e-015 -13.0 5.0
vertex -3.36464758633276 -12.5570357417579 30.0
vertex 1.59204083889156e-015 -13.0 30.0
endloop
endfacet
facet normal -0.130526192220052 0.99144486137381 -0.0
outer loop
vertex 1.59204083889156e-015 -13.0 30.0
vertex 3.36464758633277 -12.5570357417579 5.0
vertex 1.59204083889156e-015 -13.0 5.0
endloop
endfacet
facet normal -0.130526192220052 0.99144486137381 -0.0
outer loop
vertex 3.36464758633277 -12.5570357417579 5.0
vertex 1.59204083889156e-015 -13.0 30.0
vertex 3.36464758633277 -12.5570357417579 30.0
endloop
endfacet
facet normal -0.38268343236509 0.923879532511287 -0.0
outer loop
vertex 3.36464758633277 -12.5570357417579 30.0
vertex 6.5 -11.2583302491977 5.0
vertex 3.36464758633277 -12.5570357417579 5.0
endloop
endfacet
facet normal -0.38268343236509 0.923879532511287 -0.0
outer loop
vertex 6.5 -11.2583302491977 5.0
vertex 3.36464758633277 -12.5570357417579 30.0
vertex 6.5 -11.2583302491977 30.0
endloop
endfacet
facet normal -0.608761429008721 0.793353340291235 -0.0
outer loop
vertex 6.5 -11.2583302491977 30.0
vertex 9.19238815542512 -9.19238815542512 5.0
vertex 6.5 -11.2583302491977 5.0
endloop
endfacet
facet normal -0.608761429008721 0.793353340291235 -0.0
outer loop
vertex 9.19238815542512 -9.19238815542512 5.0
vertex 6.5 -11.2583302491977 30.0
vertex 9.19238815542512 -9.19238815542512 30.0
endloop
endfacet
facet normal -0.793353340291236 0.60876142900872 -0.0
outer loop
vertex 11.2583302491977 -6.5 30.0
vertex 9.19238815542512 -9.19238815542512 5.0
vertex 9.19238815542512 -9.19238815542512 30.0
endloop
endfacet
facet normal -0.793353340291236 0.60876142900872 -0.0
outer loop
vertex 9.19238815542512 -9.19238815542512 5.0
vertex 11.2583302491977 -6.5 30.0
vertex 11.2583302491977 -6.5 5.0
endloop
endfacet
facet normal -0.923879532511287 0.38268343236509 -0.0
outer loop
vertex 12.5570357417579 -3.36464758633277 30.0
vertex 11.2583302491977 -6.5 5.0
vertex 11.2583302491977 -6.5 30.0
endloop
endfacet
facet normal -0.923879532511287 0.38268343236509 -0.0
outer loop
vertex 11.2583302491977 -6.5 5.0
vertex 12.5570357417579 -3.36464758633277 30.0
vertex 12.5570357417579 -3.36464758633277 5.0
endloop
endfacet
facet normal -0.99144486137381 0.130526192220051 -0.0
outer loop
vertex 13.0 7.96020419445779e-016 30.0
vertex 12.5570357417579 -3.36464758633277 5.0
vertex 12.5570357417579 -3.36464758633277 30.0
endloop
endfacet
facet normal -0.99144486137381 0.130526192220051 -0.0
outer loop
vertex 12.5570357417579 -3.36464758633277 5.0
vertex 13.0 7.96020419445779e-016 30.0
vertex 13.0 7.96020419445779e-016 5.0
endloop
endfacet
facet normal -0.99144486137381 -0.130526192220052 -0.0
outer loop
vertex 12.5570357417579 3.36464758633277 30.0
vertex 13.0 7.96020419445779e-016 5.0
vertex 13.0 7.96020419445779e-016 30.0
endloop
endfacet
facet normal -0.99144486137381 -0.130526192220052 -0.0
outer loop
vertex 13.0 7.96020419445779e-016 5.0
vertex 12.5570357417579 3.36464758633277 30.0
vertex 12.5570357417579 3.36464758633277 5.0
endloop
endfacet
facet normal -0.923879532511287 -0.38268343236509 -0.0
outer loop
vertex 11.2583302491977 6.5 30.0
vertex 12.5570357417579 3.36464758633277 5.0
vertex 12.5570357417579 3.36464758633277 30.0
endloop
endfacet
facet normal -0.923879532511287 -0.38268343236509 -0.0
outer loop
vertex 12.5570357417579 3.36464758633277 5.0
vertex 11.2583302491977 6.5 30.0
vertex 11.2583302491977 6.5 5.0
endloop
endfacet
facet normal -0.793353340291235 -0.608761429008721 -0.0
outer loop
vertex 9.19238815542512 9.19238815542512 30.0
vertex 11.2583302491977 6.5 5.0
vertex 11.2583302491977 6.5 30.0
endloop
endfacet
facet normal -0.793353340291235 -0.608761429008721 -0.0
outer loop
vertex 11.2583302491977 6.5 5.0
vertex 9.19238815542512 9.19238815542512 30.0
vertex 9.19238815542512 9.19238815542512 5.0
endloop
endfacet
facet normal -0.60876142900872 -0.793353340291235 -0.0
outer loop
vertex 9.19238815542512 9.19238815542512 30.0
vertex 6.5 11.2583302491977 5.0
vertex 9.19238815542512 9.19238815542512 5.0
endloop
endfacet
facet normal -0.60876142900872 -0.793353340291235 -0.0
outer loop
vertex 6.5 11.2583302491977 5.0
vertex 9.19238815542512 9.19238815542512 30.0
vertex 6.5 11.2583302491977 30.0
endloop
endfacet
facet normal -0.38268343236509 -0.923879532511287 -0.0
outer loop
vertex 6.5 11.2583302491977 30.0
vertex 3.36464758633277 12.5570357417579 5.0
vertex 6.5 11.2583302491977 5.0
endloop
endfacet
facet normal -0.38268343236509 -0.923879532511287 -0.0
outer loop
vertex 3.36464758633277 12.5570357417579 5.0
vertex 6.5 11.2583302491977 30.0
vertex 3.36464758633277 12.5570357417579 30.0
endloop
endfacet
endsolid Rond 15mm
